<svg xmlns="http://www.w3.org/2000/svg" viewBox="0 0 500 500" style="enable-background:new 0 0 500 500" xml:space="preserve"><path d="M281.9 282.5c-15.4 11.4-37.8 17.4-57 17.4-25.7.1-50.5-9.3-69.6-26.5-1.4-1.3-.2-3.1 1.6-2.1 21.2 12.1 45.2 18.5 69.7 18.5 18.3-.1 36.3-3.8 53.1-10.9 2.6-1.1 4.8 1.8 2.2 3.6zm6.4-7.3c-2-2.5-13-1.2-18-.6-1.5.2-1.8-1.1-.4-2.1 8.8-6.2 23.3-4.4 25-2.3 1.7 2.1-.4 16.6-8.7 23.5-1.3 1.1-2.5.5-1.9-.9 1.9-4.6 6-15 4-17.6zm-17.6-46.5v-6c0-.8.6-1.5 1.4-1.5h27.1c.8 0 1.5.6 1.6 1.5v5.2c0 .9-.7 2-2 3.8l-14 20c5.2-.1 10.7.7 15.4 3.3.9.5 1.4 1.4 1.4 2.4v6.4c0 .9-1 1.9-2 1.4-9-4.6-19.6-4.6-28.5.1-.9.5-1.9-.5-1.9-1.4v-6.1c-.1-1.4.3-2.9 1-4.1l16.2-23.2h-14.1c-.9-.2-1.6-.8-1.6-1.8 0 .1 0 .1 0 0zm-98.4 37.7h-8.2c-.8 0-1.4-.6-1.5-1.4v-42.1c0-.9.7-1.5 1.6-1.5h7.6c.8 0 1.4.6 1.5 1.4v5.5h.2c2-5.3 5.7-7.8 10.8-7.8s8.4 2.5 10.7 7.8c2.4-6.3 9.4-9.4 15.6-7 2 .8 3.8 2.1 5.2 3.8 2.6 3.5 2.1 8.7 2.1 13.2v26.6c0 .9-.7 1.5-1.6 1.5H208c-.8 0-1.5-.7-1.5-1.5v-22.4c0-1.8.2-6.2-.2-7.9-.6-2.8-2.5-3.6-4.8-3.6-2.2.1-4.1 1.4-4.9 3.5-.9 2.1-.8 5.7-.8 8.1v22.3c0 .9-.7 1.5-1.6 1.5H186c-.8 0-1.5-.7-1.5-1.5v-22.3c0-4.7.8-11.6-5-11.6s-5.7 6.7-5.7 11.6v22.3c.1.8-.6 1.5-1.5 1.5zm151.7-46c12.2 0 18.8 10.5 18.8 23.8 0 12.9-7.3 23.1-18.8 23.1-12 0-18.5-10.5-18.5-23.5 0-13.1 6.6-23.4 18.5-23.4zm.1 8.6c-6.1 0-6.4 8.2-6.4 13.4 0 5.1-.1 16.1 6.4 16.1 6.4 0 6.7-8.8 6.7-14.3 0-3.5-.2-7.8-1.2-11.2-1.1-2.8-2.9-3.9-5.5-4zm34.5 37.4h-8.2c-.8 0-1.5-.7-1.5-1.5v-42.1c.1-.8.8-1.4 1.6-1.4h7.6c.7 0 1.3.5 1.5 1.2v6.4h.2c2.3-5.8 5.5-8.5 11.2-8.5 3.7 0 7.3 1.3 9.6 5 2.2 3.4 2.2 9 2.2 13.1V265c-.1.8-.8 1.3-1.6 1.3H373c-.7 0-1.4-.6-1.5-1.3v-22.9c0-4.6.5-11.4-5.1-11.4-2.1.1-4 1.4-4.8 3.4-1 2.5-1.5 5.2-1.3 8v22.7c-.2.9-.9 1.6-1.7 1.6zm-109.4-20.2c0 3.2.1 5.9-1.5 8.7-1.3 2.3-3.4 3.7-5.7 3.7-3.1 0-5-2.4-5-6 0-7 6.3-8.3 12.2-8.3v1.9zm8.3 20.1c-.6.4-1.3.5-1.9.2-2.7-2.3-3.2-3.3-4.7-5.5-4.5 4.6-7.7 6-13.5 6-6.9 0-12.3-4.3-12.3-12.8-.2-5.9 3.3-11.2 8.8-13.4 4.4-2 10.7-2.3 15.4-2.8v-1.1c0-2 .2-4.3-1-6a5.46 5.46 0 0 0-4.6-2.1c-3.1 0-5.9 1.6-6.6 4.9-.1.8-.7 1.4-1.4 1.5l-8-.9c-.8-.1-1.3-.8-1.2-1.6v-.2c1.8-9.7 10.5-12.6 18.3-12.6 4 0 9.2 1.1 12.4 4.1 4 3.7 3.6 8.7 3.6 14.1V251c0 3.8 1.6 5.5 3.1 7.6.6.6.6 1.6 0 2.2-1.8 1.4-4.7 4-6.4 5.5zm-115.9-20.1c0 3.2.1 5.9-1.5 8.7-1.3 2.3-3.4 3.7-5.7 3.7-3.1 0-5-2.4-5-6 0-7 6.3-8.3 12.2-8.3v1.9zm8.2 20.1c-.6.4-1.3.5-1.9.2-2.7-2.3-3.2-3.3-4.7-5.5-4.5 4.6-7.7 6-13.5 6-6.9 0-12.3-4.3-12.3-12.8-.2-5.9 3.3-11.2 8.8-13.4 4.4-2 10.7-2.3 15.4-2.8v-1.1c0-2 .2-4.3-1-6a5.46 5.46 0 0 0-4.6-2.1c-3.1 0-5.9 1.6-6.6 4.9-.1.8-.7 1.4-1.4 1.5l-8-.9c-.8-.1-1.4-.8-1.3-1.6v-.2c1.8-9.7 10.5-12.6 18.4-12.6 4 0 9.2 1.1 12.4 4.1 4 3.7 3.6 8.7 3.6 14.1V251c0 3.8 1.6 5.5 3.1 7.6.5.8.6 1.6 0 2.2-1.7 1.4-4.7 4-6.4 5.5z" style="fill-rule:evenodd;clip-rule:evenodd"/></svg>