<svg xmlns="http://www.w3.org/2000/svg" viewBox="0 0 500 500" style="enable-background:new 0 0 500 500" xml:space="preserve"><path d="M81.9 248c-.4-.6-1.2-.7-1.8-.2-.2.1-.3.3-.4.5l-10.9 21.8c-.3.6-.1 1.4.6 1.7.2.1.4.1.6.1h15.2c.5 0 1-.3 1.2-.7 3.2-6.7 1.2-17-4.5-23.2zm8-19.8c-5.5 8.5-6.2 19.3-1.7 28.4l7.3 14.6c.2.4.7.7 1.2.7h15.2c.7 0 1.3-.6 1.3-1.3 0-.2 0-.4-.1-.6 0 0-20.4-40.8-20.9-41.9-.3-.6-1-.9-1.6-.6-.4.2-.6.4-.7.7zm178 17.5c0 5.4 2.5 9.7 12.3 11.6 5.8 1.2 7.1 2.2 7.1 4.1 0 1.9-1.2 3.1-5.3 3.1-5-.1-9.8-1.4-14.2-3.8v8.8c2.9 1.4 6.8 3.1 14.1 3.1 10.2 0 14.3-4.6 14.3-11.4m-.1-.1c0-6.4-3.4-9.4-13-11.5-5.3-1.2-6.6-2.3-6.6-4 0-2.1 1.9-3 5.4-3 4.2 0 8.4 1.3 12.4 3.1v-8.4c-3.8-1.7-7.9-2.6-12.1-2.5-9.5 0-14.4 4.1-14.4 10.9m131.6-10.3v36.5h7.8v-27.8l3.3 7.4 11 20.4h9.8v-36.5h-7.8V259l-2.9-6.9-8.9-16.7zm-58 0h8.5V272h-8.5zm-9.8 25.7c0-6.4-3.4-9.4-13-11.5-5.3-1.2-6.6-2.3-6.6-4 0-2.1 1.9-3 5.4-3 4.2 0 8.4 1.3 12.4 3.1v-8.4c-3.8-1.7-7.9-2.6-12.1-2.5-9.5 0-14.4 4.1-14.4 10.9 0 5.4 2.5 9.7 12.3 11.6 5.8 1.2 7.1 2.2 7.1 4.1 0 1.9-1.2 3.1-5.3 3.1-5-.1-9.8-1.4-14.2-3.8v8.8c2.9 1.4 6.8 3.1 14.1 3.1 10.2-.1 14.3-4.7 14.3-11.5m-129.8-25.7v36.5h17.5l2.7-7.9h-11.7v-28.6zm-34.6 0v7.9h9.4v28.6h8.6v-28.6h10.1v-7.9zm-12.5 0h-11.2L130.8 272h9.7l1.8-6.2c4.5 1.3 9.2 1.3 13.6 0l1.8 6.2h9.7l-12.7-36.6zm-5.6 23.8c-1.6 0-3.2-.2-4.7-.7l4.7-16 4.7 16c-1.5.5-3.1.7-4.7.7zm100.3-23.8h-11.2L225.5 272h9.7l1.8-6.2c4.5 1.3 9.2 1.3 13.6 0l1.8 6.2h9.7l-12.7-36.6zm-5.6 23.8c-1.6 0-3.2-.2-4.7-.7l4.7-16 4.7 16c-1.5.5-3.1.7-4.7.7zm136.8-23.8h-11.2L356.7 272h9.7l1.8-6.2c4.5 1.3 9.2 1.3 13.6 0l1.8 6.2h9.7l-12.7-36.6zm-5.6 23.8c-1.6 0-3.2-.2-4.7-.7l4.7-16 4.7 16c-1.6.5-3.2.7-4.7.7z"/></svg>