<svg xmlns="http://www.w3.org/2000/svg" viewBox="0 0 500 500" style="enable-background:new 0 0 500 500" xml:space="preserve"><path d="M249.9 221.6v-.2.2zm40 111.3-39.8-16.7-39.5 18.2c-.2 2-.8 4-1.8 5.8-.2.3-.3.6-.5.8 4 1.8 8 3.4 12.2 4.7 0-.3.1-.7.2-1 .5-2.5 1.7-4.8 3.4-6.7 1.6-1.7 3.3-2.3 4.9-2s2.8 1.7 3.5 3.9c.7 2.4.7 5 .1 7.5-.1.4-.2.8-.3 1.1 4.1.7 8.3 1.2 12.4 1.5 0-.4 0-.8-.1-1.2-.1-2.5.5-5.1 1.7-7.3 1.2-2 2.6-3 4.3-3.1 1.7 0 3.1 1 4.3 2.9 1.3 2.2 1.9 4.7 1.9 7.2v1.3c4.2-.3 8.3-.8 12.4-1.7-.1-.4-.3-.9-.4-1.3-.7-2.4-.8-5-.2-7.5.6-2.3 1.8-3.6 3.4-4 1.6-.4 3.2.2 4.9 1.8 1.8 1.8 3 4.1 3.6 6.6.1.5.2.9.3 1.4 4-1.3 7.9-2.9 11.7-4.7-.3-.4-.5-.8-.8-1.3-.9-1.8-1.6-4-1.8-6.2zm41.4-143.2c-.2.2-.5.4-.8.7-1.9 1.7-4.2 2.8-6.7 3.3-2.3.4-4-.1-5.1-1.4s-1.2-3-.4-5.2c.9-2.4 2.4-4.5 4.4-6 .3-.3.6-.5.9-.7-2.8-3.1-5.8-5.9-9-8.6-.2.3-.4.7-.7 1-1.4 2.1-3.4 3.8-5.7 4.8-2.1.9-3.9.9-5.3-.1s-1.9-2.6-1.7-5c.3-2.5 1.3-4.9 2.8-6.9.3-.4.5-.7.8-1-3.5-2.3-7.2-4.3-11-6.1-.1.4-.3.8-.5 1.3-.9 2.4-2.4 4.5-4.4 6.1-1.8 1.4-3.6 1.8-5.2 1.2-1.6-.6-2.5-2.1-2.9-4.4-.3-2.5.1-5.1 1.1-7.4.2-.4.4-.9.6-1.3-4-1.3-8-2.4-12.2-3.3 0 .5-.1 1-.2 1.5-.3 2.2-1 4.4-2.3 6.3l21.7 37.3L332 205c1.4-1.5 3.1-2.7 5-3.5.3-.1.6-.3.9-.4-1.7-4.1-4.1-7.8-6.6-11.4zm-98.4-31.9c-1.2-1.9-2-4-2.3-6.3-.1-.5-.1-1-.2-1.5-4.1.8-8.2 1.9-12.2 3.3.2.4.4.8.6 1.3 1 2.3 1.4 4.9 1.1 7.4-.4 2.3-1.3 3.8-2.9 4.4-1.6.6-3.3.2-5.2-1.2-2-1.6-3.5-3.7-4.4-6.1-.2-.4-.3-.9-.5-1.3-3.8 1.8-7.4 3.9-10.9 6.2.3.3.5.7.8 1 1.6 2 2.5 4.4 2.8 6.9.2 2.3-.4 4-1.7 5-1.4 1-3.1 1-5.3.1-2.3-1.1-4.3-2.7-5.7-4.8-.2-.3-.5-.7-.7-1-3.2 2.7-6.2 5.6-9 8.6.3.2.6.5.9.7 2 1.6 3.5 3.7 4.4 6 .8 2.2.6 3.9-.4 5.2-1.1 1.3-2.8 1.8-5.1 1.4-2.5-.5-4.8-1.6-6.7-3.3-.3-.2-.5-.4-.8-.7-2.6 3.5-4.9 7.3-6.9 11.1.3.1.6.3.9.4 1.9.8 3.6 2 5 3.5l42.5-9.2 21.9-37.1zm-33.3 89.7v-14.2c-1-1.2-2.1-2.2-3.3-3.2-.2 0 3.3-3.2 3.3-3.2v-13.4l-4-4.7h-16v4.7h1.8v33.3h-1.8v5.1h16c.1 0 4-4.8 4-4.4zm-6.9-.7h-4v-14.3h4v14.3zm0-19.2h-4v-14.2h4v14.2zm22.4 19.2H213v-33.3h2.1v-4.7h-11.2v4.7h1.8v33.3h-1.8v5.1h11.2zm21.5.7v-10.3h-5.8v9.6H227v-33.3h3.8v9.6h5.8v-14.3H232l-1.8 1.9c-.6-.7-1.2-1.3-1.9-1.9H224l-5.1 4.7v34s4.1 4.4 4.4 4.4h9.4c.3 0 3.9-4.4 3.9-4.4zm21.7-34h2v-4.7h-9.7v4.7h1.8s-2.3 6.6-2.5 7.9v.2-.2c-.3-1.2-2.7-7.9-2.7-7.9h1.8v-4.7h-11.2v4.7h1.8s5.6 15.9 5.6 16.1v17.2h-1.9v5.1h11.9v-5.1h-2.8v-16.6c-.1 0 5.8-16.7 5.9-16.7zm14.3-2.8c-.6-.7-1.2-1.3-1.9-1.9h-4.3l-4.5 4.7v34s4 4.4 4.2 4.4h8.9c.3 0 3.9-4.4 3.9-4.4v-10.3h-5.7v9.6h-3.8v-33.3h3.8v9.6h5.8v-14.3h-4.6l-1.8 1.9zm8.8 36.1v5.1h16l3.4-3.7v-11h-5.7v9.6h-4v-33.3h2.2v-4.7h-11.9v4.7h2.3v33.3zm37.1-38h-15.7v4.7h1.9v33.3h-1.9v5.1h15.7l2.9-3v-11.7h-5.5v9.6h-4.3v-14.3h2.7v2.2h3.7v-9.6h-3.7v2.5h-2.7v-14.1h4.3v9.6h5.6v-11.3c-1-1.1-2-2.1-3-3zm-56.9 98.1v-8h1.6v-1.5h-4.8v1.5h1.6v8zm10.7-8v-1.5h-4.4v9.5h4.6v-1.4h-3v-2.8h2.1v-1.4h-2.1v-2.4zm7.3 1.6-1-3.1H277l1.7 4.6-1.8 4.9h1.6l1.1-3.4 1.1 3.4h1.6l-1.8-4.9 1.6-4.6h-1.6zm6.8 6.4h1.6l.3-2.1h1.8l.3 2.1h1.6l-1.8-9.5h-2.1l-1.7 9.5zm2.7-7.6.6 4.1h-1.3l.7-4.1zm8.8.4c0-.6.3-.9.8-.9.4 0 .8.2.8 1.1l1.6-.2c0-1.3-1-2.3-2.2-2.3-1.6 0-2.5.8-2.5 2.4 0 2.7 3.3 3.2 3.3 5.1 0 .5-.3.8-.8.9h-.2c-.5 0-.9-.5-1-1.4l-1.5.2c-.1 1.4 1 2.5 2.3 2.6h.1c1.3.1 2.4-.8 2.6-2v-.4c0-2.7-3.3-3.5-3.3-5.1zm-99.6-2.2-1.7 9.5h1.6l.3-2.1h1.8l.3 2.1h1.6l-1.7-9.5h-2.2zm.4 5.9.6-4.1.6 4.1h-1.2zm13.1 1.1v-7.1h-1.7v7.2c0 .7-.3 1-.9 1s-.8-.3-.8-1v-7.2h-1.7v7.1c0 1.4 1.1 2.5 2.5 2.5s2.5-1.1 2.6-2.5zm7.4 1.2c-.5 0-.9-.5-1-1.4l-1.6.2c-.1 1.4 1 2.5 2.3 2.6h.1c1.3.1 2.4-.8 2.6-2v-.4c0-2.6-3.3-3.4-3.3-5 0-.6.3-.9.8-.9.4 0 .8.2.9 1.1l1.5-.2c0-1.3-1-2.3-2.3-2.3-1.6 0-2.5.8-2.5 2.4 0 2.7 3.3 3.2 3.3 5.1 0 .5-.3.9-.8.9.1-.1 0-.1 0-.1zm10 1.2v-8h1.6v-1.5l-4.8.1v1.4h1.6v8zm6.5-9.5h1.6v9.5h-1.6zm10.6 5.5-1.9-5.5h-1.6v9.5h1.5V301h.1l2 5.9h1.4v-9.5h-1.4v5.5z"/><path d="M341.1 253.3c2.3-1.1 4.9-1.5 7.4-1.3.3 0 .6 0 .9.1v-.8c0-4.1-.3-8.2-.7-12.3-.3.1-.7.2-1 .2-2 .4-4.1.5-6.1 0l-18.7 21H176L157.9 240c-2 .4-4 .4-6-.1-.2 0-.4-.1-.6-.1-.5 3.8-.7 7.7-.7 11.6v.7c.2 0 .5-.1.7-.1 2.5-.2 5.1.3 7.4 1.4 2.1 1.1 3.1 2.5 3.2 4.1.1 1.7-.8 3.2-2.8 4.5-2.2 1.4-4.6 2.1-7.2 2.2h-.5c.6 4.3 1.4 8.5 2.5 12.7l.4-.1c2.4-.9 5-1 7.5-.5 2.3.5 3.7 1.6 4.2 3.1.5 1.6 0 3.3-1.5 5.1-1.7 1.9-3.9 3.2-6.4 4l-.3.1c1.5 3.8 3.3 7.5 5.3 11l.3-.2c2.1-1.4 4.6-2.2 7.1-2.3 2.3 0 3.9.6 4.8 2s.8 3.2-.3 5.3c-1.2 2.2-3 4.1-5.2 5.4l-.1.1c2.5 3.5 5.3 6.7 8.3 9.8l.1-.1c1.3-1.4 2.8-2.5 4.4-3.4l2.4-24.2 129.2-.1 2.4 23.3c2.2.8 4.1 2.2 5.7 3.9l.3.3c3-3.1 5.7-6.5 8.3-9.9-.1-.1-.3-.2-.4-.3-2.2-1.3-4-3.1-5.2-5.4-1.1-2.1-1.2-3.8-.3-5.2.9-1.4 2.5-2.2 4.9-2.1 2.5.1 5 .9 7.1 2.3.2.1.3.2.5.3 2-3.6 3.7-7.3 5.3-11.1-.2 0-.5-.1-.7-.2-2.4-.7-4.7-2.1-6.4-4-1.5-1.7-2-3.4-1.5-5s1.9-2.7 4.2-3.2c2.5-.5 5.1-.3 7.5.6.3.1.5.2.7.2 1-4 1.8-8.1 2.4-12.2-.3 0-.6 0-.9-.1-2.5-.1-5-.9-7.1-2.3-1.9-1.3-2.8-2.8-2.7-4.5-.3-1.5.9-2.9 2.9-4zm-155.5 34.4c-3.7 0-5.8-2.9-5.9-6.3l3.7-.5c.2 2.3 1.1 3.5 2.3 3.5s2.3-.7 2.3-2.1c0-4.5-8-5.8-8-12.3 0-3.6 2.2-5.7 6.1-5.7 3.2 0 5.1 2.3 5.5 5.5l-3.7.4c-.2-2-1.2-2.5-2.1-2.5-1.3 0-2 .8-2 2.3 0 3.9 8 5.8 8 12 0 3.6-2.5 5.7-6.2 5.7zm14.8-9.7h-1.7v9.4h-3.9v-22.9h5.6c4.9 0 7.1 1.9 7.1 6.8 0 4.8-2.2 6.7-7.1 6.7zm22.3 3.8c0 3.2-1.9 5.9-6 5.9s-6-2.6-6-5.9V270c0-3.2 1.9-5.9 6-5.9s6 2.6 6 5.9v11.8zm12.5 5.6-2.8-9.5c-.7.1-1.4.1-2 .1v9.4h-3.9v-22.9h5.5c4.4 0 6.6 1.9 6.6 6.8 0 3.7-1.4 5.2-2.7 5.8l3.3 10.4-4-.1zm17.1-19.5h-3.8v19.5h-3.9v-19.5h-3.8v-3.4h11.5v3.4zm14.4 19.8c-3.7 0-5.7-2.9-5.9-6.3l3.7-.5c.1 2.3 1.1 3.5 2.3 3.5 1.1.1 2.1-.6 2.3-1.7v-.4c0-4.5-8-5.8-8-12.3 0-3.6 2.2-5.7 6.1-5.7 3.2 0 5.1 2.3 5.5 5.5l-3.8.4c-.1-2-1.2-2.5-2.1-2.5-1.3 0-2 .8-2 2.3 0 3.9 8 5.8 8 12 .1 3.6-2.4 5.7-6.1 5.7zm21.2-.3H284v-10.1h-4.1v10.1h-4v-22.9h4v9.3h4.1v-9.3h3.9v22.9zm15.8-5.6c0 3.2-1.9 5.9-6 5.9s-6-2.6-6-5.9V270c0-3.2 1.9-5.9 6-5.9s6 2.6 6 5.9v11.8zm9.5-3.8h-1.7v9.4h-3.9v-22.9h5.6c4.9 0 7.1 1.9 7.1 6.8 0 4.8-2.2 6.7-7.1 6.7z"/><path d="M313 267.8c2.6 0 3.4.8 3.4 3.5s-.8 3.5-3.4 3.5h-1.5v-7.1l1.5.1zm-13.1 2.4v11.6c0 1.7-.5 2.5-2.1 2.5s-2.1-.8-2.1-2.5v-11.6c0-1.7.5-2.5 2.1-2.5 1.5 0 2.1.8 2.1 2.5zm-68.1-2.4c2.1 0 2.9.8 2.9 3.5s-.8 3.5-2.9 3.5h-1.4v-7.1l1.4.1zm-13 2.4v11.6c0 1.7-.5 2.5-2.1 2.5s-2.1-.8-2.1-2.5v-11.6c0-1.7.5-2.5 2.1-2.5s2.1.8 2.1 2.5zm-18.5-2.4c2.6 0 3.4.8 3.4 3.5s-.8 3.5-3.4 3.5h-1.5v-7.1l1.5.1zm40.9-68.4 8.9-3.9 8.9 3.9-1-9.7 6.5-7.2-9.5-2.1-4.9-8.4-4.9 8.4-9.5 2.1 6.5 7.2z"/></svg>