<svg data-name="Layer 1" xmlns="http://www.w3.org/2000/svg" viewBox="0 0 500 500"><path d="M160 248.56a15.24 15.24 0 0 1 12.7 6.13v-48.53a1.16 1.16 0 0 0-1.85-.93L110.8 249.1h1.59c6.24 0 9.43 4 9.43 8.33a7.45 7.45 0 0 1-4.15 7 .5.5 0 0 0 0 .92 8.11 8.11 0 0 1 4.76 7.57c0 4.95-3.24 8.87-9.53 8.87H95.79a.65.65 0 0 1-.65-.64v-20.63l-44.73 32.64A1 1 0 0 0 51 295h120.7a1 1 0 0 0 1-1v-16.53a18.12 18.12 0 0 1-12.7 4.91c-9.63 0-17.49-6.62-17.49-16.91s7.9-16.91 17.49-16.91Zm-23.89 32.64a.59.59 0 0 1-.59.59h-5.79a.59.59 0 0 1-.6-.59v-31.51a.59.59 0 0 1 .6-.59h5.79a.59.59 0 0 1 .59.59Zm-34-19.76v-5.89a.33.33 0 0 1 .33-.33h8.42c2.35 0 3.83 1.42 3.83 3.43s-1.48 3.44-3.83 3.44h-8.1a.65.65 0 0 1-.64-.65Zm0 13.58v-6.16a.65.65 0 0 1 .65-.65h8.39c2.7 0 4.18 1.67 4.18 3.73 0 2.35-1.58 3.72-4.18 3.72h-8.39a.64.64 0 0 1-.64-.66Zm66.22-16.32 4.4-2.4v7.4H159a.69.69 0 0 0-.7.69v4.7a.69.69 0 0 0 .7.69h7.43a.52.52 0 0 1 .52.52v3.15a.54.54 0 0 1-.19.42 11.06 11.06 0 0 1-6.76 2.33c-6 0-10.31-4.55-10.31-10.73s4.32-10.74 10.31-10.74a9.39 9.39 0 0 1 7.41 3.77.72.72 0 0 0 .93.2Zm9.5 6.74c0-10.1 7.25-16.91 16.59-16.91a14 14 0 0 1 12.35 6.8.55.55 0 0 1-.21.78l-3.73 2a.55.55 0 0 1-.71-.19 9.29 9.29 0 0 0-7.7-4.32c-6.26 0-10.9 4.9-10.9 11.81s4.64 11.82 10.9 11.82a9.38 9.38 0 0 0 7.71-4.34.53.53 0 0 1 .69-.19l3.76 1.94a.55.55 0 0 1 .21.8 14.23 14.23 0 0 1-12.37 6.88c-9.33.03-16.58-6.83-16.58-16.88Zm32.16 0c0-8.13 4.65-14.46 11.7-16.34 11.91-3.17 22.84 8 20.25 20.38a15.67 15.67 0 0 1-15.77 12.87c-9.48 0-16.17-7.15-16.17-16.91Zm26.66 0c0-6.76-4.13-11.81-10.48-11.81s-10.49 5.05-10.49 11.81 4.08 11.82 10.49 11.82 10.49-5.1 10.49-11.82Zm39.68 15.94v-24.86l-9.95 25.07a.27.27 0 0 1-.26.18h-2.08a.27.27 0 0 1-.25-.18l-10-25.07v24.86a.39.39 0 0 1-.38.39h-5a.4.4 0 0 1-.39-.39v-31.92a.39.39 0 0 1 .39-.39h7.19a.78.78 0 0 1 .73.49l8.76 22.44 8.7-22.44a.78.78 0 0 1 .73-.49h7.19a.38.38 0 0 1 .38.39v31.92a.39.39 0 0 1-.38.39h-5a.4.4 0 0 1-.37-.39Zm56.61-.21v-31.51a.58.58 0 0 1 .59-.59h21.27a.58.58 0 0 1 .59.59v3.87a.59.59 0 0 1-.59.59h-15.51a.58.58 0 0 0-.59.59V262a.58.58 0 0 0 .59.59h15.18a.59.59 0 0 1 .59.59V267a.6.6 0 0 1-.59.59h-15.18a.58.58 0 0 0-.59.59v7.94a.59.59 0 0 0 .59.59h15.52a.58.58 0 0 1 .59.59v3.86a.59.59 0 0 1-.59.6h-21.27a.59.59 0 0 1-.54-.59Zm49.17.31-6.88-11.63a.6.6 0 0 0-.51-.29h-4.82a.58.58 0 0 0-.59.59v11a.59.59 0 0 1-.59.59h-4.57a.59.59 0 0 1-.59-.59v-31.49a.58.58 0 0 1 .59-.59H378c6.48 0 10.76 4.17 10.76 10.24 0 5.39-3.32 8.52-7 9.44a.58.58 0 0 0-.38.88l7.05 11.24a.59.59 0 0 1-.5.9h-5.28a.6.6 0 0 1-.53-.29Zm.71-22.21c0-3.14-2.36-5.15-5.6-5.15h-7.32a.58.58 0 0 0-.59.58v9.22a.58.58 0 0 0 .59.59h7.32c3.25 0 5.61-2.06 5.61-5.24Zm44.72 21.92v-31.54a.58.58 0 0 1 .57-.58h21.3a.58.58 0 0 1 .58.58v3.89a.58.58 0 0 1-.58.58h-15.54a.57.57 0 0 0-.57.58v7.3a.57.57 0 0 0 .57.58h15.21a.58.58 0 0 1 .58.58V267a.58.58 0 0 1-.58.58h-15.21a.57.57 0 0 0-.57.58v8a.57.57 0 0 0 .57.58h15.55a.58.58 0 0 1 .58.57v3.9a.58.58 0 0 1-.58.58h-21.3a.58.58 0 0 1-.57-.6Zm-34.62-15.88c0-10.1 7.25-16.92 16.59-16.92a14 14 0 0 1 12.35 6.81.56.56 0 0 1-.21.78l-3.73 2a.53.53 0 0 1-.7-.2 9.29 9.29 0 0 0-7.71-4.32c-6.25 0-10.9 4.9-10.9 11.82s4.65 11.81 10.9 11.81a9.4 9.4 0 0 0 7.71-4.33.54.54 0 0 1 .69-.2l3.76 2a.54.54 0 0 1 .22.79 14.24 14.24 0 0 1-12.38 6.89c-9.33-.02-16.58-6.88-16.58-16.93Zm-74.14 16.07v-24.86l-10 25.07a.27.27 0 0 1-.25.18h-2.03a.27.27 0 0 1-.26-.18l-10-25.07v24.86a.4.4 0 0 1-.39.39h-5a.39.39 0 0 1-.38-.39v-31.92a.38.38 0 0 1 .38-.39h7.2a.77.77 0 0 1 .72.49l8.77 22.44 8.69-22.44a.78.78 0 0 1 .73-.49h7.19a.39.39 0 0 1 .39.39v31.92a.4.4 0 0 1-.39.39h-5a.39.39 0 0 1-.36-.39Z"/></svg>