<svg xmlns="http://www.w3.org/2000/svg" viewBox="0 0 500 500" style="enable-background:new 0 0 500 500" xml:space="preserve"><path d="m380.5 221.6.8-1c1.6-1.6 2.4-3.3 2.4-5.4 0-1.5-.4-2.7-1.2-3.8l-1.1-1.5 1.9-.6h.3c1.8-.7 3.3-1.6 4.8-2.7l1.8-1.4.8 2c.6 1.6.9 3.1.9 4.6 0 5.6-3 9.8-8.8 11.9l-1.4.5-1.2-2.6zm-246.7 29.9-4.4-2.7 5.4-17.1 4.5 15-5.5 4.8zm24.7 13.6-1.4-1.5-2.7-3-12.2-38.1 3.5-5.4h-19.1l3.8 5.3-16.1 45.6-4.4 6.5-2.4 3.6 4.4-1.5 13.7-4.6 2.5-.8-1.9-1.6-2.5-2 3.7-11.9c3.3 2 6 3.7 6 3.7l1.1.7 1-.9 5.9-5.2 2.4 8-2.1 4.1-1.3 2.6 3.1-.5 12.6-2.1 2.4-.4m28.2-45.9c-.6 1.5-2.6 9.2-4.9 18.4l-1.3 5c-1.4 5.7-2.4 9.9-3.4 14.3l3 3.3 1.8 2-2.9.4-14.4 1.8-3 .4h-.2l-.1-.4 1.6-2.3 2.9-4-4.6-15.4-1.2-3.9-4.8-16.1-4-4-2.4-2.4H169l-1.5 2.2-2.5 3.6 7.3 22.8 5.2-17.8c.9-2.9 2.2-8.1 1.7-10-.5-2-1.1-2.7-1.2-2.8l-3-1.9 3.8-.6s3.8-.6 6.2-1.7c2.3-1.1 6-3.9 6-4l2.5 1.9c0 .1-3.3 4.5-5.3 8.1 0 .1-.9 1.5-1.5 3.1z"/><path d="M225 258.3c-1.3-1.6-2.1-3.6-2.7-4.7-.9-1.6-2.3-5.1-2.3-5.2l-1.2-3.2-1.8 3-3.2 5.3c-.5.8-2.1 1.3-4.7 1.4-1.3.1-2.4.2-3.1.2v-14.5c1.8 0 3.3.3 4.4.7l5.2 2.7 2.8-11.3-4.5 1.1c-1.5.1-3.2.1-5 .1H206v-11.3c.8 0 1.8-.1 2.9 0 3.4.1 4.7.6 5.1 1 .6.6 4 3.4 4.6 5.3.4-1.1 2.3-4.7 3.2-6.1 1.4-2.2 3.6-5.9 3.6-5.9h-36.2l6.7 5.9v32.3l-4 4.8-2.1 2.5 3.5-.2 31.2-1.5s1.9-.1 2.4-.1c.1.3-.6-.7-1.9-2.3zm114.1 3.4c-1.3-1.6-7.2-14.2-7.2-14.2s-4.2 7.5-5 8.3c-.9.8-7.8-.2-8.6-.1v-14.6c1.8 0 3.7.1 4.8.5l4.8 2.8 2.8-11.2-4.5 1c-1.5.1-3.2.1-5 .1h-2.9v-11.7c.8 0 1.8-.1 2.9 0 3.4.1 5.2.1 5.9.7.6.5 4.3 3.8 4.9 5.7.4-1.1 2.3-4.7 3.2-6.1 1.4-2.2 2.4-3.8 2.4-3.8l.2-.3 1.2-1.9-37.5.1 6.7 6v32.3l-4 4.8-2.1 2.5s8.4.1 10.7.2c19.4.6 28.9 2.6 29.5 2.6.1-.1-1.9-2.1-3.2-3.7zM266.9 217h-17.2l5.7 5.6v18.8l-8.8-19.5 2.8-4.9-19.6.1 5.3 5.5-.1 31.7-6 6.6 15.3-.5 4.4-.1-6.9-6.3v-20.6l12.1 27.1h8.8v-37.9z"/><path d="M302.3 241.8c-.3 7.1-2.1 12-5.4 15.4-1.7 1.7-3.8 3.1-6 3.8-1.7.6-3.4.5-5.7.3-.7 0-1.5-.1-2.3-.1l-11.6-.3-3.7-.1 5.9-5.5v-32.6l-4.7-5.7H283c5.2 0 9.8 1.7 12.9 4.6 3.3 3 5.3 6.8 5.9 11.9.6 5.2.5 8.3.5 8.3zm-19.5-19.1v32.5s1.9.2 3.1 0c1.2-.2 4.1-.9 5.2-5.4 1.1-4.5 1.1-10.6.5-16.5-.6-6-2.9-9.4-5.1-10-2.2-.6-3.7-.6-3.7-.6zm87.9-4.8c2.6.9 5.2 2.7 6.8 5.2 2.1 3.2 2.2 7 2.2 9.3 0 3-2.1 6.3-3.8 8.2-1.8 1.9-4.8 3.3-6.6 4.1l8.4 21.1 5.7 5.6 3.8 3.7-5.5-1.3-15-3.6-1.8-.4.7-1.5 1.6-3.5-5.4-18.8H359v16.3l3.2 4.1 2.2 2.9-3.9-.6-13.1-2.1-2.6-.4 4.5-5.3v-35l-.2.1c-.8.3-1.7.8-1.9.9l-3.4 2.9 1-8c5.5-3.9 13.7-5 18.3-5 2.3-.2 5 .2 7.6 1.1zm-11.7 5.3v16.3s4.1-.1 6.4-.9c2.3-.8 4.8-3.3 4.4-8.9-.3-5.6-2.8-6.7-5.8-6.9-3.1-.1-5 .4-5 .4zM121.4 292s0-4-2-5.5c-3.8-2.8-12.3.5-15.9 3-9 6.2-16.4 6.5-24 3.6-7.6-2.9-18.7-13.7-18.7-39.3 0-26.6 12.1-38.3 22.3-40.7 8.6-2 18.8 3.7 22.4 4 3.6.3 5.8-3 5.8-3l2.8 2.1s-2.5 5.4-4.4 9.9c-1.9 4.5-6.9 17.2-6.9 17.2l-2.2-1.6s-.2-9.6-4.9-16.9c-3-4.6-10.8-6.2-16.1 1.2-4.6 6.4-5.3 19.7-4.9 32.8.4 13.1 3.8 19.8 8.1 24.2 3.4 3.4 9.7 4.5 14.3 1.1 4.6-3.4 5.9-7.9 6.1-11.5.1-3-1.8-7.6-1.8-7.6s3.8-1.6 7.1.8c5 3.6 6.2 9.2 6.2 9.2s6.1-1.3 8.6-.5c4.4 1.4 6.9 4.9 7.3 9.1.7 8.5-9.2 8.4-9.2 8.4z"/><path d="M425.2 293.7c10.2-3.6 15-13.7 13.9-26.4-1.1-12.7-7.4-17.6-15.4-20.2-8-2.6-21.1-4.6-21.1-13.5s6.2-12.3 10.6-11.7c4.6.6 8.5 4.2 9.9 8.5 1.4 4.4 1.9 8.7 1.9 8.7l2.4 1.2s2.9-8.1 4.8-13.3c1.9-5.2 5.1-10.9 5.1-10.9l-2.6-1.8s-1.9 3.2-6.2 2.6c-4.3-.6-16.3-6.6-26.6-1-9.2 5.1-12.8 13-10.8 26.4 2 13.9 11.4 14.2 17.3 16.3 4.6 1.7 13 2.8 17.1 8.9 1.6 2.3 4.7 9.4-.8 14.9l-.6.6c-3.4 3.4-10.4 4.5-15 1.1s-5.9-7.9-6.1-11.5c-.1-3 1.8-7.6 1.8-7.6s-4.1-1.4-7.3 1c-5 3.6-6.3 9-6.3 9s-5.8-1.2-8.3-.5c-5.6 1.6-7.2 4.8-7.6 9-.8 8.5 9.5 8.5 9.5 8.5s0-4 2-5.5c3.8-2.8 12.2 1.2 15.8 3.6 9.7 6.5 18.2 5.2 22.6 3.6z"/></svg>