<svg data-name="Layer 1" xmlns="http://www.w3.org/2000/svg" viewBox="0 0 500 500"><path d="m91.17 263.7 2.83 8.7a20.29 20.29 0 0 1-12.54 4.31c-12.54 0-21.47-8.77-21.47-21s9.16-21.24 21.39-21.24a20.45 20.45 0 0 1 12.7 4.31l-3 8.93a13.68 13.68 0 0 0-9.39-3.85c-6.85 0-11.08 5.31-11.08 11.77 0 6.85 4.77 11.7 11.46 11.7a14.58 14.58 0 0 0 9.1-3.63Zm5.9-43.63h10.62v55.64H97.07Zm33.38 14.39c12.46 0 19.54 8.31 19.54 21.47a22.29 22.29 0 0 1-.08 2.31H121.6c.23 5.39 4.54 9.23 10.46 9.23a11.74 11.74 0 0 0 9.77-4.92l7 5.31c-1.54 2.85-6.93 8.85-16.93 8.85-12.93 0-21.16-8.93-21.16-21s8.26-21.25 19.71-21.25Zm8.77 16.85a8.22 8.22 0 0 0-8.62-8.15c-5 0-8.23 3.54-8.7 8.15Zm27.83-1.38a16.28 16.28 0 0 1 8.69 2.23v-2.62c0-3.54-2.61-5.92-7.31-5.92a23.67 23.67 0 0 0-10.69 2.85l-4-7.24a30 30 0 0 1 15.85-4.77c12.93 0 16.77 6.77 16.77 15.78v25.47H177l-.7-2.62c-2.07 2.23-5.15 3.62-9.77 3.62-8.16 0-15.08-5-15.08-13.47-.02-7.92 6.21-13.31 15.6-13.31Zm2 18.54c4 0 6.93-2.15 6.93-5.54 0-3.54-2.93-5.61-7-5.61s-6.92 2.3-6.92 5.61 2.99 5.54 6.99 5.54Zm43.07-23.24c-7.92 0-10.85 4.93-10.85 12.93v17.55h-10.61v-40.25H201v5.85a11.72 11.72 0 0 1 11.08-6.85Zm106.31 0c-7.93 0-10.86 4.93-10.86 12.93v17.55H297v-40.25h10.38v5.85a11.72 11.72 0 0 1 11.09-6.85Zm24.32 0c-7.93 0-10.85 4.93-10.85 12.93v17.55h-10.62v-40.25h10.39v5.85a11.71 11.71 0 0 1 11.08-6.85Zm19.7-10.77c12.46 0 19.54 8.31 19.54 21.47 0 .77 0 1.54-.07 2.31H353.6c.23 5.39 4.54 9.23 10.46 9.23a11.78 11.78 0 0 0 9.78-4.92l7 5.31c-1.54 2.85-6.93 8.85-16.93 8.85-12.93 0-21.16-8.93-21.16-21s8.25-21.25 19.7-21.25Zm8.77 16.85a8.22 8.22 0 0 0-8.62-8.15c-5 0-8.23 3.54-8.69 8.15Zm44.67 12.39 2.85 8.7a20.32 20.32 0 0 1-12.55 4.31c-12.54 0-21.47-8.77-21.47-21s9.16-21.24 21.4-21.24a20.42 20.42 0 0 1 12.69 4.31l-3 8.93a13.68 13.68 0 0 0-9.39-3.85c-6.84 0-11.08 5.31-11.08 11.77 0 6.85 4.77 11.7 11.47 11.7a14.55 14.55 0 0 0 9.08-3.63Zm5.79-36.7h10.47v8.46h7.54v8.62h-7.54v15.54c0 6 1.85 7.24 5.93 7.24a16.75 16.75 0 0 0 1.92-.08v9.08a21.42 21.42 0 0 1-4.54.39c-9.62 0-13.85-5.39-13.85-16.32v-15.85l.07-8.62ZM242 264.65a13.79 13.79 0 0 1-7.83 2.67c-6.7 0-11.47-4.85-11.47-11.7 0-6.46 4.24-11.77 11.09-11.77a13.27 13.27 0 0 1 8.13 2.8 28.35 28.35 0 0 1 4.11-8 20.36 20.36 0 0 0-12.55-4.21c-12.24 0-21.4 9-21.4 21.24s8.93 21 21.47 21a20.34 20.34 0 0 0 12.52-4.29 28.66 28.66 0 0 1-4.07-7.74Z"/><path d="M269.54 230.62a24.66 24.66 0 1 0 24.65 24.66 24.65 24.65 0 0 0-24.65-24.66Zm-.28 41.84c-15.36 0-15.36-14.82-15.36-14.82h31.43s-.72 14.82-16.07 14.82Z"/></svg>