<svg data-name="Layer 1" xmlns="http://www.w3.org/2000/svg" viewBox="0 0 500 500"><path d="M183.71 257.14c-.51 3 2.51 4.55 5.63 4.55 3.35 0 7-1.54 7.63-4.84l2.5-14c.57-3.13-2.27-4.72-5.62-4.72s-7.06 1.59-7.63 4.72Zm-7.84-14.28c1.72-9.62 10.9-14.34 19.4-14.34s16.21 4.78 14.55 14.34l-2.51 14.28c-1.66 9.56-10.56 14.34-19.46 14.34-8.5 0-16.15-4.78-14.49-14.34Zm57.72 3.19c6.9 1.35 14.44 4 12.2 13.81-1.72 8-9.83 11.62-17.29 11.62-6.24 0-11.85-3.36-13.59-10l6.63-2.83c1.08 4 4.42 6 8.24 6 4.16 0 8.44-1.6 9.32-5.26 1.14-4.72-3.21-6-8.1-6.72-6.67-1.07-13.1-4.31-11.71-12.63 1.76-7.62 9.53-11.45 16.7-11.45 6.13 0 11.48 2.3 13.17 8.91l-6.52 2.71c-1.08-3.89-4-5.37-7.73-5.37-4 0-8.11 1.89-8.92 5.43s3.41 5 7.6 5.85m38.26 4.06a8.75 8.75 0 0 0 8.75-7.2c.58-3.48-1.32-7.14-6.29-7h-9.26l-2.45 14.23Zm-12.23-21.07h15.85c9.42 0 12.94 7 11.79 13.75a16.23 16.23 0 0 1-16.43 13.57h-9.31l-2.46 14.46h-6.6Zm38.8 28.74c-.79 4.48 3.7 6.79 8.68 6.79s10.37-2.31 11.16-6.79l2.74-15.64c.86-4.78-3.81-6.79-8.79-6.79s-10.25 2.13-11 6.79ZM294.51 242c1.58-9 10.53-13.51 18.86-13.51S329.23 233 327.65 242l-2.8 15.88c-1.58 9-10.7 13.57-19 13.57s-15.75-4.54-14.17-13.57Zm56.16 6.76c4.62 0 7.93-2 8.73-6.67s-2-6.25-6.5-6.14h-9.2l-2.23 12.81Zm-5.3 6h-4.91l-2.75 16.17H331l7.15-41.78H354c8 0 13.46 3.72 12.11 12.92-1.31 7.85-6.53 11.57-12.92 12.46l9.85 16.4h-8.16Zm79.07-8.71c6.89 1.35 14.43 4 12.19 13.81-1.72 8-9.82 11.62-17.28 11.62-6.25 0-11.86-3.36-13.6-10l6.63-2.83c1.08 4 4.43 6 8.24 6 4.17 0 8.44-1.6 9.32-5.26 1.14-4.72-3.21-6-8.1-6.72-6.67-1.07-13.09-4.31-11.71-12.63 1.76-7.62 9.53-11.45 16.7-11.45 6.13 0 11.49 2.3 13.17 8.91l-6.51 2.71c-1.08-3.89-4-5.37-7.74-5.37-4 0-8.1 1.89-8.92 5.43s3.41 5 7.61 5.85M160 260.83c-2.56 0-4.76-1.51-4.35-3.95l4.84-27.77h-10.16l-4.78 27.77c-1.52 8.95 4.55 14 12.69 14h6.45l1.73-10.06Zm-59.9-13.42L98 259.57a16.24 16.24 0 0 0-15.43 11.32H70a28.5 28.5 0 0 1 28-23.55c.7 0 1.39 0 2.08.07m3.25-18.3-2.14 12.13H75.44L60 229.11h43.33zm17.07 17.53h15.79l-1.67 9.85h-15.79l-2.46 14.4h-10.46l7.15-41.78h28.51l-1.73 10.03H121.7l-1.3 7.5zm272.11-10.69-5.94 34.94h-6.7l5.94-34.94h-12.44l1.22-6.9h31.58l-1.22 6.9h-12.44z"/></svg>