<svg xmlns="http://www.w3.org/2000/svg" viewBox="0 0 500 500" style="enable-background:new 0 0 500 500" xml:space="preserve"><path d="M336 307.2c-1.7-.9-3.7-1-5.5-.4-2.3 1-3.9 6.5-4.2 7.9-.3 1.2 1 2.6 3.8 4.2 2.8 1.5 3.8 1.5 5.2.3 1.9-1.6 2.4-2.5 3.7-4.6s1-3.9.3-4.8c-.9-1.2-2-2.1-3.3-2.6zm27.3-62.8c-1.6-1.4-3.5-2.5-5.5-3.3-1.8-.8-3.8-1.3-5.8-1.6-1.7-.2-2.6.3-2.7 1.5 0 0-3.4 19.7-4.7 24.6-3.5 13.8-8.6 29.6-10.1 33.2-1 2.3-.2 3.9 3.2 5.4s6.4.7 8-2.7c10.1-21.6 18.8-47.3 19.8-52 .2-1.9-.7-3.9-2.2-5.1zm-30 36.1c-.5.2-1.9 1-1.6-1.7.4-4.1.3-8.3-.5-12.4-.4-2.2-1.4-4.2-2.9-5.8a7.33 7.33 0 0 0-5.7-2.3c-1.5 0-3-.2-4.4-.5-1.5-.3-3-.5-4.5-.5-8.2.3-14.9 5.2-20.1 14.6l-.3.6c-1.7 1.6-3.8 2.6-6.1 3-.4.1-.8-.2-.9-.7v-.2c.5-4.4.4-8.8-.5-13.1-.4-2.2-1.5-4.3-3-6-1.5-1.6-3.7-2.5-5.9-2.3-1.5 0-3.1-.2-4.5-.5-1.5-.3-3.1-.5-4.7-.5-8.4.3-15.3 5.4-20.6 15.1-4.4 8.1-6.3 17.3-5.4 26.5.2 2 1 3.4 1.4 5.2.1.4 0 .9-.3 1.2-2.5 2.6-5.3 3.2-6.7 2.9-3.7-.7-4.1-3-4.5-4.5-.6-2.5.3-8.2 2.9-17.7 1.6-5 3.2-10.1 4.6-15 1.3-4.6 1.3-6.7 1.1-7.7 0 0-.3-1.1-3.6-3.2-2.1-1.4-4.4-2.4-6.9-3-2.5-.4-7.4.9-17.5 14.6-1 1.4-1.8 2.4-2.7 3.7-.1.1-.3.1-.4 0-.1-.1-.1-.2-.1-.3.3-1.5.4-2.1.8-4.1 1.6-8.1 1.5-9.5 1.5-9.6-.2-.8-1.1-2.2-4.4-3.9-2.5-1.4-5.2-2.1-8-2-.9.1-3.6.9-10.7 10-6 7.7-8.3 11.4-9.2 11.5-.2 0-.2.1-.3-.2-.3-.5 2.2-6.4-.3-10.3-1.8-2.8-5-4.6-9.8-4.6-13 0-20.5 9.7-22.9 14.5-2.4 4.9-3.1 9.5-2.2 13.8.2 1.5.7 2.9 1.6 4.2.6.9 1.1 1.2 1.5.9.6-.3.9-.9.8-1.6-.9-.7-1.5-5-.4-8.8 4.4-14 18.3-12.6 14.7 2.3-6.5 26.2-7.7 32.5-7.4 33.8.2 1 1.5 1.7 3.7 2 2 .4 4.1.3 6.1-.2 0 0 1.4-1 4.5-9.7 2.4-6.6 4.9-13.3 7.3-20 2.9-6.8 6.6-13.2 11-19.1 5.7-7.9 6.5-7.7 7.2-8 .4-.2 1-.1 1.3.2.4.4.7.9.8 1.5.1.8.6 2.2-4 19.5-3.8 14.2-6.1 23.2-6.8 26.6v.2c0 .1-.9 2.3 3.9 1.9 2.8-.2 5.6-.8 8.2-1.7.2-.1.4-.3.5-.5.2-.4.4-1.5 1.1-3.6 2.9-9.2 4.4-14.6 5.2-16.5 3.7-10.4 9.8-19.7 17.9-27.2.5-.4 1.1-.6 1.7-.6.3 0 .6.2.8.4.8.6 1 1.7.4 2.6-2.3 4.7-4.1 9.7-5.4 14.8-2.3 8.8-2.7 16.2-1.2 22 .8 2.9 2.5 5.5 4.9 7.3 2.2 1.8 5 2.9 7.8 3.2 3.3.5 7-.4 10.8-3.9 1.3-1.2 1.8-2 3.3-3.5.3-.3.8-.3 1.1 0 .4.5.9.9 1.4 1.3 3.3 2.5 8.1 3.4 12.9 3.3 6.7-.2 12.7-3.8 17.4-11.2 2.1-3.1 3.8-6.4 5-10 .5-1.4 1-2.8 1.4-4.2.1-.5.5-.9 1-1 1.1-.3 2.2-.7 3.2-1.1.3-.1.6 0 .8.3.1.1.1.3 0 .4-1.5 5.2-1.7 10.6-.7 15.9 1 4.9 3.1 8.5 6.3 11 3.4 2.5 7.5 3.7 11.7 3.4 6.5-.2 12-3.9 16.9-10.8 1.9-2.8 3.4-5.8 4.6-8.9.7-1.6 1.6-4.8 2.1-5 3.1-1.1 5.3-7.5 2.9-6.5zm-57.2 3.2c-1.7 5-3 8.3-5.4 10.8-2 2.1-5 3.7-7.5 3.5-3.1-.3-4.7-2.3-5.6-6.4-1.3-6.3-.5-12.4 3.3-20v-.1c.1-.1.3-.2.4-.1.1 0 .1.1.1.1.8 2.7 2 5.9 4 7.9 2.8 2.6 6.5 3.2 9.9 3.6.4.1 1 .2.8.7zm2.6-8.8c-.1.4-.5.7-.9.6-2-.5-3.8-1.4-5.2-2.8-3.4-3.3-4.1-10.9-.6-13 .6-.2 1.2-.3 1.8-.3 2.7-.1 4.4 1.7 5.2 5.3.5 3.4.4 6.9-.3 10.2zm36.4 24.2c-1.4 1.5-3.3 2.3-5.3 2.4-3.1.1-5-1.8-5.9-5.9-1.3-6.1-.8-11.7 2.9-19 0 0 0-.1.1-.1.1-.1.3-.2.4-.1.1 0 .1.1.1.2.7 2.7 2.1 5.1 4.2 6.9 2.8 2.3 6.3 3.6 10 3.8.2 0 .4.2.3.4v.1c-.8 1.9-3.5 8-6.8 11.3zm9.2-19.4c-.1.3-.3.5-.6.4-2-.4-3.8-1.4-5.3-2.8-3.3-3.2-4-10.6-.6-12.7.6-.2 1.2-.3 1.8-.3 2.6-.1 4.3 1.6 5.1 5.2.5 3.4.4 6.8-.4 10.2z"/><path d="M339.6 244.6c-2.6 2.6-4.8 4.2-7.8 3.4-1.6-.4-2.5-2-2.2-3.6.2-2 1.9-6.2 6.8-15.4s6.5-12.2 6.6-14.1c.1-.8-.7-1.7-2.4-2.8-.8-.5-1.7-.9-2.6-1.1-.7-.1-1.2-.4-3 1.4l-2.3 2.3c-.2.2-.5.2-.6 0 0 0-.1-.1-.1-.2-.1-.3-.3-.8-.5-1.3-1.3-3.2-4.2-5.4-7.6-5.7-7-.9-13.7 2.4-20.1 10.1-2.7 3.1-4.9 6.6-6.5 10.3-1.8 3.2-3.7 6.3-5.9 9.3-2.2 2.7-4.2 4-5.9 3.8-.9-.1-1.7-.8-1.7-1.7-.6-3 1.8-12 7.2-27.1 5.3-15.1 7.9-22.9 7.7-23.8-.4-1.9-1.3-3.7-2.6-5.2-1.6-1.9-3.3-2.9-5.1-3.1-.7-.1-2.6 4.1-5.4 12.5-1.6 5-3.2 10.1-4.9 15.1-.1.2-.2.2-.4.2-.1 0-.1-.1-.2-.2-.6-1.5-1.5-2.8-2.7-3.9-1.3-1.3-3-2.1-4.8-2.2-7.4-.4-13.8 3.5-19.2 11.7-2.2 3.3-3.9 6.8-5.1 10.6-.4.7-1 1.7-1.6 2.9-1.4 2.8-3.1 5.5-4.9 8.1-2.3 2.9-4.3 4.4-6 4.4-.9 0-1.5-.5-1.7-1.6-.4-2 1.3-7.9 4.9-17.5 3.7-9.7 4.6-13.6 4.4-14.4-.2-.6-.9-1.4-2.6-2.2s-4.1-1.5-5.7.5c-.9 1.1-1.5 1.9-1.9 2.4-.2.3-.6.3-.8.1-.1 0-.1-.1-.1-.2-.2-.3-.4-.6-.7-1.1-.7-1.2-1.7-2.1-2.9-2.9-1.7-1.1-3.8-1.6-5.9-1.5-7.4.3-13.8 4.9-19.2 13.7-5 8.1-7 15.7-5.9 22.5.7 4.7 2.8 8.1 4.6 9.7 2.3 1.9 5.2 2.9 8.2 2.7 2.5-.2 4.9-1.1 6.9-2.7 1.7-1.2 3.3-2.7 4.6-4.3.6-.7 1.1-1.3 1.4-1.7.3-.4.5-.4.8 0 .3.4.5.9.9 1.4.9 1.4 1.9 2.7 3.2 3.8 1.5 1.3 3.5 1.9 5.5 1.9 2.4 0 5.2-1.8 8.3-5.4 1.8-2.2 3.5-4.6 4.9-7.1.1-.2.4-.3.6-.2.1.1.2.2.2.3l.1.3c.6 3.6 2.4 6.9 5 9.5 2 2 4.8 3.2 7.7 3.4 2.6.1 5.1-1 7.5-3.2 1.3-1.2 2.4-2.6 3.3-4.1.1-.2.4-.3.6-.2.1 0 .1.1.2.2.9 1.8 2.2 3.4 3.7 4.8 2.1 1.9 4.8 3 7.6 3.3 2.5.2 5.3-1.3 8.4-4.5 1.1-1.2 2.1-2.5 3-3.8.1-.1.3-.1.4-.1.1 0 .1.1.1.2.2 3.1 1.3 6 3.2 8.4 1.6 2.2 4.1 3.7 6.8 4.2 2.4.3 4.8-.2 6.9-1.4 1.8-.9 3.5-2.1 5-3.5 2.4-2.3 2.1-1.7 2.9.3 2.1 5.2 8 7.7 13.3 5.6 1.1-.4 2-1 2.9-1.8 3.8-3.6 4.8-10.2 3.2-8.5zm-115.4-19.1c-2.7 4.7-4.4 5.6-5 6.1-.2.1-.3.3-.3.5.1.2.2.3.4.2 3.6-.5.7 3.1-1.3 4.8-2.1 1.8-3.7 2.7-5 2.8-1.9.1-3.2-1.4-3.8-4.4-.9-4.8.1-10.8 3.1-18.1 3-7.5 6.4-11.3 10-11.5 1.3-.1 2.5.3 3.4 1.1 1 1.1 1.6 2.5 1.9 4 .8 3.9-.6 9.5-3.4 14.5zm47.9 2c-3.7 8-6.7 12-9.1 11.9-1.9-.1-3.2-1.5-3.7-4.3-.9-5 0-10.9 2.7-17.7 2.9-7.2 6.2-10.7 9.9-10.5 2.5.1 4.2 2.4 5 6.8.3 1.7-1.3 6.3-4.8 13.8zm49.6 3.4c-2.8 3.8-5 5.9-6.6 6.4-.2.1-.3.2-.3.4s.2.4.4.4c1.5.2 2.2.7 2.3 1.3 0 .9-1.1 2-3.3 3.4s-3.9 2-5.1 1.8c-1.8-.2-2.8-2-2.9-5.2-.2-5 1.7-10.8 5.6-17.4 4-6.9 7.7-10.2 11.2-9.7 1.1.2 2.1.9 2.7 1.9.7 1.2 1.1 2.5 1.1 3.9 0 4-1.7 8.3-5.1 12.8zm-110.1-49c-3 .3-11.2 2.7-12.3 4.7-6.7 11.1-10.1 26.8-14.6 44.3-1.5-7.7-3.8-18.4-4.9-23.5-.6-3.4-1-6.8-1.2-10.2-.2-3.1-.2-5.1-.2-6v-.8c-.2-.7-.8-1.5-2.5-1.4-.9.1-1.8.2-2.7.5-2 .5-3.9 1.5-5.5 2.9-4 3.8-6.3 13.3-10.2 28.8-4.8 18.8-8.7 26.1-14.3 28.3-2.9 1.1-6.5.6-8.1-1.8-2.3-3.2-.5-8.7 4.2-12.2.2-.2.3-.5.3-.8-.1-.3-.4-.4-1-.4-1.8.1-13.8 7.4-13 17.6.5 7.3 4.9 11.1 10.9 12 7.8 1.3 17.4-3.6 22.9-22.5 1.9-6.5 7.7-27.7 7.7-27.7 2.9 13.8 5.5 25 7.7 33.5.4 1.2.5 2.5.2 3.8-.5 1.8-.3 2-.2 2.2.2.7 1.2.7 1.9.7.8-.1 1.7-.2 2.5-.5 3.2-1 7.6-5.6 10-11.5 1.2-2.8 2.3-8.1 3.2-11.8.7-2.9 1.3-5.7 2.6-9.6 4.1-12.5 11.6-25.9 21.3-37.6.2-.2.4-1.6-4.7-1zm156.7 68.2c.1-.2.1-.4.2-.6 0-.1 0-.2.1-.3.1-.1.1-.1.1-.2l.3-.6c.2-.3.5-.5.7-.7.1-.1.1-.1.2-.1.1-.1.2-.1.3-.1.2-.1.5-.2.7-.2.2-.1.5-.1.7 0h.4c.2 0 .4.1.5.2.2 0 .4.1.6.2.1.1.3.2.5.3.1 0 .1.1.1.1.2.2.4.5.6.8 0 .1.1.2.1.2.1.3.2.6.2.9v.8c0 .3 0 .5-.1.8-.1.4-.3.7-.6 1-.1.1-.2.3-.4.4-.1.1-.4.3-.6.4-.2.1-.5.2-.8.3-.4.1-.9.1-1.3 0-.1 0-.3-.1-.4-.1-.3-.1-.5-.2-.7-.3l-.1-.1c-.2-.3-.6-.4-.7-.8-.1-.2-.2-.3-.3-.4l-.3-.9v-.2c.1-.6.1-.7 0-.8zm6 0c.1 0 .1.1 0 0 0 .1 0 .1 0 0 0 .1 0 .1 0 0 0 .1 0 .1 0 0zm-.1.4c-.1 0-.1 0 0 0zm-5.3-.2h-.2v.1-.1h.1s0-.1.1 0c0 .1-.1 0 0 0-.1 0 0 0 0 0zm-.3 0zm5.2-1.5zm-4.6-.1zm-.2-.1c.1 0 .1 0 0 0 .1 0 .1 0 0 0zm4.6-.2c.1.1 0 0 0 0zm.3.9s.1.1 0 0c-.1.1.1.1.1.1 0 .1 0 0 0 0h.1c-.1 0-.1 0-.2-.1zm.3 0c-.1 0 0 0 0 0h-.1.1zm-.2-.1zm-.2-.3s.1 0 0 0zm-4.8 0c-.1 0 0 .1-.1 0h.1v.1h-.1s.1-.1.1 0v-.1zm5.1 2.4zm.2-.1c-.1 0-.1 0 0 0zm-5.3.4c0 .1 0 0 0 0 0-.1 0 0 0 0zm5-.1s.1 0 0 0zm-.2.2-.1.1h.1v-.1zm-4.4.4.1-.1c0-.1 0 0-.1.1.1-.1.1-.1 0 0 0-.1 0-.1 0 0zm4.5-.9s0-.1 0 0zm-2 1.9.1-.1-.1.1c.1-.1 0-.1 0 0zm-.8 0s-.1-.1-.1 0c-.1.1 0 .1 0 .1s.1-.2.1-.1zm-1-.5zm-1.1-.8zm-.5-1.7zm.5 1.3zm5.3-1s.1-.1 0 0zm0 .4zm-5.4-.2zm5.1.6v-.1s-.1 0 0-.1c0-.1 0 0 0 0s0 .1-.1.1h.1v.1zm-.2-2.5c0 .1 0 .1 0 0zm-4.8 2.4c0-.1 0-.1 0 0v-.1.1zm5 .4zm-5.3-2.2c.1 0 0 0 0 0zm.3 1.6zm.8 1.4s-.1-.1 0 0zm3.5 0c.1 0 0 0 0 0zm-3.4.3c.1 0 .1 0 0 0-.1-.1 0 0 0 0zm-1-3.1v.1s0 .1-.1.1h-.1c-.1 0-.1 0-.1.1v-.1h.1l.1-.1c.1.1 0 0 .1-.1 0 .1 0 .1 0 0zm1.3 3.3zm3.8-3.8c0 .1 0 .1 0 0 .1-.1 0-.1 0 0zm.2.9s.1 0 .1-.1 0 0-.1.1zm-5.5.9c0 .1 0 0 0 0zm.5 1.1s.1 0 0 0c.1 0 0 0 0 0 0-.2 0-.1 0 0zm-.5-.6c0 .1 0 .2.1.1.1 0-.1 0-.1-.1 0 0 0-.1 0 0zm5.2-1.1c.1-.3-.1-.7-.2-1-.2-.4-.5-.8-.9-1-.3-.2-.6-.3-.9-.3h-.8c-.3 0-.7.1-.9.3-.2.1-.4.3-.6.6-.2.2-.3.5-.4.8 0 .1 0 .3-.1.4-.1.5-.1.9.1 1.4 0 .1.1.1.2.2 0 .2.2.4.4.6.1 0 .1.1.2.2s.1.2.2.2l.6.3c.3.1.6.1.9.1l.3-.1c.4-.1.7-.2 1-.5.3-.2.5-.5.5-.9v-.1c.3-.6.4-.9.4-1.2zm-.4 1.9z"/><path d="M372.9 249.5v.2c0 .3-.2.6-.6.7h-.1c-.2.1-.2.1-.1.3.2.4.4.7.7 1.1.1.2.1.2-.1.2h-.4c-.1 0-.2 0-.2-.1-.2-.3-.3-.6-.4-.9l-.1-.1c-.1-.1-.1-.2-.1-.2 0-.1-.1-.2-.2-.2h-.1l-.1.1v.7c0 .2-.1.4 0 .6s-.1.1-.1.1h-.2c-.3 0-.3 0-.3-.3v-1.6c.1-.4-.1-.8 0-1.2v-.3c0-.1.1-.1.2-.1h1.5c.1 0 .3 0 .4.1.3.1.5.4.5.7l-.2.2zm-2 .9c.1.1 0 0 0 0 0-.1 0-.1-.1-.1l.1.1s-.1 0 0 0zm-.2 0s-.1 0 0 0zm.1-1.1c.1.1 0 0 0 0zm-.1 1.4v.1-.1s-.1 0 0 0zm-.1-1.7s-.1 0 0 0zm.2.8zm0-.9s0-.1 0 0c0-.1 0-.1 0 0zm-.2 1.1c0 .1-.1 0 0 0zm1.2.3c.1 0 .1.1.1 0 .1-.1 0 0 0 0s-.1-.1-.1 0c0-.1 0 0 0 0zm-.8-.9v.4c0 .1.2 0 .3.1.2 0 .4 0 .6-.1.1 0 .2-.2.2-.3 0-.2-.1-.3-.3-.4h-.9c-.1 0-.1 0-.1.1.2.1.2.1.2.2zm0 .6c.1.1.1.1 0 0 .1 0 .1 0 0 0 .1 0 .1 0 0 0zm-1.8 1.8c.1-.1 0 0 0 0zm1.9 1.2c-.1 0-.1 0 0 0zm-2.3-2.2s-.1 0 0 0zm.2-1.9c.1 0 .1.1 0 0zm-.2 1.4s-.1 0 0 0zm5.2-1.3c0 .1 0 0 0 0zm-.2 2.8zm.5-2.5c-.1 0 0 0 0 0zm-.6 2.4c.1.1 0 .1 0 0zm-3-1.4zm1.1 0zm-1.2.4c.1 0 0 0 0 0zm.2-1.4zm0 0z"/></svg>