<svg data-name="Layer 1" xmlns="http://www.w3.org/2000/svg" viewBox="0 0 500 500"><path d="M75.55 243.08c-1.8-1.39-3.61-2.78-5.45-4.16a131.64 131.64 0 0 0-12.5-8.51 11.64 11.64 0 0 0-17.56 10v10.1c5.83-8.73 16.27 0 24.61 6.4 1.81 1.38 3.62 2.77 5.45 4.15a133.07 133.07 0 0 0 12.51 8.51 11.64 11.64 0 0 0 17.56-10v-10.1c-5.83 8.73-16.28.03-24.62-6.39Z"/><path d="M65.29 261.83c-2.77-2.13-5.52-4.32-8.46-6.23-4.14-2.69-10.66-6.9-14.9-2a9.15 9.15 0 0 0-1.93 6 13.08 13.08 0 0 0 2.59 7.84 12.29 12.29 0 0 0 15.85 2.91c2-1.17 5.81-4 9.49-6.55l-.4-.33Zm9.58-23.66c2.78 2.13 5.52 4.32 8.46 6.23 4.14 2.69 10.66 6.9 14.9 2a9.1 9.1 0 0 0 1.93-6 13.13 13.13 0 0 0-2.58-7.84 12.3 12.3 0 0 0-15.86-2.91c-2 1.17-5.8 4-9.49 6.55l.41.33Zm118.83 21.9h-20.48v-7.27h9.22a2.72 2.72 0 0 0 2.72-2.72v-1.32a2.72 2.72 0 0 0-2.72-2.72h-9.22v-6.11h19.7a3.38 3.38 0 1 0 0-6.76h-23.06a3.38 3.38 0 0 0-3.38 3.38v26.9a3.38 3.38 0 0 0 3.38 3.39h23.84a3.38 3.38 0 0 0 3.38-3.39 3.38 3.38 0 0 0-3.38-3.38Zm40.37-26.9H209.3a3.37 3.37 0 0 0-3.37 3.37 3.37 3.37 0 0 0 3.37 3.38h9v23.53a3.38 3.38 0 1 0 6.75 0v-23.52h9a3.37 3.37 0 0 0 3.37-3.38 3.37 3.37 0 0 0-3.35-3.38Zm203.05 0h-14.84a3.36 3.36 0 0 0-3.37 3.37v26.92a3.37 3.37 0 0 0 3.37 3.38h14.84c10.05 0 17-6.25 17-17.36-.01-12.54-9.28-16.31-17-16.31Zm0 26.9h-11.47v-20.14h11.47c5.26 0 10.25 2 10.25 9.94 0 6.82-4.37 10.2-10.25 10.2Zm-128.32-26.9H292a3.36 3.36 0 0 0-3.37 3.37v26.78a3.45 3.45 0 0 0 3.26 3.51 3.37 3.37 0 0 0 3.48-3.37v-8.78h13.43c6.94 0 12.12-3.31 12.12-10.85 0-7.83-5.57-10.66-12.12-10.66Zm0 14.75h-13.42v-8h13.42c2.4 0 5.38.32 5.38 3.9 0 3.78-2.79 4.1-5.38 4.1ZM151.32 233a3.33 3.33 0 0 0-3.32 3.35l.06 20.64-17.75-22.19a4.83 4.83 0 0 0-8.6 3l.05 26a3.33 3.33 0 0 0 3.33 3.33 3.34 3.34 0 0 0 3.33-3.34v-20.7l17.75 22.19a4.83 4.83 0 0 0 8.59-3l-.07-25.92a3.34 3.34 0 0 0-3.37-3.36Zm252.58 0a3.33 3.33 0 0 0-3.32 3.35l.06 20.64-17.75-22.19a4.83 4.83 0 0 0-8.6 3v26a3.34 3.34 0 0 0 3.33 3.33 3.34 3.34 0 0 0 3.33-3.34v-20.7l17.75 22.19a4.83 4.83 0 0 0 8.59-3l-.07-25.92a3.34 3.34 0 0 0-3.32-3.36Zm-144.08 12.88c-4.54 0-6.21-1-6.8-1.67a2.46 2.46 0 0 1-.61-2c.05-.94.16-3.44 7.63-3.44a18.69 18.69 0 0 1 8.25 2 3.34 3.34 0 0 0 3.18-5.87 25.66 25.66 0 0 0-11.47-2.82c-12 0-14.12 6.14-14.29 9.8a9.19 9.19 0 0 0 2.44 6.94c2.4 2.51 6.2 3.73 11.63 3.73 6.9 0 9.58 2 9.79 3.72a3.32 3.32 0 0 1-.71 2.86c-1.16 1.31-3.85 2.12-7 2.12-5.9 0-9.4-1.49-11-2.38a3.34 3.34 0 0 0-3.3 5.8c2.61 1.48 7.2 3.25 14.26 3.25 3 0 8.63-.56 12-4.36a10 10 0 0 0 2.34-8.07c-.66-6.11-6.64-9.61-16.34-9.61Zm99.5 14.19h-20.48v-7.27h9.47a2.72 2.72 0 0 0 2.72-2.72v-1.32a2.71 2.71 0 0 0-2.72-2.72h-9.47v-6.11h19.71a3.38 3.38 0 0 0 0-6.76h-23.07a3.38 3.38 0 0 0-3.38 3.38v26.9a3.38 3.38 0 0 0 3.38 3.39h23.84a3.38 3.38 0 0 0 3.38-3.39 3.38 3.38 0 0 0-3.38-3.38Zm94.19 5.39.08-.12a.15.15 0 0 1 .23 0 1.38 1.38 0 0 0 .8.29c.38 0 .64-.2.64-.52 0-.8-1.75-.62-1.75-1.75a1.06 1.06 0 0 1 1.17-1 1.58 1.58 0 0 1 .92.28.17.17 0 0 1 0 .23l-.08.13c-.06.11-.14.1-.23.05a1.2 1.2 0 0 0-.67-.22c-.37 0-.65.2-.65.51 0 .79 1.75.57 1.75 1.74a1.05 1.05 0 0 1-1.15 1 1.79 1.79 0 0 1-1.09-.38.15.15 0 0 1 .03-.24Zm3.09-2.92a.16.16 0 0 1 .17-.16h.23a.19.19 0 0 1 .19.14l.78 1.83c.08.2.18.49.18.49s.1-.29.18-.49l.79-1.83a.18.18 0 0 1 .19-.14h.23a.16.16 0 0 1 .17.16l.27 3.3a.15.15 0 0 1-.17.17h-.16c-.11 0-.16-.05-.17-.16l-.17-2.13v-.53s-.11.33-.2.53l-.66 1.51a.2.2 0 0 1-.2.13h-.17a.2.2 0 0 1-.2-.13l-.66-1.51c-.08-.19-.2-.54-.2-.54v.54l-.16 2.13a.15.15 0 0 1-.17.16h-.17a.15.15 0 0 1-.17-.17Z"/></svg>