<svg xmlns="http://www.w3.org/2000/svg" viewBox="0 0 500 500" style="enable-background:new 0 0 500 500" xml:space="preserve"><path d="M248.4 267.6c7.1-1.2 13.7-7.5 16.4-11.4 0 1.3.2 2.6.7 3.9 2.4 6 10.7 5.1 16.1 1.2 4.5-3.2 8.6-7.8 13.5-15.8 2.5-4 6-9.3 9-14.5 3.1.5 6.4-.1 9.1-1.7-9.2 11.3-13.8 17.7-13.7 24 0 5 3.4 7.9 8.5 7 4.3-.8 10.3-5.1 15.4-12.1v.9c-.4 9.9 9 12.3 16.6 7.4 3.9-2.5 9.2-6.8 15.7-15.2 10.8-14.4 18.1-10 16 .9-2.8 14.4-13.1 34.8-62.8 36.7-51 2-98.8 5.2-129.9 25.4 29.8-5.4 52 11.2 57.6 20.7 21.8-30.7 48.3-17.9 98.4-35.1 45.7-15.7 48.3-57.8 36.5-62.3-4.5-1.7-10.3-1.1-21 12.3-5 5.7-8.3 7.7-11.3 8.4-2.7.7-2.8-1.5-2.7-3.1.3-4.6 1.6-7.7 4.5-13.5 25-13.2 33.2-29.2 33.6-38.8.2-2.6-1.7-5-4.4-5.2H369c-2 .3-3.9 1-5.6 2-9.3 5.5-19.3 17.4-26.2 29-4.9 7.7-9.7 15.1-12.1 21.9v.2c-2.5 3.1-5.5 5.8-8.9 8-2.6 1.3-3.7 1-3.9-1.3.3-3.3 1.3-6.4 2.8-9.3 2.8-5.2 6.3-10 10.6-14.2-1.9-1-3.7-2.3-5.3-3.8-6.6 4.6-11.4 5.1-12.8 4.6 1.2-2.1 2-4.3 2.3-6.7 0-2.1-.6-3.6-2.6-4.2-4.3-1.4-7.9 2.5-8.8 5.7-1.4 4.6.4 8.2 1.7 9.1-2.8 4.9-5.9 9.7-9.2 14.2-4.4 6.1-7.8 9.5-11.3 11.1-1.4.6-2.8.7-3.1-1.1-.5-2.7 2.1-6.7 5.4-13.5 2.4-4.8 5.6-10.8 7.1-13.8-4.8.3-8.1.4-11.7.9-.4.9-2 3.7-2.5 4.6-1.5-1.8-4.6-3.9-9.9-3.3-9.7 1.1-15.8 7.2-21.3 14.5-2.7 4-4.5 8.4-5.5 13.1-5.6 5-11.6 8.9-18.1 9.7-2.7.3-5.6.5-7.2-2.7-.6-1.4-.7-2.8-.4-4.3 19.5-3.1 28.7-15 26.5-22.9-.9-3.3-4.5-4.7-9.4-4.1-12.6 1.5-23.1 11.2-27.4 19.7-.6 1.3-1.2 2.6-1.6 3.9-3.5.2-7.9-.2-9.1-1.9-1.1 2.6.1 6.8 5.4 7.6.9.1 1.8.2 2.6.4 0 7.7 6.2 13.6 17 11.9 7.3-1.2 15.3-6.3 21.4-11.7 1 4.5 4 7.8 10.5 6.6m-15.1-28.8c.6 4.5-8.6 11.5-19.5 13.9.8-6.4 9.6-15 15.4-16 2.3-.3 3.9.6 4.1 2.1M354 207.9c2.5-3.9 5.4-7.6 8.6-11 2.4-2.5 6.3-2.6 4.1 3.2-1.2 3.2-5.7 14.8-21.8 24.2 2.7-5.7 5.7-11.2 9.1-16.4m-85.9 36.7c-2.3 4.4-8.3 13.1-13.5 13.9-2.1.3-3.3-.7-3.8-3.5-1.1-5.9 8.2-19.5 15.4-20.8 5-.9 6.1 5.2-.3 7.2 0 1.4 1 2.5 2.3 2.9l-.1.3zm-47.7-48.7c4.8 13.1-4.5 29.7-20.1 34.2-3.1.7-6.2 1.2-9.4 1.4l2.1-5c4.1-8.8 12.9-25.3 24-36.1 1.4 1.7 2.5 3.5 3.4 5.5m-2.4-16.6c-8.2-3.5-23.8-5.2-35.9-3.9-35.4 3.9-53 23.5-51.7 36 .8 7.4 7.7 13 15.9 12.2 12.6-1.1 23-10.5 27.1-17.6l-1.7-1.8c-1.8 1.4-3.9 2.4-6.1 3.1-4.3 1.7-9.1-.5-10.8-4.8-.1-.3-.2-.5-.3-.8-2.4-9.7 11.7-20.1 29.2-21.4 7.8-.6 18 .1 25.3 3.8 1.4.7 2.7 1.6 3.9 2.5-16.6 11.8-26.2 27.9-34.6 42.9-4.8-2.5-5.3-6.9-3.5-9.1-2 .2-7.7 1.3-8.3 6.6-.5 4.3 2.1 7.9 7.7 9.8-3.5 6.4-9.4 20.8-21.4 23.9-3.3.7-6.7-.8-8.5-3.7-.4-.7-2.4-6.3 4.6-8.6-20.3-7.7-34.7 15.2-21.4 29.1 6.1 6.3 14.6 7.9 23.9 5.9 20.1-4.2 28.9-24.7 36.7-45.2 2.9-.1 5.8-.5 8.7-1.1 20.9-3.7 42.9-21.9 37.6-41.6-1.3-4.9-4.4-9.3-8.5-12.2 1.7-1 3.5-1.8 5.3-2.5-.4-1.1-.9-2.1-1.5-3.1-2.6.9-5.2 2-7.7 3.3-1.4-.7-2.8-1.3-4.2-1.8"/></svg>