<svg xmlns="http://www.w3.org/2000/svg" viewBox="0 0 500 500" style="enable-background:new 0 0 500 500" xml:space="preserve"><path d="M190.3 228.2c-5.4-.1-9.1-.1-13.8 0v16c4.6-.3 9.1-.6 13.7-.7 1 0 1.5-.4 1.5-1.6V230c.1-1.3-.2-1.8-1.4-1.8z"/><path d="M350.7 202.5H149.8c-.2 0-.4.2-.4.4v94.2c0 .3.3.4.4.3 21-8.1 58.2-13.5 100.5-13.5 42 0 79.1 5.3 100.1 13.4.3.1.4-.1.4-.3v-94c.2-.4 0-.5-.1-.5zm-146 40.7c0 7.3-3.5 10.9-10.7 11.5-5.7.4-11.6.9-17.3 1.5v18.2c0 .2-.1.3-.3.3l-12 1.8c-.3 0-.4-.1-.4-.3v-58.6c0-.2.2-.4.4-.4h30c7.2 0 10.7 3.4 10.7 10.7-.4 5-.4 10.2-.4 15.3zm44.3-25.7-2.8 10.4c0 .2-.1.3-.3.3-6.9 0-14.3-.1-21.2 0 0 3.2.1 6.2.1 9.3 6.8 0 12.2-.1 18.4-.1.3 0 .4.3.3.4-.4 1.6-1.9 6.9-2.8 10 0 .2-.1.3-.3.3-5.3 0-10.4.1-15.7.3v10.9c7.9-.3 16-.4 24-.4.3 0 .4.3.3.4l-2.8 10.1c0 .2-.1.3-.3.3-11.2.1-22.6.6-33.8 1.3-.2 0-.4-.2-.4-.4 0-17.8 0-35.5.1-53.1 0-.2.2-.4.4-.4h36.3c.3 0 .5.1.5.4zm45.4 10.4c0 .2-.2.4-.4.4h-13.8V270c0 .2-.2.4-.4.4-4.1-.1-8.1-.4-12.2-.4-.1 0-.3-.1-.3-.4v-41.1h-13.8c-.2 0-.3-.1-.3-.3v-10.5c0-.2.1-.3.3-.3h40.4c.2 0 .4.2.4.4l.1 10.1zm43.2-10.4-2.8 10.4c0 .2-.1.3-.3.3h-21.7v10.9c5.7.3 11 .6 18.1 1 .3 0 .4.3.3.4l-2.7 10.3c0 .1-.3.3-.4.3-6.3-.7-8.5-.9-15.4-1.5v11.9c8.4.9 16.2 1.8 23.5 2.9.1 0 .3.3.3.4l-2.8 10.3c0 .1-.3.3-.4.3-10.9-1.6-22.2-2.9-33.1-3.8-.2 0-.3-.1-.3-.3 0-17.9-.1-36-.1-53.9 0-.2.2-.4.4-.4h37c.4 0 .5.3.4.5zM93.8 240.6l-6.3 2.2c-3.4 1.2-5.3 2.4-5.3 5.4v8.7h18.7v-5.3H88.2v-2.4c0-.7.3-.9 1-1.2l6.2-2.2c3.4-1.2 5.3-2.4 5.3-5.4v-4.1c0-3.4-1.8-5.1-5.1-5.1h-7.9c-3.4 0-5.1 1.8-5.1 5.1v2.9h5.9V237c0-.6.1-.7.7-.7h4.9c.6 0 .7.1.7.7v2.4c0 .7-.4.9-1 1.2zm30.5 16.4c3.4 0 5.2-1.6 5.2-5.1v-15.7c0-3.5-1.6-5.2-5.2-5.2h-9.4c-3.4 0-5.2 1.6-5.2 5.2v15.6c0 3.4 1.6 5.1 5.2 5.1h9.4v.1zm-8.4-19.8c0-.6.1-.7.7-.7h6c.4 0 .7.1.7.7V251c0 .4-.1.7-.7.7h-6c-.4 0-.7-.1-.7-.7v-13.8zM82 217h47.5v5.4H82zm0 48.4h47.5v5.4H82zm300.1-24.8-6.3 2.2c-3.4 1.2-5.3 2.4-5.3 5.4v8.7h18.7v-5.3h-12.6v-2.4c0-.7.3-.9 1-1.2l6.2-2.2c3.4-1.2 5.3-2.4 5.3-5.4v-4.1c0-3.4-1.8-5.1-5.2-5.1h-8.2c-3.4 0-5.2 1.8-5.2 5.1v2.9h6V237c0-.6.1-.7.7-.7h4.8c.6 0 .7.1.7.7v2.4c.5.7.2.9-.6 1.2zm30.7 16.4c3.4 0 5.1-1.6 5.1-5.1v-15.7c0-3.5-1.6-5.2-5.1-5.2h-9.4c-3.4 0-5.1 1.6-5.1 5.2v15.6c0 3.4 1.6 5.1 5.1 5.1h9.4v.1zm-8.4-19.8c0-.6.1-.7.7-.7h6c.4 0 .7.1.7.7V251c0 .4-.1.7-.7.7h-6c-.4 0-.7-.1-.7-.7v-13.8zM370.5 217H418v5.4h-47.5zm0 48.4H418v5.4h-47.5z"/></svg>