<svg data-name="Layer 1" xmlns="http://www.w3.org/2000/svg" viewBox="0 0 500 500"><path d="M374 251.78a8.94 8.94 0 0 1 5.27 7.66 1.76 1.76 0 0 0 1 1.49 12.07 12.07 0 0 1 6 9.3h9.84c-.87-2.65-6.1-6.29-4.34-13.53 1.64.28 4.25.43 6.87.64 1.95 8.22 6.55 7.06 8.14 12.86h9.78a14.14 14.14 0 0 1-1.56-12.45c1.81 6.41 7.16 7.41 8.54 12.45h9.87c-4.24-5.67-7.06-12.25-6.56-16.42a24.13 24.13 0 0 0 2.51-2.22 11.07 11.07 0 0 0 2.25 5.39h3.74a11.86 11.86 0 0 1 2.17-5.58c1.32.6 4.09 1.27 5.71-1 .67-.95 6.17-8.64 7.59-10.69 10.88-15.76-1.52-25.95-15.47-24.69-2.37-5.29-9.42-14.92-25.14-14.92-14.34.22-23.55 7.32-30.9 10.2 0 0-11.77 4.87-17.4 5.72-15.43 2.29-19.84 9.37-20.74 17-.31 2.63.7 6 1.58 8.08-5.14 1.61-4.62 5.21-8.62 5.31-.43 0-.54.28-.43.56.82 2.17 4.32 4.18 7.76 3.73 7.34-1.54 6.9-8.63 6.9-8.64 0-3.71-4.43-8.14.84-14.82a9.05 9.05 0 0 1 2.53-2.27 14.65 14.65 0 0 0 1.36 15.39c3.31 4.84.9 9-2 9.95a1.29 1.29 0 0 0-.79 1.61c2.48 5.56-2.43 11.76 1 18.36h8.52c-6-12.42 8.45-12 14.2-18.45m.62-11.26c-7 9.45-12.79 8.92-12.79 8.92 2.8-9.81-3.73-13-3.74-18.13 0-10.42 9.69-7.32 22.13-13.18.32 8.11 4.33 16.2 8.69 21.51a30.51 30.51 0 0 0 11.16 8.91c-8.89-.28-18.67-2.5-25.45-8m67.48-11.9c-.09 1.66 1.14 2.45.66 4.54a3.32 3.32 0 0 1-3.12 2.52 3.66 3.66 0 0 1-3.94-2.89c-.76-3 .85-7.15 5.43-8.7a9 9 0 0 1 5.22.13c.06 0-4.07 1.24-4.25 4.4M97.61 247.42h7.18v4.21h.08c1.58-3.28 4.73-4.73 8.32-4.73 3.24 0 5.91 1.4 7.14 4.38a9 9 0 0 1 8.1-4.38c6.56 0 8 3.72 8 9.89v13.44h-7.83V258c0-2.58-.92-4.5-3.15-4.5-2.8 0-4.46 2.23-4.46 7.13v9.63h-7.88V258c0-2.58-.92-4.5-3.15-4.5-2.81 0-4.47 2.23-4.47 7.13v9.63h-7.88Zm49.22 9.25c.17-2.63 1.53-4.78 4.37-4.78 3.16 0 4.39 2.15 4.39 4.78Zm15.84 4.46v-1.45c0-6.78-3.06-12.78-11.51-12.78-7.09 0-12.21 4.38-12.21 11.91s5.73 11.95 13.26 11.95a22.81 22.81 0 0 0 8.37-1.45v-5.56a14.79 14.79 0 0 1-7 1.75c-3.85 0-6.26-1.22-6.69-4.37Zm2.55-21.46h8.14v24.52h9.21v6.04h-17.35v-30.56z"/><path d="M189.1 256.67c.17-2.63 1.52-4.78 4.37-4.78 3.16 0 4.38 2.15 4.38 4.78Zm15.84 4.46v-1.45c0-6.78-3.06-12.78-11.51-12.78-7.1 0-12.21 4.38-12.21 11.91s5.73 11.95 13.26 11.95a22.79 22.79 0 0 0 8.36-1.45v-5.56a14.75 14.75 0 0 1-7 1.75c-3.85 0-6.26-1.22-6.7-4.37Zm2.26-13.71h7.18v4.21h.08c1.58-3.28 4.73-4.73 8.32-4.73 6.22 0 8.71 4.38 8.71 9.11v14.22h-7.88v-11c0-4.29-1.49-5.73-3.63-5.73-3.24 0-4.91 2.23-4.91 7.13v9.63h-7.87Zm34.96 11.17c0-3 1.71-5.65 4.77-5.65 2.89 0 4.82 2.5 4.82 5.95s-2.19 5.83-4.82 5.83c-3 0-4.77-2.5-4.77-6.13m17.46-19h-7.91v10.81h-.09c-2-2.63-4.69-3.46-7.84-3.46-6.3 0-9.76 5.91-9.76 11.51 0 6.74 3.63 12.35 10.42 12.35 3.63 0 6.83-2.06 7.83-4.6h.09v4.07h7.26Zm4.61 7.83h7.88v22.81h-7.88Zm7.88-2.71h-7.88v-5.14h7.88Zm4.51 2.71h7.18v4.21h.08c1.58-3.28 4.73-4.73 8.32-4.73 6.21 0 8.71 4.38 8.71 9.11v14.22H293v-11c0-4.29-1.49-5.73-3.63-5.73-3.24 0-4.91 2.23-4.91 7.13v9.63h-7.87Zm34.88 11.21c0-3.11 1.54-5.69 4.47-5.69 3.55 0 5 2.85 5 5.39 0 3.5-2.23 5.86-5 5.86-2.37 0-4.47-2-4.47-5.56m17.11-11.21h-7.13v4.12h-.08a8.91 8.91 0 0 0-7.75-4.64c-7.1 0-10.29 5.07-10.29 11.87s3.89 11.46 10.15 11.46a8.88 8.88 0 0 0 7.67-3.9h.09v1.23c0 4.47-2.46 6.62-7 6.62a15.73 15.73 0 0 1-7.71-1.89l-.38 6.22a26.66 26.66 0 0 0 8.7 1.44c9.19 0 13.74-3 13.74-12.39Zm-245.44-.37a14.14 14.14 0 0 0-1.86-.15c-3.41 0-5.38 1.84-6.74 4.73h-.09v-4.21H67.3v22.81h7.88v-9.63c0-4.47 2.06-7.13 5.74-7.13a10.52 10.52 0 0 1 2.25.19Zm-30.45-1.63H54c2.66 0 4.77 1 4.77 4.11s-2.11 4.19-4.77 4.19h-1.28ZM45 270.22h7.72V259.5H55c7.22 0 11.49-3.68 11.49-9.83 0-6.86-4.15-10-13-10H45Zm40.22-22.8h7.88v22.81h-7.88Zm7.88-2.61h-7.88v-5.14h7.88Z"/></svg>