<svg xmlns="http://www.w3.org/2000/svg" viewBox="0 0 500 500" style="enable-background:new 0 0 500 500" xml:space="preserve"><path d="M371 267.8c.4 0 2.3 0 2.3 2 0 .9-.7 1.6-1.5 1.7v-.1c.4.1.7.4.8.8l1.2 2.9h-1l-1.2-2.7c-.2-.4-.3-.6-.9-.6h-.8v3.3h-.9v-7.2l2-.1zm-1.1 3.1h.9c1 0 1.5-.6 1.5-1.1s-.1-1.1-1.3-1.1h-1.1v2.2zm1.3-5.7c3.4 0 6.1 2.7 6.1 6.1 0 3.4-2.7 6.1-6.1 6.1-3.4 0-6.1-2.7-6.1-6.1 0-3.3 2.7-6.1 6.1-6.1zm0 11.4c2.9 0 5.3-2.4 5.3-5.3s-2.4-5.3-5.3-5.3-5.3 2.4-5.3 5.3 2.3 5.3 5.3 5.3c-.1 0-.1 0 0 0z"/><path d="M371.2 277.5c-3.4 0-6.2-2.8-6.2-6.2 0-3.4 2.8-6.2 6.2-6.2 3.4 0 6.2 2.8 6.2 6.2-.1 3.4-2.8 6.2-6.2 6.2zm0-12.2c-3.3 0-6 2.7-6 6s2.7 6 6 6 6-2.7 6-6-2.7-6-6-6zm0 11.3c-3 0-5.3-2.4-5.3-5.3 0-3 2.4-5.3 5.3-5.3 3 0 5.3 2.4 5.3 5.3s-2.3 5.3-5.2 5.4c0 0-.1 0-.1-.1zm0-10.5c-2.9 0-5.2 2.3-5.2 5.2 0 2.9 2.3 5.2 5.2 5.2s5.2-2.3 5.2-5.2c0-2.8-2.3-5.2-5.2-5.2zm2.7 8.9h-1.2l-1.2-2.7c-.2-.4-.3-.6-.8-.6h-.7v3.3h-1.1v-7.3h2.1c.7 0 2.3.2 2.3 2 0 .8-.5 1.4-1.3 1.6.2.2.4.4.5.7l1.4 3zm-1.1-.1h.9l-1.2-2.8c-.1-.3-.3-.5-.6-.7h-.3v-.2h.1c.1 0 .1 0 .2.1.7-.1 1.3-.8 1.3-1.5 0-1.6-1.4-1.9-2.2-1.9h-2v7.1h.8v-3.3h.9c.4-.1.8.2.9.6l1.2 2.6zm-2-3.9h-.9v-2.4h1.2c.9 0 1.4.4 1.4 1.2-.1.5-.7 1.2-1.7 1.2zm-.8-.2h.8c1 0 1.5-.5 1.5-1.1 0-.3 0-1.1-1.2-1.1h-1v2.2zm-119.7-89.1h2.2c10.7.6 20.5 5.9 26.9 14.5.9-.3 1.9-.5 2.8-.6h1.5c.2 0 .5.1.7.1h1.1l.6.3.1.1.1.1.1.1.1.1.1.1c1.3.9 2.7 1.8 4.2 2.4.5.2.9.3 1.3.5l.2.1.9.2c.6.1 1.1.3 1.7.4 2.1.7 3.9 2.1 5.2 3.9.1.2.2.3 1.2.3 3.2 0 6.2 1.5 8.3 3.9 1 1.1 2.4 1.6 4.6 1.8 2.6.2 5.3.7 7.3 2.7 1.7 1.7 3.8 3 6 4 .9.3 1.8.5 2.8.5 1.3.1 2.6-.5 3.3-1.5.2-.3.3-.6.3-.9v-.5c0-1.4-1-3.1-2.7-4.6l-.2-.2-1-.8c-2.1-1.6-3.6-2.9-3.9-4.3-.1-.4-.1-.8-.1-1.2 0-1.2.4-2.4 1-3.4 1-1.3 2.6-2.2 4.2-2.3 2.3-.2 4.5-1.1 6.2-2.7.2-.4.7-.7 1.2-.8.4 0 .9.3 1.4 1.1.2.8.3 1.6.3 2.4 0 1.5-.4 2.9-1.3 4.1-.9 1.2-2.8 2.6-6.4 2.6-.1 0-.2 0-.3.1.5.6 1.1 1 1.8 1.3 3.4 1.9 5.4 5.4 5.2 9.3-.1 1-.3 2-.7 2.9-.3.9-.9 1.7-1.5 2.4l-.3.3c-1.4 1.3-3.5 2.3-7 2.3h-1.1c-.3 0-.8-.1-1.3-.1-.1 2-.6 4-1.5 5.8-.2.2-.3.5-.3.8v.1l1.9 1.1.3.1c.1 0 .1.1.2.1h.7c.4 0 1-.2 1.5-.2 1-.1 1.9.6 2.1 1.5.2.5.3 1 .4 1.4.1.8.5 1.6 1.2 2.1l.8-.7c.3-.3.7-.7 1-.9.2-.2.5-.3.8-.3.5 0 .9.1 1.4.3.8.4 1.5.8 2.2 1.2.5.3 1 .8 1.1 1.3.3.6.7 1 1.3 1.2 1 .7 1.6 1.9 1.6 3.1 0 .2 0 .4.1.7 0 .2.1.3.2.5.9 1.8.2 2.7-.3 3.1-.7.4-1.5.6-2.2.6-.3 0-.5 0-.8-.1v.2l-1.7-.2h-.4c-.5 0-1.1.1-1.6.2h-.1c-.2 0-.4.1-.7.1-1.2 0-2.3-.6-3-1.6 0-.1-.1-.1-.1-.2-.4-.7-.9-1.3-1.5-1.7-.5.2-1.1.2-1.7.3h-.5c-1.1-.1-2.1-.6-2.9-1.3-.2-.1-.3-.3-.5-.5-1.1-1-2.5-1.6-4-1.6-.2 0-.5 0-.7.1l-.7.1c-.8.2-1.6.3-2.4.3-1 0-1.9-.2-2.8-.7-.5-.3-1.1-.6-1.7-.8-1.6-.7-3.3-1.4-3.5-2.9-.1-.4-.3-.8-.6-1.1-.2-.4-.4-.7-.6-1.1-.2-.4-.3-.8-.3-1.2-.4.1-.9.2-1.3.2h-.9l-.7-.1c-1.2-.2-2.4-.4-3.5-.4-.3 0-.6 0-.8.1-1.9.5-3.9.7-5.9.6-.6 0-1.2 0-1.8-.1l-1-.2c-.4.5-.9.9-1.5 1.3h1.5c.3 0 .6 0 .9.1l1.2.3c.3-.1.7-.1 1-.1h.9l1.4.1 1.6.2c.8.2 1.6.5 1.5 2-.1.6-.3 1.1-.7 1.5-.5.6-.9 1.2-1.3 1.9l-.1.1c-.4.9-1.3 1.5-2.3 1.4h-.5c0 .1-.1.2-.2.3-.3.9-.9 1.7-1.7 2.4l-.2.2c-.7.6-1.6.9-2.4.9-.4 0-.9-.1-1.3-.2l-.6-.2c-1.8-.6-3.5-1.3-5.2-2.1l-.2-.1c-1-.5-1.3-.7-1.6-.7h-.4c-.3 0-.6.1-.9.1-1.1 0-2.2-.6-2.7-1.6l-.1-.2c-5.5 7.5-13.6 12.7-22.8 14.4l-1 .2h-.1l-.4.1-.5.1h-1.1l-.7.1h-.8.1-4.5l-.7-.1h-1l-.7-.1h-.3l-.5-.1h-.3l-.6-.1-.4-.1h-.2l-.9-.2h-.1l-.5-.1-.2-.1-.8-.2h-.1c-8.1-2.3-15.1-7.4-19.9-14.3l-.6.9c-.5 1-1.6 1.7-2.7 1.6-.3 0-.6 0-.9-.1h-.4c-.3 0-.7.2-1.6.7l-.2.1c-1.7.8-3.4 1.5-5.2 2.1l-.6.2c-.4.2-.9.2-1.3.2-.9 0-1.8-.4-2.4-.9l-.2-.2c-.8-.6-1.4-1.4-1.7-2.4 0 0-.1-.2-.2-.3h-.6c-1 .1-1.9-.4-2.3-1.4l-.1-.1c-.4-.7-.8-1.3-1.3-1.9-.4-.4-.6-1-.7-1.5-.2-.9.3-1.8 1.2-2 .1 0 .2 0 .3-.1l1.6-.2 1.4-.1h.9c.3 0 .7 0 1 .1l1.2-.3c.3-.1.6-.1.9-.1h1.5c-.5-.4-1-.8-1.5-1.3l-1 .2c-.6.1-1.2.1-1.9.1-2 0-4-.2-5.9-.6-.3-.1-.5-.1-.8-.1-1.2.1-2.4.2-3.5.4l-.7.1c-.3 0-.5.1-.8.1-.4 0-.9-.1-1.3-.2-.1.8-.4 1.7-.9 2.4-.2.4-.4.7-.6 1.1-.2 1.5-1.9 2.2-3.5 2.9-.6.2-1.1.5-1.7.8-.8.5-1.8.8-2.8.7-.8 0-1.6-.1-2.4-.3l-.7-.2c-.2 0-.5-.1-.7-.1-1.5 0-2.9.6-4 1.6-1 1.1-2.4 1.7-3.9 1.7-.6 0-1.1-.1-1.7-.3-.6.5-1.1 1.1-1.5 1.7-.7 1.3-2.2 2-3.7 1.7h-.1c-.5-.1-1.1-.2-1.6-.2h-.4l-1.7.2v-.3c-.3 0-.5.1-.8.1-.8 0-1.6-.2-2.3-.6-.5-.4-1.2-1.3-.3-3.1.2-.3.3-.7.3-1.1 0-1.2.5-2.4 1.5-3.1.6-.2 1.1-.7 1.3-1.2.2-.6.6-1.1 1.1-1.3.7-.5 1.4-.9 2.2-1.2.4-.2.9-.3 1.4-.3.3 0 .6.1.9.3.5.5 1.8 1.6 1.8 1.6 1.1-.9 1-1.9 1.6-3.5.2-1 1.1-1.6 2.1-1.5.5 0 1 .1 1.5.1h.7l.2-.1.3-.1 1.8-1.1v-.1c0-.3-.1-.6-.3-.8-.9-1.8-1.4-3.8-1.5-5.8l-.9.1c-.6 0-1.1.1-1.6.1-3.5 0-5.6-1-7-2.3-.8-.8-1.5-1.7-1.8-2.8-.4-.9-.6-1.9-.7-2.9 0-3.6 2-7 5.1-8.8.7-.3 1.3-.8 1.8-1.3-.1 0-.2-.1-.3-.1-3.6 0-5.5-1.4-6.4-2.6-.9-1.2-1.4-2.7-1.3-4.1 0-.8.1-1.6.3-2.4.5-.8 1-1.1 1.4-1.1.5.1.9.3 1.2.8 1.7 1.5 3.9 2.5 6.2 2.7 1.7.1 3.2.9 4.2 2.3.7 1 1.1 2.2 1 3.4 0 .4 0 .8-.1 1.2-.4 1.4-1.8 2.7-3.9 4.3l-1.2 1c-1.7 1.5-2.7 3.2-2.7 4.6 0 .4.1.7.2 1 0 .1.1.3.2.4.8 1.1 2 1.7 3.3 1.5.9 0 1.9-.2 2.8-.5 2.2-1 4.3-2.3 6-4 2-2 4.7-2.5 7.3-2.7 2.3-.2 3.7-.7 4.6-1.8 2.1-2.5 5.1-3.9 8.3-3.9 1-.1 1.1-.1 1.2-.3 1.1-1.5 2.5-2.7 4.2-3.5.9-.4 1.8-.6 2.7-.8l.9-.2.2-.1c2-.6 3.9-1.6 5.5-2.8l.1-.1.1-.1.1-.1.1-.1.1-.1.1-.1.1-.1.1-.1h4.3l.5.1h.1l.5.1h.1c.3.1.7.2 1 .3h.2c6.5-8.9 16.7-14.3 27.6-14.8h1.8m35.2 13.9c-.2 0-.5-.1-.7-.1l.7.1m1.9.7-.6-.3.6.3m42.8 34.2h-.1.1M243.3 254l.6.1-.6-.1m1.7.3.7.1-.7-.1m10.3 0-.5.1.5-.1m-8.6.1.7.1-.7-.1m6.9 0-.7.1.7-.1m-.9.1h-.6.6m-5.1 0h.6-.6m4.3.1h-.7.7m-3.4 0h.7-.7m.9 0h1.6-1.6m.8-74.5h-1.8l-1.6.1c-10.4.9-20 6.1-26.5 14.3h-.1l-.6-.2h-.1c-.2 0-.4-.1-.6-.1h-5.3l-.1.1h-.2l-.1.1-.1.1-.1.1-.1.1-.1.1-.1.1-.5.3c-1.4 1.1-3 1.9-4.7 2.4h-.1l-.8.2c-1 .2-2 .5-3 .9-1.8.8-3.4 2.1-4.6 3.7h-.2c-3.7.1-7.1 1.7-9.5 4.5-.5.5-1.2 1.1-3.5 1.2-2.8.2-6 .8-8.4 3.2-1.6 1.5-3.4 2.7-5.4 3.6-.7.3-1.5.4-2.2.4-.7.1-1.4-.2-1.8-.7 0 0 0-.1-.1-.1 0-.1-.1-.3-.1-.4 0-.7.5-2 2.1-3.3l1.1-.9c2.3-1.8 4.1-3.3 4.5-5.3.1-.5.2-1.1.2-1.6 0-1.6-.5-3.1-1.4-4.4-1.3-1.8-3.3-2.9-5.5-3-1.8-.2-3.5-.9-4.9-2-.6-.9-1.5-1.4-2.5-1.5-.8 0-1.9.3-2.9 2l-.1.2-.1.3c-.2.9-.4 1.9-.4 2.8 0 1.9.5 3.7 1.6 5.2.9 1.2 2.2 2.1 3.6 2.6-2.7 2.3-4.3 5.6-4.3 9.2-.1 1.3 0 2.6.3 3.9v.1c.5 1.3 1.3 2.5 2.3 3.5 1.9 1.8 4.7 2.7 8.2 2.7h.9c.2 1.4.6 2.8 1.1 4.1-.2.1-.3.2-.5.3h-.6c-.4-.1-.8-.1-1.3-.1-1.7-.1-3.3 1.1-3.8 2.7-.2.5-.3 1-.4 1.4l-.1-.1c-.6-.5-1.3-.8-2.1-.8-.7 0-1.3.2-2 .4-.7.3-1.3.6-1.9 1l-.5.3c-.9.5-1.6 1.3-1.9 2.2-.1.1-.3.2-.5.3-1.6 1-2.5 2.8-2.4 4.6 0 .1 0 .3-.1.4-1.2 2.4-.4 4.3.8 5.3.7.5 1.5.8 2.3.9l2.1.3 1.7-.2h.2c.4 0 .8.1 1.2.2h.1c.3.1.7.1 1 .1 1.9 0 3.7-1 4.6-2.7.1-.2.3-.5.5-.7.4.1.8.1 1.2.1 1.9 0 3.8-.8 5.1-2.3.7-.7 1.7-1.1 2.8-1.1h.4l.7.1c.9.2 1.8.3 2.7.3 1.3 0 2.6-.3 3.7-1 .5-.3.9-.5 1.4-.7h.1c1.7-.7 4-1.7 4.4-4.1.1-.1.2-.4.3-.6.3-.4.5-.9.7-1.3.4 0 .7 0 1.1-.1l.7-.1c1-.2 2.1-.3 3.2-.4-.6.8-.9 1.8-.7 2.8.1 1 .5 1.9 1.2 2.6.4.5.7.9 1 1.5v.1c.6 1.3 1.8 2.2 3.3 2.3.4 1 1.1 1.8 2 2.4l.2.1c1.5 1.2 3.5 1.6 5.3.9l.6-.2c1.9-.6 3.7-1.4 5.5-2.2l.2-.1c.3-.1.7-.4.9-.5h.2c.4.1.8.1 1.2.1 1.3 0 2.5-.5 3.4-1.3 4.9 6.3 11.7 10.8 19.4 13h.1l.9.2.2.1.5.1h.1l.9.2h.2l.4.1.6.1h.3l.5.1h.3l.7.1h1.1l.7.1h6.8l.5-.1h.3l.5-.1.4-.1h.1l1-.2c8.9-1.6 16.9-6.4 22.6-13.4.8.5 1.8.8 2.7.8.4 0 .8 0 1.1-.1h.1c.2.1.6.3.9.5l.2.1c1.7.8 3.5 1.6 5.3 2.2h.1l.6.2c.6.2 1.2.3 1.9.3 1.3 0 2.5-.5 3.4-1.3l.2-.2c.9-.6 1.5-1.5 2-2.4 1.4-.1 2.7-1 3.3-2.3v-.1c.3-.5.6-1 1-1.5.6-.7 1-1.6 1.2-2.5.1-1-.1-2-.7-2.8 1.1.1 2.1.2 3.1.4l.7.1c.3 0 .5.1.8.1h.4c.2.5.5.9.7 1.3.2.4.3.5.4.6.4 2.4 2.7 3.4 4.5 4.1.5.2 1 .4 1.5.7 1.1.7 2.4 1 3.7 1 .9 0 1.8-.1 2.7-.3l.7-.1h.4c1 0 2 .4 2.8 1.1l.6.6c1.1.9 2.4 1.5 3.8 1.6h.7c.4 0 .8 0 1.2-.1.2.2.3.4.5.7 0 .1.1.1.1.2 1 1.6 2.6 2.5 4.5 2.5.3 0 .7 0 1-.1h.2c.4-.1.8-.2 1.2-.2h.2l1.6.2 2-.3c.8-.1 1.6-.4 2.3-.9 1.2-.9 2.1-2.8.9-5.3 0-.1-.1-.1-.1-.2v-.1c0-1.9-.9-3.6-2.4-4.6-.2-.1-.3-.2-.5-.3-.3-1-1-1.8-1.9-2.2l-.5-.3c-.6-.4-1.2-.7-1.9-1-.6-.3-1.3-.4-2-.4-.8 0-1.5.3-2.1.8l-.1.1c-.1-.4-.2-.8-.4-1.4-.5-1.7-2-2.8-3.8-2.7-.4 0-.8 0-1.2.1h-.6l-.5-.3c.6-1.3 1-2.7 1.2-4.1h.9c3.5 0 6.2-.9 8.2-2.7l.4-.4c.9-.9 1.5-1.9 1.9-3.1.5-1.1.7-2.3.8-3.5 0-3.6-1.6-6.9-4.3-9.2 1.4-.5 2.7-1.4 3.6-2.6 1.1-1.5 1.7-3.3 1.6-5.2 0-1-.1-1.9-.4-2.8l-.1-.2-.1-.2c-1-1.6-2.1-2-2.9-2-1 0-2 .6-2.5 1.5-1.4 1.1-3.1 1.8-4.9 2-2.2.1-4.2 1.2-5.5 3-.9 1.3-1.4 2.8-1.4 4.4 0 .5.1 1.1.2 1.6.5 2 2.3 3.5 4.5 5.3l1 .8.2.2c1.5 1.3 2.1 2.6 2.1 3.3v.2c0 .1-.1.2-.1.3-.5.5-1.2.8-1.8.7-.8 0-1.5-.2-2.2-.4-2-.9-3.8-2.1-5.4-3.6-2.4-2.4-5.6-3-8.4-3.2-2.2-.2-3-.7-3.4-1.2-2.4-2.8-5.8-4.4-9.5-4.5h-.2c-1.5-1.9-3.5-3.3-5.8-4.1-.6-.2-1.2-.4-1.8-.5l-.8-.2-.2-.1h-.1c-.4-.1-.8-.3-1.2-.4-1.1-.5-2.2-1.1-3.2-1.8l-.8-.5-.1-.1h-.2l-.1-.1-.6.1c-.2-.1-.4-.2-.7-.3H285c-.3-.1-.5-.1-.8-.1h-1.8c-.7 0-1.4.2-2.1.3-6.7-8.4-16.7-13.5-27.4-14.2h-1.7l-1-.6z"/><path d="M218.1 208.6c-.2-.4-.2-1 .1-1.4.6-.9 1.1.1 1.1.1 2 2.8.5 7 .5 7-.2-3.9-1.7-5.7-1.7-5.7zm17.4 18.6c0-.8.1-2.7-.7-3.3-.3-.2-1.5-1.6-1.5-1.6-.2-.3-.3-.4-.3-.4-.3 0-.6.6-.6.6-.9 1.7-1.7 1.5-1.7 1.5 0-.2.1-.4.2-.6.2-.4 1.3-2.4 1.3-2.4.1-.3.2-.7.2-.7.8-1.3 1.6-.3 1.6-.3.7 1 1.4 2 2.2 2.9.2.3.4.7.5 1 .3 3.1-1.2 3.3-1.2 3.3zm-5 7.9c-.4 0-.4-.1-.4-.5.1-.7.5-1.2 1.1-1.6 1.6-1 1.9 0 1.9 0 .3 1.8-1.1 2-1.1 2-.5 0-1 .1-1.5.1zm-71.7 5.1c.2.2.3.5.2.8-.4 1.1-.7 2.2-.9 3.4 0 0-2 .4-2.3-.6 0-.3.1-.7.3-.9.3-.5.4-1 .4-1.5 0 0 0-2.4 1.5-1.8.3.1.6.4.8.6zm2.4-4c.3-.3.8-.4 1.3-.3 1 .2.4 1.1.4 1.1-.5.7-1 1.4-1.7 2-.6.5-1.5.4-2.1-.2-.3-.2-.4-.6-.2-1 .1-.2.3-.3.4-.3.8-.4 1.4-.8 1.9-1.3zm11.9-15.1c-.2 2.3.3 4.6 1.2 6.7 0 0 1.2 1.7 0 2.8l-2.4 1.4s-.3.2-1.4.2c0 0-1.5-.4-2 .3-.3.8-.6 1.6-1 2.3 0 0-1.1 2.6-3 3.4-.9.2-1.6.8-1.9 1.6-.3.5-.8.9-1.4.9 0 0-.7.2-1.2 1.8-.1.6-.2 1.2-.2 1.8.7-.1 1.4 0 2 .1 0 0 1.9.7 2.8-.9 0 0 1.7-2.9 2.9-2.4 1.5.5 3.1.1 4.3-1 0 0 2.4-2.7 5.9-2.1 0 0 3.9.8 5.1-.1 0 0 2.4-1.3 3.4-1.6.7-.2 1.2-.8 1.2-1.6.3-.8.7-1.6 1.2-2.3h-1.9c-1.1 1.7-2.6 2.9-4.5 3.6 0 0-1.5.6-4.7.1 0 0-4.5-1-8.4 3.3-.3.4-.8.6-1.3.5 1.6-2.4 4.1-4.1 6.9-4.6.9-.2 1.9-.2 2.9-.1 4-.1 7.7-2.5 9.4-6.1 0 0-.3-5.4 1.1-6.7 0 0 .5-.2.4.9 0 0-1 5.6.9 6.7.9.6 2 .8 3 .5 1.8-.4 3.6-.5 5.4-.3 2.3.5 4.6.7 6.9.5-.5-.8-.7-1.8-.7-2.8 0 0 .5-1.1 1-.4 0 0 1.2 4.1 4.6 5.3 1.9.9 3.1 2.8 3 4.9 0 0-.5.5-4.5 1.9 0 0-1.5.5-2-.6 0 0-1.9-4.1-3.6-4l-3.2.3s-1.1.3-.3 1.1c.6.7 1.1 1.5 1.5 2.3 0 0 .1.7 1.1.6 0 0 1.4-.7 2.2 1.9.4.8 1.1 1.4 1.9 1.7.7.2 1.5.1 2.2-.2 0 0 5.2-1.9 6.1-2.6.6-.3 1.3-.5 2-.3 0 0 1.6.4 2.2-.9l1.6-2.5c.2-.4.3-.9.3-1.4.1-.6-.1-1.1-.5-1.5-.3-.3-.6-.7-.7-1.1l-1.1-2.7c-.3-.4-.6-.7-1-1l-1.5.1c.5 1.3 1.1 2.6 1.8 3.8.5.8.9 1.7 1 2.6 0 .4-.1.7-.4 1 0 0-.4.6-.5.8-.2.5-.5.9-.8 1.2-.3.2-.5.3-.8.4 0 0-.3.1-.1-.4.4-.9.7-1.8.8-2.8.1-.6-.1-1.2-.5-1.6-.7-1.1-1.4-2.2-1.9-3.4-.2-.4-.5-.9-.8-1.2-.3-.3-.2-.7.1-1 .1-.1.2-.1.3-.2.9-.2 1.9-.5 2.8-.8 0 0 1.1-.3 1.9-2.7.5-1.4.9-2.9 1-4.4 1.1 2.6.7 5.6-1.2 7.7 0 0 2.5.7 3.5 0 0 0 3.1-.5 3.7-.6 0 0 .8-.2.3.4-.5.7-.8 1.4-1 2.2-.1.4-.3.8-.6 1.1 0 0-1.8 1.2-1.9 2.4 0 0-.4 1.1.4.9 0 0 1.1-.5 1.4 0 0 0 .1.1-.3.5-.6.6-1 1.3-1.1 2.2.1.7.3 1.3.6 1.9.3.4.8.6 1.2.4.2-.1.4-.1.6 0 .5-.1.9-.2 1.4-.3 0 0 1.5-.4 2-.6.9-.3 1.9-.5 2.8-.6.5 0 .9 0 1.4.1 1.5.1 2.9-.4 3.9-1.5 0 0 1.2-.9 1.6 0 0 0 2.9 3.8 7.5 2.8 0 0-3.7-1.5-4.6-3.6 0 0-.1-1.8-2.1-4.2 0 0-.6-.8 0-1 0 0 .3-.2 1.1.5 1 1 1.9 2.1 2.5 3.4 0 0 2.3 3.4 5.6 2.3-1.5-.6-2.8-1.6-3.8-2.9-.6-1.8-1.8-3.3-3.3-4.4 0 0-.1-2.8-1.3-4.4 0 0-.6-2.7-.8-3.3-.3-1-.5-2-.6-3 .1-2-.6-3.9-1.8-5.4-.9-1.6-2-3.1-3.4-4.3 0 0-1.6-1.9-2.7-3.1-1.5-1.5-3.1-2.9-4.8-4.1-.9-.7-1.8-1.4-2.6-2.3 0 0-5.9-4.2-10.1-.8-1.7 1.1-3.5 2-5.4 2.6 0 0-5 .6-7.2 4.1 0 0-.2.6-2.2.9-3.1-.1-6 1.3-7.7 3.8-1.3 1.1-2.9 1.7-4.5 1.8 0 0-4.9-.5-8.1 3.3 0 0-8.1 7-12.9 2.4 0 0-2.5-2.4.4-6.6 1.5-1.7 3.1-3.2 4.9-4.5 0 0 2.5-1.8 1.4-4.5 0 0-.6-2.6-4.4-2.7 0 0-4.7-.9-6.6-3.3 0 0-2.1 7.5 6.2 7.3 0 0 2.2.3 1.4 2-.6.9-1.5 1.6-2.5 2 0 0-2.5 1.1-3.6 4.8 0 0-2.5 6.4 3.7 8.9 2.4.8 5.1.6 7.6.1l-.1.2zm108.4-12.5c.2-.4.2-1-.1-1.4-.6-.9-1.1.1-1.1.1-2 2.8-.5 7-.5 7 .1-3.9 1.7-5.7 1.7-5.7zm-17.4 18.6c0-.8-.1-2.7.7-3.3.3-.2 1.5-1.6 1.5-1.6.2-.3.3-.4.3-.4.3 0 .6.6.6.6.9 1.7 1.7 1.5 1.7 1.5 0-.2-.1-.4-.2-.6l-1.2-2.4c-.1-.2-.2-.4-.2-.7-.8-1.3-1.6-.3-1.6-.3-.7 1-1.4 2-2.2 2.9-.3.3-.4.7-.5 1-.4 3.1 1.1 3.3 1.1 3.3zm5 7.9c.4 0 .4-.1.4-.5-.1-.7-.5-1.2-1.1-1.6-1.6-1-1.9 0-1.9 0-.3 1.8 1.1 2 1.1 2 .5 0 1 .1 1.5.1zm71.7 5.1c-.2.2-.3.5-.2.8.4 1.1.7 2.2.9 3.4 0 0 2 .4 2.3-.6 0-.3-.1-.7-.3-.9-.3-.5-.4-1-.4-1.5 0 0 0-2.4-1.5-1.8-.3.1-.6.4-.8.6zm-2.5-4c-.3-.3-.8-.4-1.3-.3-1 .2-.4 1.1-.4 1.1.5.7 1.1 1.4 1.7 2 .6.5 1.5.4 2.1-.2.9-.8-.3-1.3-.3-1.3-.6-.3-1.2-.8-1.8-1.3zm-11.9-15.1c.2 2.3-.3 4.6-1.2 6.7 0 0-1.2 1.7 0 2.8l2.4 1.4c.4.2.9.3 1.4.2 0 0 1.5-.4 2 .3.3.8.6 1.6 1 2.3 0 0 1.1 2.6 3 3.4.9.2 1.6.8 1.9 1.6.3.5.8.9 1.4.9 0 0 .7.2 1.2 1.8.1.6.2 1.2.2 1.8-.7-.1-1.4 0-2 .1 0 0-1.9.7-2.8-.9 0 0-1.7-2.9-2.9-2.4-1.5.5-3.1.1-4.3-1 0 0-2.4-2.7-5.9-2.1 0 0-3.9.8-5.1-.1 0 0-2.4-1.3-3.4-1.6-.7-.2-1.2-.8-1.2-1.6-.3-.8-.7-1.6-1.2-2.3h1.8c1.1 1.7 2.6 3 4.5 3.7 0 0 1.6.6 4.7.1 0 0 4.5-1 8.4 3.3.3.4.8.6 1.3.5-1.6-2.4-4.1-4.1-6.9-4.6-.9-.2-1.9-.2-2.9-.1-4-.1-7.7-2.5-9.4-6.1 0 0 .3-5.4-1.1-6.7 0 0-.5-.2-.4.9 0 0 1 5.6-.9 6.7-.9.6-2 .8-3 .5-1.8-.4-3.6-.5-5.4-.3-2.3.5-4.6.7-6.9.5.5-.8.7-1.8.7-2.8 0 0-.5-1.1-1-.4 0 0-1.2 4.1-4.6 5.3-1.9.8-3.1 2.8-3 4.9 0 0 .5.5 4.5 1.9 0 0 1.5.5 2-.6 0 0 1.9-4.1 3.6-4l3.1.3s1.1.3.3 1.1c-.6.7-1.1 1.5-1.5 2.3 0 0-.1.7-1.1.6 0 0-1.4-.7-2.2 1.9-.4.8-1.1 1.4-2 1.7-.7.2-1.5.1-2.2-.2 0 0-5.2-1.9-6.1-2.6-.6-.3-1.3-.5-2-.3-.8.2-1.7-.1-2.2-.9l-1.6-2.5c-.2-.4-.3-.9-.3-1.4-.1-.6.1-1.1.5-1.5.3-.3.5-.7.7-1.1l1.1-2.7c.3-.4.6-.7 1-1l1.5.1c-.5 1.3-1.1 2.6-1.8 3.8-.5.8-.9 1.7-1 2.6 0 .4.2.7.4 1 0 0 .4.6.5.8.2.5.5.9.8 1.2.3.2.5.3.8.4 0 0 .3.1.1-.4-.4-.9-.7-1.8-.8-2.8-.1-.6.1-1.2.5-1.6.7-1.1 1.4-2.2 1.9-3.4.2-.4.5-.9.8-1.2.3-.3.2-.7-.1-1-.1-.1-.2-.1-.3-.2-.9-.2-1.9-.5-2.8-.8 0 0-1.1-.3-1.9-2.7-.5-1.4-.9-2.9-1-4.4-1.1 2.6-.7 5.6 1.2 7.7 0 0-2.5.7-3.5 0 0 0-3.1-.5-3.7-.6 0 0-.8-.2-.3.4.5.7.8 1.4 1 2.2.1.4.3.8.6 1.1 0 0 1.8 1.2 1.9 2.4 0 0 .4 1.1-.4.9 0 0-1.1-.5-1.4 0 0 0-.1.1.3.5.6.5 1.1 1.3 1.2 2.1-.1.7-.3 1.3-.6 1.9-.3.4-.8.6-1.2.4-.2-.1-.4-.1-.6 0-.5-.1-.9-.2-1.4-.3 0 0-1.5-.4-2-.6-.9-.3-1.9-.5-2.8-.6-.5 0-.9 0-1.4.1-1.5.1-2.9-.4-3.9-1.5 0 0-1.2-.9-1.6 0 0 0-2.9 3.8-7.5 2.8 0 0 3.7-1.5 4.7-3.6 0 0 .1-1.8 2.1-4.2 0 0 .6-.8 0-1 0 0-.3-.2-1 .5-1 1-1.9 2.1-2.5 3.4 0 0-2.3 3.4-5.6 2.3 1.5-.6 2.8-1.6 3.8-2.9.6-1.8 1.8-3.3 3.3-4.4 0 0 .1-2.8 1.3-4.4 0 0 .6-2.7.8-3.3.3-1 .5-2 .6-3-.1-2 .6-3.9 1.8-5.4.9-1.6 2-3.1 3.4-4.3 0 0 1.6-1.9 2.7-3.1 1.5-1.5 3.1-2.9 4.8-4.1.9-.7 1.8-1.4 2.6-2.3 0 0 5.9-4.2 10.1-.8 1.7 1.1 3.5 2 5.4 2.6 0 0 5 .6 7.2 4.1 0 0 .2.6 2.2.9 3.1-.1 6 1.3 7.7 3.8 1.3 1.1 2.9 1.7 4.5 1.8 0 0 4.9-.5 8.1 3.3 0 0 8.1 7 12.9 2.4 0 0 2.5-2.4-.4-6.6-1.5-1.7-3.1-3.2-4.9-4.5 0 0-2.5-1.8-1.4-4.5 0 0 .6-2.6 4.3-2.7 0 0 4.7-.9 6.6-3.3 0 0 2.1 7.5-6.2 7.3 0 0-2.2.3-1.4 2 .6.9 1.5 1.6 2.5 2 0 0 2.5 1.1 3.6 4.8 0 0 2.5 6.4-3.7 8.9-2.3 1.1-5 .8-7.4.3zm-147.2 77.8h12.4s-.5-5.8-6.1-5.8c-5.7 0-6.3 5.8-6.3 5.8zm6.4-12.8c16.7 0 16 16.3 16 16.3v2.6h-22.7c.1 3.9 3.3 7 7.2 6.9h.1c4.2 0 6.4-4.1 6.4-4.1l8 4c-3.7 5.6-8.7 7.8-14.3 7.8-17.4 0-17.7-14.5-17.7-16.3s.3-17.3 17-17.2zm37.1 24.3c-.5 0-7 .1-7-7.8 0-7.9 7.1-8.2 7.1-8.2s7.9.3 7.9 8-7.5 8-8 8zm7.6-44.5v23.8s-4.8-3.7-10.3-3.7c-5.5 0-14.8 3.9-14.8 16.1 0 12.2 7.9 16.9 14.7 16.9 4 0 7.8-1.6 10.6-4.5v4h9.8v-52.6h-10zm66.1 21.8h10v17.6s.3 5.9 5.9 5.9c5.6 0 5.5-5.9 5.5-5.9v-17.6h10.1v18.2s1.3 14.2-15.3 14.2-16.2-12.5-16.2-14.7v-17.7zm37.3-21.8h9.8v52.6h-9.8v-52.6zm16.8 0h9.7v52.6h-9.7v-52.6zm-74.1 43.8h-9.3v-32.9h5s6.8-.5 6.8 5.4-5.4 5.4-5.4 5.4h-3.1v8.9h6.1c1.6 0 6.7.8 6.7 6.6s-6.7 6.6-6.8 6.6zm8.4-18.7c2.9-2.6 4.6-6.3 4.6-10.3 0-6.7-4.9-12.8-15.3-12.8h-17.4v50.5h21.4s15.4-.2 15.4-14.1c0-8-3.1-11-8.7-13.3zm-152.1-24.1v51.6h10.4v-41.7h4.9s7.7-.3 7.7 6.6c0 7-6.8 6.8-6.8 6.8h-2.5V302l10.4 16.4H169l-14.5-21.1s12-1 12-14-9-16.5-21.1-16.5h-12.7z" style="fill-rule:evenodd;clip-rule:evenodd"/></svg>