<svg xmlns="http://www.w3.org/2000/svg" viewBox="0 0 500 500" style="enable-background:new 0 0 500 500" xml:space="preserve"><path d="M247 329.4c-10.4.1-19.8-6.2-23.8-15.8l-59.6-10.4-14.8-119.7c-.1-.5-.1-1-.1-1.4 0-6.1 4.9-11 11-11h174.8c6.1 0 11.1 5 11.1 11.1 0 .5 0 1-.1 1.4l-.1.7-15.7 119-59 10.3c-3.9 9.5-13.3 15.8-23.7 15.8zm-81.9-27.5 59.3 10.4.2.4c5 12.4 19.1 18.5 31.5 13.5 6.2-2.5 11-7.3 13.5-13.5l.2-.4.4-.1 58.4-10.2 15.7-118.8c0-.4.1-.7.1-1.1 0-5.2-4.1-9.4-9.2-9.5H159.5c-5.1.2-9.2 4.4-9.2 9.5 0 .3 0 .7.1 1v.2l14.7 118.6z"/><path d="M255.4 306.2c0 4.6-3.7 8.3-8.3 8.3-4.6 0-8.3-3.7-8.3-8.3 0-1.1.2-2.2.6-3.2.9-2 2.5-3.6 4.5-4.5 2-.8 4.3-.8 6.3 0 1 .4 1.9 1 2.7 1.8 1.6 1.6 2.5 3.7 2.5 5.9zm-1-2.3h-5.6l-1.7-5.3-1.7 5.3h-5.6l4.5 3.3-1.7 5.3 4.5-3.3 4.5 3.3-1.7-5.3 4.5-3.3zm-17.5-2.2c.3-.7.6-1.3 1.1-1.9h-9.7c-1.8 0-3.6-.5-5.1-1.6-1.4-1.3-3.2-2.1-5.2-2.3-4.3-.2-5.1.8-5.1.8s2-.4 5.7 1.5c2.4 1.3 2.4 2.7 5.7 4.2 2.9 1.2 12 .9 12 .9.2-.5.4-1 .6-1.6zm20.3 0c-.3-.7-.7-1.3-1.1-1.9h9.7c1.8 0 3.6-.5 5.1-1.6 1.4-1.3 3.2-2.1 5.2-2.3 4.3-.2 5.1.8 5.1.8s-2-.4-5.7 1.5c-2.4 1.3-2.4 2.7-5.7 4.2-2.9 1.2-12 .9-12 .9-.2-.5-.4-1-.6-1.6zm-50-26.5v9.2h5.6c1.6.2 3-.9 3.2-2.5v-.4c0-.9-.4-1.8-1.2-2.3.4-.4.6-.9.6-1.5 0-.9-.4-2.5-2.9-2.5h-5.3zm5.5 1.7c.9 0 1 .4 1 .9s-.1.9-1 .9H209V277l3.7-.1zm.4 3.4c.7 0 1.2.6 1.2 1.2 0 .7-.5 1.2-1.2 1.2H209v-2.5h4.1zm11.6-5.1-4.5 9.2h1.9l1.1-2.3h4.2l1.1 2.3h1.9l-4.6-9.2h-1.1zm.7 2.6c.4.7 1 2 1.3 2.6h-2.6c.3-.6.9-1.9 1.3-2.6zm9.5-2.6v9.2h1.8v-3.7h2.7l2.1 3.7h2s-1.9-3.3-2.2-3.9c1.4-.5 2.2-2 1.7-3.4-.4-1.2-1.6-2-2.9-1.9h-5.2zm5.2 1.7c.8 0 1.2.4 1.2 1.1 0 .4-.1 1-1.3 1h-3.4v-2.1h3.5zm8.6-1.7v9.2h5.6c1.6.2 3-.9 3.2-2.5v-.4c0-.9-.4-1.8-1.2-2.3.4-.4.6-.9.6-1.5 0-.9-.4-2.5-2.9-2.5h-5.3zm5.5 1.7c.9 0 1 .4 1 .9s-.1.9-1 .9h-3.7V277l3.7-.1zm.4 3.4c.7 0 1.2.6 1.2 1.2 0 .7-.5 1.2-1.2 1.2h-4.1v-2.5h4.1zm8.8-5.1v9.2h7.7v-1.7h-5.9v-2.3h3.4v-1.7h-3.4V277h5.6v-1.7l-7.4-.1zm12.6 4.6c-.1 2.5 1.9 4.7 4.4 4.8h.6l.4.9h2s-.5-1.1-.7-1.4c2.4-1.2 3.4-4 2.2-6.4-1.2-2.4-4-3.4-6.4-2.2-1.5.8-2.6 2.5-2.5 4.3zm1.8 0c-.1-1.6 1.2-3 2.8-3 1.6-.1 2.9 1.2 3 2.7v.3c0 1.1-.6 2.2-1.6 2.7-.1-.3-.4-.8-.4-.8h-2l.5 1c-1.4-.1-2.4-1.4-2.3-2.9zm18.7-4.6v5.8c0 1.6-.3 1.9-2.1 1.9s-2.1-.3-2.1-1.9v-5.8h-1.8v6.1c0 2.3 1.1 3.3 3.8 3.3 2.7 0 3.8-1 3.8-3.3v-6.1h-1.6zm7.3 0v9.2h7.7v-1.7h-5.9v-2.3h3.4v-1.7h-3.4V277h5.6v-1.7l-7.4-.1zM189 279.6c.3 0 .6-.2 1-.2.4-.1.8.2.9.7v.1c0 .7-.8 1.2-1.4 1.2-.8.1-1.5-.5-1.6-1.3v-.2c.2-1.7 1.6-3 3.3-2.9.5 0 1.1.1 1.6.1.5.1 1.1.2 1.6.2 1.1 0 2.4-.4 2.4-1.7 0-.4-.1-.7-.6-.7-.6 0-.8.9-1.6.9-.4 0-.8-.3-.8-.7 0-.9 1-1.3 1.8-1.3 1-.1 1.9.6 2 1.6v.1c0 1.1-.6 2.1-1.6 2.7-.9.5-1.9.7-3 .6.2.5.4 1 .4 1.5 0 3.2-3.7 5-6.4 5-2.5 0-5.6-1.1-5.6-3.9.1-1.8 1.1-3.4 2.8-4.1-.1-.3-.1-.5-.1-.8.1-1.8 1.6-3.2 3.3-3.1.6 0 1.8.2 1.8 1 0 .5-.4.8-.9.8-.8 0-.9-.9-1.7-.9-.9.1-1.6.8-1.6 1.6 0 .3.1.6.3.9.2-.1.5-.1.7-.1.5 0 1.1.3 1.1.9-.1.7-.7 1.2-1.3 1.1-.6 0-1.1-.3-1.3-.8-1 .4-1.6 1.3-1.6 2.3 0 2.5 3.4 3.1 5.4 3.1 1.7 0 4.4-.9 4.4-3.1 0-1.1-1.1-1.7-2.2-1.7-.6 0-1.9.2-1.9 1 .1-.1.2.1.4.1zm-8.3-43.8V262h-5v1.1h6v-22.2c-.4-2.4-.8-4.2-1-5.1zm7 9.6c.1-.3.2-1 .4-1.9l-3.6-17.4h-.8c.8 4 3.6 17.6 4 19.3zm26.3 2.5h1.2c.3-2.1 1.1-6.9 1.6-10.1-.3-1.6-.5-3-.6-3.7-.4 2.5-2.1 13.3-2.2 13.8zm-19.4-12.1-5.2 26.2h-2.7c.1.7.2 1.1.2 1.1h3.5s2.6-13.3 4.2-21.1v-6.2zm6 26.2h-5v1h6v-36.8h-1zm99.1-35.8h-1v4.9h-10.5v8.8h1.1v-7.7h10.4zm-2.4 20.7V241h-1v4.9h-8.1V256h1.1v-9.1zm-33.6-9.1c.2-.3.5-1.1 1-2.1v-9.5h-1v11.6zm-24.9-5.9h1.9c.9-.1 1.9.1 2.7.5-.6-1.2-1.8-1.6-3.7-1.6h-1.9v10.6h1v-9.5zm-19.5 22H213c-.1.5-1.1 8-1.1 8h-5.4l-.2 1.1h6.6s1-7.6 1.1-8h5.5c-.1-.6-.1-1-.2-1.1zm58.4-27.7h-1.5l-6.4 12.8c.1.2 7.7 23 7.7 23h-6.3l.3 1.1h6.9s-7.6-22.8-7.7-23l7-13.9zm21.7 35.8h-16.9v1h17.9v-6h-1zm4.9-30.9h5v1h-5zm17.9-4.9v4.9h-6V262h-5.8v1h6.8v-30.8h6v-6zm-56.6 19.2c-.4.7-1.8 3.4-1.9 3.4v13.1h-5.8v1.1h6.8v-13l1.5-2.7-.6-1.9zm-45.1-19.2 6.6 35.8h-5.8l.1 1.1h6.6l-6.8-36.8h-.7zm20.1 20.8c-.7.1-1.7.1-2.7.1V262H232v1.1h6.8v-14.9c.7 0 1.4 0 2-.1-.1-.7-.2-1.1-.2-1.1zm11.3-9.8c0-4.1-1-6.9-3-8.7 1.4 1.8 2 4.3 2 7.6 0 5.8-2.3 8.3-4.3 9.3.1.4 5.3 16.6 5.3 16.6h-6.2c.2.7.3 1.1.3 1.1h6.9l-5.3-16.6c2-1.1 4.3-3.5 4.3-9.3zm-83.7-43.5c0 4.6 3 7.1 5.7 9.3 2.2 1.9 4.2 3.4 4.2 5.9 0 1.5-.9 2.3-2.6 2.3-1.5 0-2.4-1.5-2.6-4v-.3l-5.2.7v.3c.2 4 2.6 8.1 7.6 8.1s8-2.9 8-7.5c0-4.4-3.1-7.1-5.9-9.4-2.1-1.8-4-3.4-4-5.4 0-1.1.4-2.5 2.1-2.5.6 0 2.1.3 2.3 2.9v.3l5.2-.6v-.3c-.5-4.4-3.2-7.1-7-7.1-5-.1-7.8 2.6-7.8 7.3zm18.2.2v14.6c0 3.6 2 7.5 7.7 7.5s7.7-3.9 7.7-7.5v-14.6c0-3.6-2-7.5-7.7-7.5s-7.7 3.8-7.7 7.5zm5.4 14.4V194c0-2.1.6-2.9 2.3-2.9s2.3.7 2.3 2.9v14.4c0 2.1-.6 2.9-2.3 2.9-1.7-.1-2.3-.9-2.3-3zm24.2-21.6v21.7c0 1.9-.7 2.8-2.3 2.8s-2.3-.9-2.3-2.8v-21.7H206v21.5c0 4.9 2.9 7.8 7.7 7.8s7.7-2.9 7.7-7.8v-21.5H216zm8.5 0v4.8h4.7v24.1h5.4v-24.1h4.7v-4.8h-14.8zm28 0v11.5h-4.6v-11.5h-5.4v28.9h5.4V203h4.6v12.6h5.4v-28.9h-5.4zm8.8 7c0 4.6 3 7.1 5.7 9.3 2.2 1.9 4.2 3.4 4.2 5.9 0 1.5-.9 2.3-2.6 2.3s-2.4-1.5-2.6-4v-.3l-5.2.7v.3c.2 4 2.6 8.1 7.6 8.1s8-2.9 8-7.5c0-4.4-3.1-7.1-5.9-9.4-2.1-1.8-4-3.4-4-5.4 0-1.1.4-2.5 2.1-2.5.6 0 2.1.3 2.3 2.9v.3l5.2-.6v-.3c-.5-4.4-3.2-7.1-7-7.1-5-.1-7.8 2.6-7.8 7.3zm18.8-7v28.9h5.4v-28.9h-5.4zm30.6 0v28.9h14.1v-4.8h-8.7v-7.7h6.3v-4.8h-6.3v-6.7h8.2v-4.8l-13.6-.1z"/><path d="M191 224.2s-3.8 18.3-4.2 20.3c-.4-2-4.2-20.3-4.2-20.3h-8.7V261h6v-26.2c.8 4 5.2 26.2 5.2 26.2h3.5s4.4-22.2 5.2-26.2V261h6v-36.8H191zm20.1 0-6.8 36.8h6.6s1-7.6 1.1-8h6.3l1.1 8h6.6l-6.8-36.8h-8.1zm4.1 9c.4 2.4 2.1 13.2 2.2 13.7h-4.3c0-.5 1.8-11.3 2.1-13.7zm14.9-9V261h6.8v-14.9c1 0 2-.1 2.7-.1l4.4 15h6.9l-5.3-16.6c2-1 4.3-3.4 4.3-9.3 0-7.6-3.3-11-10.8-11h-9zm8.7 5.6c3.3 0 4.3 1.2 4.3 5.3s-1 5.3-4.3 5.3h-1.9v-10.6h1.9zm30.1-5.6-6.2 12.6v-12.6h-6.8V261h6.8v-13.1l1.9-3.4 5 16.5h6.9s-7.6-22.8-7.6-23l6.9-13.8h-6.9zm11.6 0V261h17.9v-6h-11.2v-10.1h8v-6h-8v-8.8h10.4v-6l-17.1.1zm21.9 0v6h6V261h6.9v-30.8h6v-6h-18.9zm-53.6-35.5h1v10.5h-1zM175.9 205c.7.6 1.3 1.1 1.9 1.6-.9-1-1.8-1.9-2.9-2.7-.7-.6-1.5-1.3-2.2-2 .9 1.2 2 2.2 3.2 3.1zm18.1 7c-.2-.5-.2-1.1-.2-1.7V196c0-2.1.6-2.9 2.3-2.9.4 0 .7 0 1.1.1-.3-.9-.9-1.2-2.1-1.2-1.7 0-2.3.7-2.3 2.9v14.4c0 1.6.3 2.4 1.2 2.7zm-16.5-18.8c.3 0 .6.1.9.2-.3-.8-1.1-1.3-1.9-1.3-1.8 0-2.1 1.4-2.1 2.5 0 1.4.9 2.6 2.2 3.8-.7-.7-1.1-1.7-1.2-2.7-.1-1.2.3-2.5 2.1-2.5zm6.5 1.2v.3l-4.4.5c.1.3.1.6.1.9v.3l5.2-.6v-.3c-.1-2.2-1.1-4.2-2.7-5.6 1 1.3 1.6 2.9 1.8 4.5zm84.6 17.5c-.4-.9-.7-1.8-.7-2.7v-.3l-.9.1c.3 1.5.8 2.5 1.6 2.9zm57.7-23.2h-1v3.8h-8.2v6.7h1v-5.6h8.2zM268.9 205c.7.6 1.3 1.1 1.9 1.6-.9-1-1.8-1.9-2.9-2.7-.7-.6-1.5-1.3-2.2-2 1 1.2 2.1 2.2 3.2 3.1zm55.5.1v-4.8h-1v3.7h-6.3v7.8h1v-6.7zm-25.8-11.8h1.4c.6 0 1.3.1 1.9.3-.4-1-1.3-1.4-2.9-1.4h-1.4V212h1v-18.7zm-21.5 1.1v.3l-4.4.5c.1.3.1.6.1.9v.3l5.2-.6v-.3c-.1-2.2-1.1-4.2-2.7-5.6 1 1.3 1.6 2.9 1.8 4.5zm-6.5-1.2c.3 0 .6 0 .9.2-.3-.8-1.1-1.2-1.9-1.2-1.4 0-2.1.9-2.1 2.5 0 1.4.9 2.6 2.2 3.8-.7-.7-1.1-1.7-1.2-2.7-.1-1.7.7-2.6 2.1-2.6zm-58.2-4.5v20.6c0 1.5.4 2.3 1.3 2.6-.2-.5-.3-1-.2-1.6v-21.7h-1.1z"/><path d="M274.7 203.1c1.7 1.7 2.6 4 2.6 6.4 0 4.7-3.1 7.5-8 7.5-1.7 0-3.4-.5-4.7-1.7 1.4 1.8 3.5 2.8 5.7 2.7 4.9 0 8-2.9 8-7.5 0-3.2-1.7-5.5-3.6-7.4zm11.8 13.5h-4.4v1h5.4v-28.9h-1zm-27.6 0h-4.5v1h5.5v-28.9h-1zm47.1-26.2c1.1 1.5 1.6 3.5 1.6 6.2v11.2c0 5.9-2.7 8.8-8 8.8h-6.5v1h7.5c5.3 0 8-3 8-8.8v-11.2c.1-3.4-.8-5.8-2.6-7.2zm19.8 22.4v3.8h-13.1v1h14.1v-4.8zm-150.2-.9c-.4-.9-.7-1.8-.7-2.7v-.3l-.9.1c.2 1.5.8 2.5 1.6 2.9zm77.8-7.9h-4.6v12.6h-4.4v1h5.4v-12.5h3.6zm-13.1-11.5h-4.7v24.1h-4.4v1h5.4v-24h4.7v-4.9h-1z"/><path d="M181.6 203.1c1.7 1.7 2.6 4 2.6 6.4 0 4.7-3.1 7.5-8 7.5-1.7 0-3.4-.5-4.7-1.6 1.4 1.8 3.5 2.8 5.7 2.7 4.9 0 8-2.9 8-7.5 0-3.3-1.6-5.6-3.6-7.5zm19.7-13.1c1 1.4 1.5 3.1 1.5 4.8v14.6c0 3.6-2 7.5-7.7 7.5-1.9.1-3.8-.5-5.2-1.7 1.2 1.6 3.2 2.7 6.2 2.7 5.7 0 7.7-3.9 7.7-7.5v-14.6c.1-2.1-.8-4.3-2.5-5.8zm21.1 19.2c0 4.9-2.9 7.8-7.7 7.8-1.9.1-3.7-.5-5.2-1.7 1.3 1.7 3.4 2.7 6.2 2.7 4.9 0 7.7-2.9 7.7-7.8v-21.5h-1v20.5zm4.1-16.7h3.7v1h-3.7zm64.7-5.8v28.9h7.5c5.3 0 8-3 8-8.8v-11.3c0-5.9-2.7-8.8-8-8.8h-7.5zm6.9 4.6c2.5 0 3.2.9 3.2 3.7v12.4c0 2.8-.7 3.7-3.2 3.7h-1.4v-19.7l1.4-.1zm54.7-23.7v.8h-1.1v3.8h-.9v-3.8h-1v-.8h3zm.4 4.5v-4.5h1.4l.7 3.1.7-3.1h1.4v4.5h-.9v-3.5l-.8 3.5h-.9l-.8-3.5v3.5h-.8z"/><path d="M159.8 165c-9.4 0-17.1 7.7-17.1 17.1v.1l.1 2.1v.1c.1.8 15.5 121.2 15.7 122.4l.2 1.3 1.3.2c2.2.4 51.4 9.1 59.6 10.4 8.4 15.3 27.6 20.8 42.9 12.4 5.2-2.9 9.5-7.2 12.4-12.4 8.1-1.3 56.7-10 58.9-10.4l1.3-.2 16.5-123.6.2-2.2v-.1c0-9.5-7.6-17.1-17.1-17.2H159.8zm0 3.6h174.8c7.5 0 13.5 6 13.5 13.5 0 .2-.1 1.9-.1 1.9s-14.4 108-16.2 121c-8.2 1.5-54 9.6-58.3 10.3l-.9.1-.4.8c-7.1 13.8-24.1 19.2-37.9 12-5.2-2.7-9.4-6.9-12-12l-.4-.8-.9-.1c-4.3-.6-50.7-8.8-59-10.3-13.9-108.8-15.3-119.9-15.5-121.1 0-.1-.1-1.7-.1-1.8 0-7.4 6-13.4 13.4-13.5z"/><path d="M296.3 321.1h1.7v8.7h-1.7v-8.7zm14.7 4.5c.3.4.4.9.4 1.3 0 .7-.2 1.4-.8 2-2.1 1.4-4.8 1.4-6.9 0-.5-.5-.8-1.2-.8-2 0-.5.1-1 .4-1.3.3-.3.6-.6 1-.8-.5-.3-.9-.9-.9-1.6 0-.6.2-1.2.7-1.5.9-.6 1.9-.9 3-.9s2.1.3 3 .9c.5.4.7.9.7 1.5s-.3 1.2-.9 1.6c.5.2.9.5 1.1.8zm-5.8.5c-.3.2-.5.5-.4.8 0 .3.2.7.4.9.6.4 1.3.5 2.1.5.7 0 1.4-.1 2-.5.3-.2.4-.5.4-.9 0-.3-.2-.6-.4-.8-1.4-.5-2.8-.5-4.1 0zm.4-3.2c-.2.1-.3.3-.3.5s.1.4.3.6c1 .4 2.2.4 3.2 0 .3-.2.4-.6.2-.9 0-.1-.1-.2-.2-.2-1-.5-2.2-.5-3.2 0zm16.9 2.7c.3.4.4.9.4 1.3 0 .7-.2 1.4-.8 2-2.1 1.4-4.8 1.4-6.9 0-.5-.5-.8-1.2-.8-2 0-.5.1-1 .4-1.3.3-.3.6-.6 1-.8-.5-.3-.9-.9-.9-1.6 0-.6.3-1.2.7-1.5.9-.6 1.9-.9 3-.9s2.1.3 3 .9c.5.4.7.9.7 1.5s-.3 1.2-.9 1.6c.5.2.9.5 1.1.8zm-5.8.5c-.3.2-.5.5-.4.8 0 .3.2.7.4.9.6.4 1.3.5 2.1.5.7 0 1.4-.1 2-.5.3-.2.4-.5.4-.9 0-.3-.2-.6-.4-.8-1.4-.5-2.8-.5-4.1 0zm.4-3.2c-.2.1-.3.3-.3.5s.1.4.3.6c1 .4 2.2.4 3.2 0 .2-.1.3-.3.3-.6 0-.2-.1-.4-.3-.5-1-.5-2.2-.5-3.2 0zm9.4 6.9v-.3c0-.3-.1-.9-.1-1.2-.1-.8.2-1.6.8-2.3.7-.6 1.5-1.1 2.4-1.3l.7-.2c.4-.1.7-.2 1.1-.4.2-.1.6-.3.6-.7 0-.3-.2-.5-.5-.6-.3-.1-.7-.2-1-.2-.6 0-1.2.1-1.7.4-.5.3-1 .6-1.5 1l-1-1.3c.5-.4 1.1-.8 1.7-1.1.7-.4 1.6-.6 2.4-.5.9 0 1.7.2 2.5.6.6.4 1 1.2 1 1.9 0 .6-.2 1.1-.6 1.5-.5.4-1.1.7-1.6.9l-1 .3c-.7.2-1.4.5-2.1.9-.2.2-.4.5-.4.9v.3h5.8v1.7h-7.5zm-165-8.7h7v1.7h-5.3v1.6h3.2v1.7h-3.2v2.2h5.6v1.7h-7.3v-8.9zm16.7 2.5c-.5-.3-1-.6-1.5-.8-.6-.2-1.2-.3-1.8-.3-.4 0-.8.1-1.2.2-.3.1-.5.4-.5.7 0 .3.2.5.5.6.5.1.9.2 1.4.2l1.2.1c.9 0 1.7.3 2.4.9.5.4.9 1.1.9 1.8 0 .8-.4 1.6-1 2.1-.9.6-1.9.9-3 .9-.9 0-1.7-.1-2.6-.4-.7-.2-1.3-.6-1.9-1.1l1-1.5c.5.4 1 .7 1.6 1 .6.2 1.3.4 1.9.3.5 0 1-.1 1.5-.3.4-.2.6-.5.6-1 0-.4-.3-.8-.7-.9-.4-.1-.8-.2-1.3-.2l-1.3-.1c-.9 0-1.8-.3-2.5-.9-.4-.4-.5-.9-.5-1.4 0-.8.3-1.5.9-2 .8-.6 1.7-.8 2.7-.8.8 0 1.6.1 2.4.4.6.2 1.2.5 1.7.9l-.9 1.6zm8 6.2h-1.7v-7h-3.3v-1.7h8.4v1.7h-3.3l-.1 7zm4.7-.9c0-.5.4-1 .9-1 .6.1 1 .6.9 1.1 0 .5-.4.9-.9.9-.5.1-1-.4-.9-1z"/></svg>