<svg xmlns="http://www.w3.org/2000/svg" viewBox="0 0 500 500" style="enable-background:new 0 0 500 500" xml:space="preserve"><path d="M426.5 240.2s2.3-.5.7-4.2c0 0 .5-2-1-2.5 0 0-.1-1.6-1.2-1.7l-.7-.8s-.2-.9-1.1-.9c-.9 0-1.5.4-1.5.4s-1 .1-1.4-.2c-.5-.3-1.5-1-2-1-.4 0-1.9.6-2.1.3-.2-.3-.6-1-1.5-1.2-.9-.1-1.7.5-1.9.5-.2-.1-1-1-1.6-1.1-.6-.1-3.9.2-4.3.1-.5-.1-.9-.5-1.9-.4 0 0-1-.7-1.5-.9-.5-.2-2.3-.3-3-.2-.7.1-2.1.6-2.5 1.1-.4.5-.8 1.3-1.7 1.4-.9.2-1.4-.2-1.9-.1s-1.4.6-1.4.6-.8-.3-1.4.2c-.5.5-.8 1.6-1.5 2.1s-2.1.6-2.7 1.4c-.6.8-1.3 2.3-1.3 2.3s-.8.5-1.3 1.7c-.4 1.2-1 3.1-.8 4.8 0 0-.5 3.2 1.4 3.8-.3 1.3-.5 2.6-.5 3.9-.8.9-7.4 8.1-15.6 8.1-8.8 0-11-6.1-10.4-10.7.6-4.5 3.9-6.5 6.6-6.3 2.8.2 2.7 2.4 2.7 3.4 0 .9-1.2 2.2-3.8 1.4 0 0 0 5.5 6.3 5.5s8.2-4.8 7.9-6.8c0 0 .9 0 1.1-.3.2-.3.4-.9.7-.7s1 .5 1.4-.1 1.4-2.2 1.6-5.3c.2-3.1-.8-4.4-1.2-4.5-.4-.1-.8-.3-1.9-1.3-1.1-1-1.4-1.3-1.5-1.6-.2-.4-.9-1.1-2.7-1.3 0 0-.3-1.4-1.4-2s-1.5-.5-2-.8c-.5-.3-1.1-.5-1.6-.4-.5 0-1.3.2-1.5.5-.2.4-.5.7-1 .5-.5-.2-.9-.9-1.7-1.1-.7-.2-1.7-.2-2 0s-.8.4-1.2.1-.7-.4-1.3-.4c-.5 0-1.2.9-1.6.7-.4-.2-.5-.7-1-.7s-.7.5-1.1.5c-.4-.1-1.1-.3-1.4-.1-.4.2-.7.6-1 .8-.3.2-.9.3-1.4.5-.5.3-1.1.7-1.4 1-.3.3-.6.4-1 .4s-1 .3-1.2.6c-.2.4-.8.7-.9.9-.1.2-.5.7-.5 1.4s-.5 1.2-.8 1.3c-.4.1-1 0-1.4.5-.4.5 0 1.6-.4 2.1s-1 1.7-1.3 2.3c-.3.6-.5 1.8-.5 2.3 0 .5-.4 1.7-.2 2.3.2.5.5 1.6.3 2.2s-.8 2-.7 3c.1 1-.1 2.7 2.3 3.2 0 0-.5 5.1-3.4 5.1s-2.9-2.6-2.9-2.6V242s2.3-.3 2.7-1.7.4-3.4 0-4.2c-.3-.6-.6-1.4-.5-1.6s.6-1.4.5-1.9c-.1-.5-.8-.9-.8-.9s0-1.8-1.7-2.5c-1.6-.7-2.6.2-3.2.2-.5 0-.8-.5-1.5-.4-.7.1-1.5.2-1.9 0s-1.9-.9-2.7-.8c-.8.1-1.9.5-2.3.7s-.5.3-1.3.3-1.5.5-1.9.8c-.4.4-.7 1.2-.5 1.9s0 1.2-.3 1.4c-.3.3-.5 1.5-.4 2.3v5.5s.2 2.4 2.6 2.2v9.1s0 3.8-3.2 3.8-3.2-3.7-3.2-3.7v-9.6s1.2-1.9 1.2-2.4-.4-1.3-.4-1.3.4-1.6.3-2.2c0-.5-.7-1-.7-1.5s-.3-1.8-1-2.2c-.6-.4-1.6-.5-2.2-.5-.5-.1-1.3-.6-1.5-1-.3-.4-.8-.9-1.4-.9s-1.8.3-2.3 0c-.5-.3-2.2-.6-2.7-.7-.5-.1-1.7.1-2.5.6 0 0-1.6 0-2.4.1-.8.1-1.1.4-1.4.5s-.7-.4-.9-.6c-.2-.2-.9-.5-1.5-.4-.6.1-1.4 1-1.4 1s-.8-.1-1.7.6v-1.7s2.3-1.5 2.6-2.3c.3-.7-.1-1.4.1-2.3.2-1 .2-2.1-.4-2.8 0 0-.2-1.2-.6-1.7-.5-.5-1.4-.8-1.6-1-.3-.1-.7-.5-1.3-.6-.5 0-1.4.1-1.4.1s-.9.2-1.5.1c-.5-.1-1.3-.5-1.7-.5-.5 0-1.2.3-1.9.2-.7-.1-1.6-.3-2.1-.3s-1.4.3-2.3 1.3c-.8 1-1.3 2.4-.6 3.2 0 0-.7 1.8-.6 3.5.1 1.7.7 2.5 2.5 3v38h13.2v-22.6s-.1-3.5 3.5-3.5c3.7 0 3.5 3.3 3.5 3.3V260s.4 8.6 9.9 8.6c7.8 0 10.5-5.9 10.5-5.9s2 5.9 10.7 5.9c8.8 0 12.4-7 12.4-7s3.2 7.3 14.8 7.3c8.8 0 17-6.4 20.5-9.6 3.2 5.5 9.1 9.2 15.9 9.2 10.1 0 18.4-8.2 18.4-18.4 0-1.2-.1-2.3-.4-3.4l6.5-2.3-.9-4.2zm-129-12.9c-.5-.8-.9-1.1-1.4-1.1-.5 0-.6.4-1.1 1.1-.4.6-.5 1.4-1.1 1.6-.5.2-.8-.2-1.3-.5-.5-.4-.7-.6-.8-1-.1-.4.4-1.2.5-1.7.2-.5-.1-.8-.5-1.2-.5-.4-1.1-.4-1.4-.1-.4.4-.5 1.3-.7 1.5-.2.3 0 1.2 0 1.8 0 .6-.7.8-1.1.8-.4 0-.7-.1-.9-.4-.1-.3-.2-.9-.1-1.5s.2-1.1.5-1.5c.3-.5.5-.9.5-.9.2-.4-.3-1-.4-1.3-.2-.3 0-.4.2-.5.2-.2.3-.5.5-.6.2-.2.8.1 1.2.2s.7.3 1.2.3c.5.1.9-.2 1.4-.3.5-.2 1 .1 1.4.2.4.1 1 .4 1.8.4.7-.1.9-.4 1.3-.4.4-.1.5.3.9.5.5.2.9.5 1 .7.1.4.5.8.5 1.1.2.3.3.6-.1 1.2s0 1.9 0 2.2c0 .3-.7.7-1.1.8-.4-.1-.5-.7-.9-1.4zm22.9 13.8c-.3.2-.1.7-.5.9s-.5-.3-.6-.6-.5-.7-.5-.7.3-1.6-1.3-1.6-1.2 2.3-1.2 2.3.2.5-.5.5-1-.5-1.1-.8c-.2-.2-.8-.2-.8-.2v-1.4s-.1-2-1.4-2c-1.4 0-1.4 1.7-1.5 2-.2.3-.7-.6-.7-.6s-.2-.9-.4-1.4c-.3-.5-.9-.7-1.4-.8-.4-.1-1.1.2-1.3.8-.3.6 0 1.4-.2 1.6-.1.3-.8.3-1 0-.1-.2-.8-.4-.8-.4s.1-.6-.4-1.1c-.4-.4-1.2-.3-1.2-.3s-.8-.4-1.2.1c-.5.5-.8.2-1.5 0-.6-.3-1 0-1.4.3-.4.3-.6 1-1.1 1.1-.4.1-.3-1-.1-1.7.3-.7.9-1.9 1.2-2.1.4-.2.5-.9.5-.9 1.4.2 2.1-1 2.1-1 .1.5 1.4 1.7 2.2 1.7.8 0 1.2-1.3 1.2-1.3s1-.1 1.9-.1c1 0 1.3 0 1.6-.2.3-.2 1.1-.5 1.4-.5s1.2.4 1.5.5c.4.2 1.4.4 1.9.3.5-.1 1.3 0 1.6.2s1.6 1.4 2 1.6c.4.2.9.2 1.4.2.5 0 .5.6.6 1.1.1.5.5 1.1.6 1.5.1.5 0 .9-.1 1.3s0 .8.1 1c.6 0 .7.5.4.7zm20-.6c-.5-.1-.6-.7-.7-1.1-.1-.4-.1-1.7-.2-2.3-.1-.5-.2-1.6-1.3-1.7-1.1-.1-1.4.8-1.4 1.1 0 .3.2 1.2.4 1.5.3.4.3 1.3.2 1.5-.1.3-1.1 1-1.3 1.2-.2.3-.5.4-.7.1-.2-.2-.6-.2-.6-.2s0-1.7-.2-3c-.2-1.4-.5-1.8-1.9-1.8s-2.1 1.4-2.1 1.4v2.2c0 .6-.5.7-.9.8-.4.2-.8.8-1 1.2-.2.4-.7.2-.9-.2-.2-.3-.1-2.3-.2-3.4-.1-1.2.2-2.6.2-3.2s.5-1 .7-1.3c.2-.3.2-.6-.1-1-.2-.3-.2-.6-.2-.6.1-.3 1.6-.3 2.3-.5.7-.3.9-.5 1.3-.7s.7 0 1.2.3 1.1.4 1.6.5c.5.2 1.8 0 2.3 0s.7.3 1.4.4c.7.1 1.5-.5 1.9-.5.4-.1.8.4.8.7-.1.4.2.9.4 1.2.2.3.1.5-.2.9-.3.4-.2.6-.2 1.1 0 .5.2.6.5.9.4.3.4.8.5 1.4 0 .6-.1 1.7-.1 2.3-.2.6-1.1.8-1.5.8zm17.1-2.4c-.5.1-1-.3-1.5-.4-.5-.1-1.2-.3-1.7.4-.5.5 0 1.4.1 1.7.1.3.3.9-.2.9s-.9-.8-1.4-.8c-.5 0-1.4.2-1.7.7s-.3 1.4 0 1.6l.6.6s.1.8-.3 1.4c-.4.6-.5 1-.9 1.2-.4.2-.6-.1-1.1.5-.5.5-.2.6-.2 1.1s0 1-.3 1.3c-.4.3-.7.6-1.1.6-.4 0-.5-.3-.5-.9 0-.6.2-1.3.4-1.5.2-.3.5-1.4.4-2.1-.2-.7-.6-1.7-.3-3.4s.4-2 .4-2 1.2-1.4 1.4-2.1c.2-.7.3-1.4.3-1.4s1.8-1.2 2-1.5c.2-.4-.1-1.5.3-1.7s.6 0 .8-.4c.3-.4.5-.6.7-.7.3-.1 1.2-.3 2-.9.8-.6.9-.8 1.4-1 .5-.2.8-.5 1.1-.6s.5.1.8 0c.4 0 .6-.4.9-.2.3.1.7.6 1.4.4.6-.2.9-.9 1.5-.7.6.1.6.4 1.4.3.8-.1 1.4-.5 1.8-.3.5.2 1.4 1 1.8 1.2s1.7.1 2.3-.3c.5-.4.9-.9 1.4-.8.5.1.8.5 1.2.6.4.1 1.1.5 1.1.5s0 1.1.9 1.6 1.5.5 1.8.6c.4 0 .4.1.5.5.1.3.9 1.1 1.4 1.4.5.4 1.1 1 1.4 1.3.4.3 1.3.4 1.4 1.4v2.7s-.4.9-.4 1.3.1.8-.3.9c-.4.1-.5 0-.6.2-.1.1-.5.3-.5.1-.1-.2.1-.5-.2-.9-.3-.4-.5-.4-.5-.6 0-.3.1-.6 0-1s-.5-.8-.7-.9c-.3-.1-.6-.4-.9-.3-.4 0-.8.1-1.4.2-.5 0-.9.2-1 0s-.4-.5-.6-.8c-.3-.3-.8-.6-.9-.8-.1-.3-.2-.8-.7-.7-.5 0-.9.1-1.1.4-.1.3-.5.7-.5.7s-.3-1.4-1.4-1.7c-1-.4-2-.5-2.3-.1s-.6.5-.8.5c-.3 0-.5-.2-.7 0-.3.2-.3.6-.7.5-.4-.1-.8-.7-1.4-.7-.5 0-.8.5-1.2.4-.4 0-.6-1.8-1.7-1.7-1.1 0-1.6 1.4-1.6 1.4s-.8.8-.9 1.4c0 .5-.3 1.3-.7 1.4zm46.9 18.1c-3.8 0-7-3.1-7-7 0-2.9 1.8-5.3 4.2-6.4v.6c0 4.3 3.5 7.9 7.9 7.9.5 0 1-.1 1.5-.2-.7 2.9-3.4 5.1-6.6 5.1zm4.9-9.7c-1.5 0-2.7-1.2-2.7-2.7 0-1.5 1.2-2.7 2.7-2.7 1.5 0 2.7 1.2 2.7 2.7 0 1.5-1.3 2.7-2.7 2.7zm16.2-7.9c-.3.2-1 .1-1.2-.1-.2-.2-.7-.8-1-.8-.3 0-1.2 0-1.8-.1-.5-.1-1-.5-1.2-.7-.2-.3-.5-.5-1.1-.5-.5.1-1 .1-1.4.4-.4.3-.5.5-.6.9-.1.3.1.8-.4.7-.5-.1-.8-.5-1-.9-.2-.3-.5-.6-1.1-.9-.5-.2-1.3-.1-1.7-.3-.4-.2-.7-.5-1.3-.5-.5 0-.7-.1-1.2.3s-.3.5-.7.7c-.5.2-.5.4-.8 0-.2-.4-.5-.3-.7-.7-.2-.5-.5-.8-.8-1.1-.4-.2-.5-.4-1-.4s-1.2.2-1.4.5c-.2.3-.7.5-1 .8-.3.3-.6.8-.7.3-.1-.5 0-1.1-.1-1.4-.1-.4-.5-1.5-1.4-1.5s-1.5 1-1.7 1.4c-.1.5-.1 1 0 1.4.1.3.3.7 0 1-.3.2-.6.6-.8.8-.2.2-.7.3-.8-.2v-1.8c0-.3-.4-1-.5-1.2-.2-.2-.3-.5-.8-.5s-1.3.4-1.4.5c-.2.2-.4.5-.2.9s.4.5.4.8c0 .3 0 .5-.2.9s-.2.7-.4.6c-.2-.1-.7-.6-1-.9-.2-.3-.5-.6-.9-.9-.4-.3-.7-.6-1.2-.5-.5.2-.8.6-.8 1s-.1 1.2-.1 1.6c0 .5-.1 1.2-.3 1.5-.2.4-.5.1-1 .3-.5.2-.5.7-.9.8s-1 0-1.4.2c-.4.3-.8.3-.9.8-.1.5-.1 1.8-.5 1.4 0 0-.4-.9 0-2.5s.4-2.8.8-3.2c.5-.3.9-.5.9-.9s.5-1.4.7-1.7c.2-.2.5-.5.8-.5s1.4-.1 1.9-.8c.5-.6 1.2-1.2 1.3-1.4 0-.3 0-.5.4-.5s.6.1.9-.1c.2-.2.4-.5.6-.4.3.1 1 .5 1.5.3.5-.3 1.3-.5 1.9-.7.6-.3 1.1-.6 1.3-.9.2-.3.2-.6.5-.8s.7-.2 1.3-.2c.5 0 .7-.1 1.3 0 .5.1.6-.1.8.3.2.4.5.6.7.7.3 0 .9-.2 1.2 0s.8.5 1.4.4c.5-.1 1.7 0 2.3-.1.5-.1 1-.2 1.5-.1s.8.4.9.7c.1.4.6.5 1 .6.3 0 .9 0 1.3-.3.3-.2.5-.5.8-.3.3.2.4.6.7.8s1.4.3 2 .2c.6-.1 1.1-.3 1.4 0 .3.3 1 .4 1.4.7s.6.4 1 .4.9.1 1.3-.1c.3-.2.4-.3.8-.1.5.2.6.6 1 .9s.3.5.5.9.4.6.6.8c.3.1.4.4.4.9s.3 1.2.4 1.4c-.3.1-.3.7-.5 1z"/><path d="M271.2 247.8c0-23.8 20.6-30.8 20.6-30.8 17.9 6.6 27.4-3.5 27.4-3.5l-.5-.2s1.1-2.7 1.1-3.9c0-1.2-.9-2-1.3-2.4-.5-.5-.5-2.2-1.6-2.7s-2.3-.2-3.1.2c-.8.4-1.6.3-1.6.3s-1.4-1-2.1-1.1c-.6-.1-2.8.1-4.1.3-1.3.2-2.1-.5-2.1-.5-1.3-1.1-3.1-1-3.1-1-1-1.2-2.5-1.5-3.3-1.4-.7.2-2.2.5-3.1.5-.9 0-3.2-.8-5.4-.9-2.3-.1-3.3 2.5-3.3 2.5-1.3-.2-3.2 1.5-3.2 1.5-1.2-.5-3.2.2-3.2.2-5.7.2-6 6.4-6 6.4s-2.8-.3-3.3-.1c-.5.2-2.7 2.1-2.7 2.1-3.3 1.3-3 4.6-3 4.6-1.4.1-2.7.9-4.5 2.6-1.8 1.7-2.3 4.1-2.3 4.1-1.9.6-4 4.2-4 4.2s-1-.5-2-.6c-.9-.1-3.1 1.6-3.1 1.6s-2.5-.9-3.9-1.1c-1.3-.2-3.7 1.3-3.7 1.3s-2.3-1.8-3.4-2.2-5.7-.4-5.7-.4-.9-.4-3.1-.4-3.9 1-4.3 1.3c-.5.2-2.4.2-4.2.5-1.8.4-4.2 2.7-4.6 3.1-.5.3-1.5.5-2.1 1.2-.5.7-1.7 1.4-2.3 2.2-.6.7-1.2.2-1.2.2-.1-1.1-1.3-1.4-2-1.6-.8-.3-1.1-.5-1.3-1.5-.2-1-.9-1.3-.9-1.3-1.6-2.1-4.2-.8-4.6-.9-.4-.1-.8-1.5-1.5-1.9-.7-.4-2.8.5-3.5 1-.6.5-3.3-1-4.1-1.2s-2.3 1.3-2.4 1.6c-.2.4-2.5 0-2.5 0l-1.2-.5c-1.2-.5-2.2-.7-2.6-.5-.5.2-2.8 1.2-3.8 1.5-.9.4-1.4.1-2.7-.3-1.3-.4-3.2.1-3.3 1s-1.6 2-1.6 2c-2.1 2-3.2.5-3.2.5-1.4-1.9-3.9-2.6-3.9-2.6-.5-2.9-4.9-2-4.9-2-.6-.6-2.5.2-2.5.2s-2.7-.5-4.3-1.2c-1.6-.6-3.8 0-4.3.5s-3.6 2.2-3.6 2.2-4.6-.9-8.8 3.1c-4.2 4-3.2 8.9-3.5 10.5-.3 1.5-2.9 4.2-2.9 4.2l-.8-3.3c1.6-.4 1.7-2.7 1.6-3.9-.2-1.1.2-3.2.2-5.1s-1.4-4.5-1.4-4.5c.2-1.4-.5-2.5-1.8-3.2-1.3-.6-3.5.1-3.5.1-1.1-2.2-2.8-1.8-2.8-1.8-1.3-.7-2.8.8-2.8.8-1.5-1.8-3.1-1.6-3.1-1.6-2.2-.7-3 1.3-3 1.3-1.6 1.1-.3 2.7-.2 3.3.1.6-.9 1.9-.9 2.5 0 .6 1.2 2.7 1.2 2.7s-2.2 2.1-.6 3.5c1.5 1.4.9 2.8 1.1 4.3.2 1.5 2.7 2.7 2.7 2.7 7 31.8-6.8 41.4-6.8 41.4l12.3 12.6s16.4-10.7 10.9-40.8l1.8-.3h.1c3.1 6 9.3 10 16.4 10 10.2 0 18.5-8.3 18.5-18.5 0-1.1-.1-2.2-.3-3.3l2.3-2v42.1l14.4-5.2V267c2.1.9 4.4 1.4 6.9 1.4 9.3 0 16.9-7.6 16.9-16.9v-.9l3.2-.6v.9c0 10.2 8.3 18.5 18.5 18.5s18.5-8.3 18.5-18.5c0-1.8-.3-3.5-.7-5.1l3.6-.6s-1.4 12.9 4.7 23.5c6.1 10.7 20.3 25.6 41.3 25.3 21-.3 29.4-11.8 29.4-11.8 6.9-7.2.9-16.1.9-16.1-22.7 28.6-57.5 6.9-57.5-18.3zm7.5-40.9c.6-.3 1.2-.1 1.8-.5s1.9 0 2.7 0c.7 0 .9-.5 1.4-1 .5-.5 1.3-.6 2-.9.7-.3 1-1 1.2-1.4.2-.5.5-.4 1.1-.6.6-.3 1.6 0 2.4.2.8.2 2.6.5 3.6.6s2.2-.3 3-.4c.8 0 1.2.5 1.5.9.4.4.7.5 1.4.5.6-.1.8 0 1.3.5s1.3.5 2.6.8 4.2-.2 4.8-.2c.5 0 1 .4 1.4.7.3.4 1.1.5 1.6.5s1.5-.3 1.8-.5.8-.3 1.4-.2c.5.1.3.7.5 1.4.1.5 1.3 1.5 1.3 1.5v.9c0 .7-.6 2.1-.6 2.1-17.7-14.4-40.7-1.7-40.7-1.7-.1-2.3 1.8-2.9 2.5-3.2zm-149.6 31.5c0 .5 0 1-.1 1.5s-.1 1.4-.1 1.4-.4-.6-.8-.9c-.5-.3-.9-.3-1.1-.5s-.5-.5-.5-1 .1-.6-.1-1.1c-.2-.5-.5-.6-.7-1.1-.2-.5-.5-1-.9-1.2s-.9-.5-1.3-.2-1 .8-.9 1.5.1 1.1.4 1.4 0 .7-.3.8-.7.2-.9.3c-.2.1-.7.4-1 .2-.3-.1-.6 0-.7-.9 0-.8-.1-1.4-.3-2-.2-.5-.4-.8-.6-1-.3-.2-.6-.6-1-.5-.5.1-1 .5-1.1.8-.1.4-.2 1.2-.3 1.4-.1.4-.1.9.1 1.4.2.5.5 1.3.6 1.7.2.5.5.9.3 1.4-.2.5 0 1.4-.6 1.4 0 0-1.4-.7-1.5-1-.1-.3-.2-1.4-.1-1.7 0-.4-.1-1.6-.3-2-.2-.4-.5-.8-.6-1.2-.3-.4-.6-.5-.4-.8.3-.3 1-1.4.9-1.8s-.1-1.1-.3-1.5c-.2-.5-.5-1-.5-1.2 0-.3-.4-.6 0-1 .3-.4.6-1.2.5-1.8-.1-.6-.8-1.3-.6-1.5.2-.4.5-.8.7-.8.2 0 .4.2.7.2s.7.1 1 .5c.4.3.8.7 1.4.9.5.1.9.3 1.3.2.4-.1 1-.4 1.3-.5s.6-.3 1-.2c.4.1.7.2 1.1.5.4.3.7.9.9 1.1s.7.5 1.2.5c.5-.1 1.1-.4 1.4-.4.3 0 .8 0 1.1.1.3.1.6.5.6.6s.2 1.5.5 2c.2.5.5 1 .6 1.4.2.5.3 1 .4 1.8-.2 1.1-.3 2.4-.4 2.8zm2.6 12.6c0-1.6.6-2.1.6-2.1s0 3.5.3 4.6c0 0-.9-.9-.9-2.5zm21.6 5.3c-3.8 0-7-3.1-7-7 0-2.9 1.8-5.3 4.2-6.4v.6c0 4.3 3.5 7.9 7.9 7.9.5 0 1-.1 1.5-.2-.7 2.9-3.5 5.1-6.6 5.1zm18.6-18.6h-1.2c-.6 0-.8.7-.8.7s-2.6 1.2-2.9 1.1c-.3 0-.5-.3-.7-.5-.3-.3-1 0-1 0s-5.1-7.1-14.6-7.1c-9.6 0-14.9 7.7-14.9 7.7.1-4.4 5-6.4 5.8-6.9.9-.5 3.3-.2 4.1-.2s2.3-1.1 3.2-1.7c.9-.6 2.4-1.2 2.8-1.3.4-.1 2 .4 2.8.6.8.3 2.9.8 3.4.8s1.1-.2 1.8-.4.6.2 1 .3c.3 0 .5-.3 1.2-.3.6 0 1.4.3 1.4.3 0 .7.5 1.4.8 1.7.4.4 1.3.6 1.9.8.6.2 1.4 1.4 1.7 1.6.3.3 1.4.8 1.8.9.4 0 1.4.1 1.7-.1.2-.2.9-.4.9-.4l-.2 2.4zm3.1-5s.6-.7.6-1.1c0 0 1.5-.2 2 .1l-2.6 1zm17.6 23.5c-2.1 0-3.9-.9-5.2-2.3l-1.6 2v-8.6c.8-3 3.5-5.2 6.8-5.2 3.9 0 7 3.2 7 7 0 3.9-3.2 7.1-7 7.1zm40-.3c-3.8 0-7-3.1-7-7 0-2.9 1.8-5.3 4.2-6.4v.6c0 4.3 3.5 7.9 7.9 7.9.5 0 1-.1 1.5-.2-.9 2.9-3.5 5.1-6.6 5.1zm21.9-20-5.1 1.4c-.2-1-.7-1.4-1.4-1.5-.6-.1-1.4.3-1.5.7-.2.5-.6 1.2-1.1 1.4-.5.2-.8-.6-1.1-1.1-.3-.5-.5-1.4-.9-1.9-.5-.5-2 0-2 0-12.7-8.1-22.7 1.6-22.7 1.6-1.5.3-1.8 1.8-1.8 1.8-.6.8-1.4 2.3-1.4 2.3h-1c-.5 0-1.7-1.1-2.3-1-.6.1-1.2 2-1.2 2l-3.6.2c-8.4-11.5-19.5-7.2-19.5-7.2h-1.1c-.5 0-.5.3-.8.5-.2.3-1 .5-1 .5v-5.3s1 .4 1.4.7 1.4.3 2.1.4 1.9.1 2.4 0 1.2-1.1 1.4-1.4c.3-.2.8.1 1.2.3s1.8.5 2.5.6c.7.1 1.5-.1 1.8-.4.3-.3 1-.5 1.4-.6.4 0 1.3 1.9 1.8 2s2.3-.5 3.2-.3c.8.1 1.4 1.9 1.6 2.4.3.5 2.6 1.5 2.6 1.5s0 .3.4.7 1.4 1.1 2 1.2c.6.1 1.2-.3 1.7-.6.5-.4 1.4-1.3 1.8-1.8.4-.5 1.4-1.3 1.7-1.4.4-.2 1.4-.6 1.9-.9.5-.3 1.4-1.2 2.2-1.8.8-.5 2-.7 3-.7.9 0 1.5 0 2.3-.3.8-.3 2-.7 2.8-1.1.7-.4 2.8 0 3.4.3.6.3 2.3.3 3.5.3 1.2 0 2.6.3 3.3.6.6.4 2.1 1.6 2.7 1.8.6.2 1.3-.3 1.9-.6.6-.4 1.4-.7 1.8-.7s1.5.5 2.3.8c.7.4 2 .3 2.3.2.4 0 1.3-.6 2.1-1.1.8-.5 1.5.1 2.2.3s1.5-.5 2.2-1.4c.6-.9 2.6-2.8 2.6-2.8-3.6 5.9-4 9.4-4 9.4zm6-12.3c.5-1.5 1.7-2 1.7-2-.5.3-1.7 2-1.7 2zm6.5-7.2c.5-1.2 2-1.6 2-1.6l-2 1.6zm58.9 4.4s1.5 6.4 8.2 6.4 8.3-6.5 8.3-6.5c2.2-.5 2.4-2.2 2.4-2.7s-.6-1-.8-1.5c-.1-.5.5-1.1.7-1.6.2-.5-.1-1.4-.6-2.5-.6-1.2-2-2.8-2.3-2.8s-1.3-.7-2.5-1.5c-1.4-.8-2.8-.9-2.8-.9s-1.4-.5-2.1-.5-1.6.6-1.6.6-.9-.1-1.3 0-.8.5-1.4.9c-.5.5-1.9 1.2-2.1 1.6-.2.5-.9.8-1.7 1.5-.8.6-.9 2.3-.9 2.8s-.8 1.6-1.4 3.7c-.4 2 1.9 3 1.9 3zm.4-3.3c.2-.5.7-1.8 1-2.3s.5-2.3.5-2.3c0-.4.8-.7 1.3-.9s.5-.5.5-.6c.1-.2.5-.5.8-.8.3-.3.6-.4 1-.5.5-.2.7-.5.9-.6s.5-.1.9-.1.7-.2.9-.5c.2-.3.6-.1 1.1.1s.8.4 1 .5c.3.1.6.1 1 .1s.6.3 1.3.5c.6.3 1 .6 1.6 1 .6.3 1 .8 1.4 1.3.5.5 1.2 1.9 1.3 2.3.1.4-.5.8-.6 1.4-.3.5-.1 1.2.1 1.4.2.3.5 1.2.2 1.3-.3.1-.5-.9-.9-1.4-.3-.5-1.2-.7-2.1-.5-.9.3-1.2 1.2-1.2 1.4 0 .3-.5.2-.7.2-.2-.1-.5-.8-.8-1.3-.3-.5-1.2-1.1-1.6-1.4-.5-.4-1.2-.3-1.3-.1-.1.3-.5.5-.6.9-.1.5-.1 1.5.1 1.8.2.3-.2.8-.5.9-.3.1-.1.6-.8.6-.6 0-.7-.9-1.2-1.7-.5-.8-1.2-1.2-1.6-1.3s-1.5 1-1.6 1.3c-.1.3-.4 1-.9.9-.5-.3-.8-1-.5-1.6z"/><path d="m112.7 245.5-5.3-9.5s-4 4.9-10.1 4.7c-6.1-.2-10.6-4.1-9.6-11.4 1-7.3 8.9-11.2 21.7-11.3 12.7-.1 24.5 4.9 35.9 6.2 11.5 1.4 26.8 4.2 37.4.5 10.7-3.7 13.1-7.7 13.1-7.7 5.1 1.3 5.1-4.2 4.8-6.8-.3-2.5-1.2-3.3-1.2-3.3.6-1.3-.4-2.5-.4-2.5-.4-1.1-1.6-1.9-2.2-2.2-.5-.3-1.1-.5-1.4-.5-.4 0-.4-.5-2.1-1.4-1.7-.8-3.1.9-3.4 1.4-.4.5-2.3 3.3-2.3 3.3-.9 0-3.3 2.4-3.3 2.4-1.3-.1-2.3.9-3.5 1.1-1.2.1-2-1.4-3.8-1.4-1.9.1-3 2.3-4.3 2.8-1.4.4-3.5-1.5-5.1-1.5-1.5 0-3 1.7-3.5 2.1-.5.4-2.5-2-3.3-2.3-.9-.4-3 .3-3 .3s-.9-.5-1.5-.5c-.6-.1-1.4.1-2.6.7-1.3.6-2.5-.3-2.5-.3s-1.4-1.7-2.7-2c-1.4-.2-3 .9-3.5 1-.5.1-1.3-.5-3.2-.5-1.9.1-3.3 1.5-4.9 1.7-1.5.2-1.7-1.5-2.9-2.2-1.2-.6-4.7.4-4.7.4-1.4-1.2-3.9-.9-3.9-.9s-1.1-.6-2-1.1c-.9-.4-2.8-.5-3.4-.5-.6.1-2.4-1.7-4.5-3s-4.8-1-4.8-1c-1.3-.5-2.9 0-3.3.5-.5.5-1.4.4-2.2-.4-.8-.7-2.8-.2-2.8-.2-1.7 0-3.3 2.2-3.7 3.1s-5.8-.4-5.8-.4c-1.4-.2-4.8-.3-5.9 1.7-1.1 2-2.8 2.4-4.9 3-2 .5-3 1.5-3 1.5-3.5 1-4.1 4.6-4.1 4.6-3.8 3.3-1.7 7-1.7 7s-.5 1.4-.9 2.4c-.4 1.1 0 2.8.4 3.8s-.5 3-.7 7.2c-.3 4.2 3.7 4.2 3.7 4.2 2.5 7.5 9 14.3 19.9 14.3 10.9.6 17-7.1 17-7.1zm-26.1-29.6c-.3-.5-.9-1-1.4-.9-.5 0-1.1.3-1.3 1.3 0 0-.5.8-.5 1.4s0 1.3-.3 1.3-.9-.6-1.4-.5c-.5.3-.8.8-.7 1.5.1.7.7 2 .3 2.3-.5.3-1 .1-1.4 1.4s-.3 2.1 0 2.3c.3.3.8.9.2 1.4-.6.5-.7 1-.5 1.9.3 1 1.1 2.3.5 2.3-.5.1-1.3-.2-1.7 0s-.7 1.5-.5 1.9c0 0-1.6 1.3-2.1 3.2 0 0-1.2-.3-1.2-1.2s.1-3.8.4-4.5c.3-.8.5-2 .4-3.3s-.9-2.7-.5-3.5c.4-.8 1.1-2 1.2-2.6.1-.6-1.1-2.4-.8-3.3.3-.9 1.2-2.1 1.8-2.6.6-.5.8-1.1.8-1.6s0-1.2 1.1-1.7c1-.5 1.7-.7 2-1 .3-.3.5-.8.8-.9.4-.1 1.6-.4 3.1-.8 1.4-.5 2.9-1.8 3.6-2.7.8-.9 1.9-1.5 3.2-1.4 1.4.1 3.6.4 5.1.6 1.4.3 3 .3 3.8-.8.8-1.1 1.1-1.9 1.6-2.2.5-.3.8 0 1.1-.3.2-.2.7-.5 1.2-.2s1.8 1.3 2.7 1c1-.3 1.7-1 2.4-1s1.4.4 1.8.3c.5 0 2-.3 2.8.2.8.5 3 1.6 3.8 2.4.8.8 1.4 1.1 2.1 1.1.7.1 2-.1 2.3.2.4.3 1.8 1 2.4 1.4.6.3 2-.2 2.4.2.5.3 1.2.9 2.1.9s2.4 0 3.1-.3c.5-.3 1 0 1.4.5.5.6 1.1 1.5 2.9 1.6 1.7 0 2.8-.5 3.4-.9.7-.5 1.3-.9 2.3-.7 1 .2 2.1.5 3 .3s2.1-1 2.8-.9c.6.1 1.3.5 1.6 1.1.4.6 1.7 1.1 3 1.2 1.3.1 2.5-.2 2.9-.5.4-.3 1-.3 1.4 0 .5.2 1.4.3 1.9.1.6-.1 1.1-.5 1.6-.2.5.5 1.6 1.1 2.1 1.5.5.5 1.6 1.1 2.5.5 1-.5 1.8-1.8 2.3-1.9.5 0 1.3.1 2.3.8 1.1.7 2.3.7 3.8.3 1.4-.5 2-.9 2.3-1.4.4-.4.6-1.1 1.4-.9s1.9.7 2.2.9c.3.3 1 .5 1.7.4.7-.2 1.5-.7 2.3-.9.8-.2 1.5 0 2.1-.5.5-.5 2-2.1 2.6-2.3.5-.3 1.4-.9 1.8-1.7.5-.8 1.7-2.6 2.6-3.2 0 0 1.2 1 1.7 1.3.5.3 1.6.5 2 .9.4.3.4.7.5 1.1.3.3.7.5.5.9-.3.4-.2 1.3.1 1.6.3.4.8.8 1 3 .2 2.2 0 3.7-.7 4.1s-1.3 0-1.1-.4c.2-.5.5-1.2.4-1.9-.1-.6-.5-1.8-1.4-1.7-.9.1-1.4.4-1.3 1.4.1 1 .3 2.1-.3 2.2-.5.1-1.4.3-1.7-.3-.3-.5-.1-1.3-.4-1.8-.3-.5-.8-1.9-2.6-1.8-1.8.1-2.6.8-2.9 3.5 0 0-2.3-.1-4.2.5-1.9.6-2.7.9-3.2 1.5s-.8 1.8-1.4 2.2c-.5.3-1.4.5-1.7.1-.3-.5-.2-.9 0-1.5s-.4-1.9-1-2.1c-.6-.2-2-.3-2.3.5-.3.8-.3 2.4-.7 2.5-.5.1-.8.3-.9-.2-.2-.5-.8-1-1.1-.9 0 0-.5-1.1-1.4-1.1-1.1 0-2.4 1.2-2.4 1.2s-1.1-.3-1.6 0-1.4 1.7-1.6 2c-.3.3-.5-.2-.8-.5-.3-.4-.5-.7-.5-.7s.5-1.9-.8-2.1c-1.4-.1-1.9.9-1.9 1.6 0 0-.5 0-.6-.5-.3-.4-1.7-1.2-3.5-.5 0 0-.6-1.8-2.2-1.9-1.5 0-3.5.9-3.5.9s-1-.7-1.6-.5c-.6.2-2.6.7-3.5 1.4-.9.7-1.2 1.1-1.5.9s-1.1-1.4-2.4-1.6c-1.4-.1-3.4.9-4.5.9-1 0-1.5-.8-2-1.4-.5-.5-1-1.4-2.3-1.4s-2 .8-2.7 1.2c-.7.4-1.3.5-1.6.3-.4-.3-1.1-1.6-2-1.7-.9-.2-2.1.6-2.4.4-.4-.3-3.3-3.7-3.3-3.7s-.5-.7-1.2-.7c-.6 0-.8.4-1.3.5-.5 0-.8-1.4-2-1.4-1.3 0-2.7 2.5-2.8 2.6 0 .2-.9-.3-1.2-.5s-.5-.3-.9-.3-.7-.8-.8-1.2c-.2-.4-.5-1.1-1.9-1.1s-3.4 2.2-3.4 2.2h-2.3c-.5 0-1.9-1.3-2.4-1.3s-1.1.5-2 1.4c-.9 1.1-2.9 3.4-3.5 3.6-.6.2-.5-.5-.5-1.3s-.1-2.3-1.6-2.3-2.5 4-2.5 4-.2.7-.2 1.1-.1 1.1-.5 1.2c-.4.1-.4-.1-.9-.6-.9-.4-.6.1-.8-.2zm249 65.8h2.9v7.5h1.6v-7.5h3v-1.5h-7.5zm12.4 5.5-2.3-6.9h-2.1v8.9h1.8V283l1.9 6.2h1.6l2-6.5v6.5h1.6v-8.9h-2.2z"/></svg>