<svg xmlns="http://www.w3.org/2000/svg" viewBox="0 0 500 500" style="enable-background:new 0 0 500 500" xml:space="preserve"><path d="M191.3 196.9zm6.4-1.4-.1-.3s-.4.4-.6.5c-.2-.4-.8-2.2-.8-2.2-.4-.7-1.3-1-2-.7-1 .2-2.8 2.2-2.8 2.3-.5.5-.5 1.3-.1 1.9.6 1.3 1.6 2.5 2.9 3.3.7.4 1.5.4 2.2.2.1 0 1-.7 1-.7.8-.5 1.1-1.4.9-2.3l-.6-2zm135.1 98.6v.2h.9v2.3h.6v-2.3h.9v-.6h-2.4zM218 303.4l-.2-.3-.2.2c-.4 1-.8 1.9-1.1 2.9h-.5l-1.1 5.4v.2c0 .2.1.4.2.6.3.2.6.2.9 0 .8-.6 1.7-1.1 2.7-1.3.6.1 1.1.3 1.6.6l.4.3-.1-.5c-.2-2.8-1.2-5.6-2.6-8.1z"/><path d="M334.9 303.8s-3.2-3.9-4.6-4.5l1.2-.8s-8.8-5.3-13.1-5.5c-1.7-.3-3.4 0-4.9.8 0 0-6.9 3.7-12.1 6.8 0 0-.5-6.4-15.6-6.6v-.5s-9.4-.1-13.2 1.2c0 0-3.9.8-5.8 3.2 0 0-1.6-2.7-9.4-3.5l.6-.8s-3.3-.4-13.8 1c0 0-7.4.8-9.9 9.2 0 0-2.5-5.5-3-6.2 0 0-1.4-2.7-6.7-3.5l.6-1.4s-11.4-.1-17.9 1.3c-1.1 1.2-2 2.6-2.6 4.2l-.2-3.1s-1.6-1.4-13-1.5l.2-1.2s-13-1.2-23.7 3.4h-.5c0 .1-2 1.7-2.2 12.6l1-.3s-.2 4.8 1 6.3c0 0 3.9 3.8 4.5 3.8l2.9-.7.2.1s-.1 1.5.4 1.8c0 0 .2 4.8 2.1 6.5 0 0 3.6 5.2 3.9 5.2 0 0-.1 1.4 5.2 1.5 0 0 5 .5 6.3-.4 0 0 1.6-.1 1.8-2.6l1.6-7.8.7.5s.3 1.3 2.6-8.1l.7-.1s-1.5 6-1.5 9.1c0 0 3.1 7.4 4.5 8.7 3.7.8 7.6 1 11.4.6l-.6-.8h2l1.6-5.3 2.7-.5 3.8 6s.5 1 3.2.9c0 0 11.6 1.1 12.4-2.5 2.8 2.1 6.3 3.2 9.8 3 0 0 10.2 1 13-3.7l2.9-3.5s.9 6 4.9 6.1c0 0 11.1 2.7 17.8-.3 1.8-1.1 3.4-2.5 4.8-4 .4 1 1.2 1.8 2.2 2.3 0 0 6.8 7.7 15.5 3.8 0 0 4.2-1.7 5.8-3.2l-.2 1c3.5-1.6 6.7-3.7 9.6-6.3v.4s4.8-1.6 6.8-7.6c0 0 1.6-5-1.1-7.1 0 0-3.3-2.3-2.2-4 1.5-2 3.4-3.1 5.6-3.4zm-133.2-4.4c0 1.5-.2 3.2-.3 3.7-.1 0-.4-.1-.4-.1l-.1.2c-.3 1-.7 2-1.2 2.9-.7 0-6.5-.1-7.7.7l-.1.1s-.2 8-.2 8.9c-.3-.3-.6-.6-.9-.6h-.2v.2c-.2 1.7-.7 6.4-1.5 7.2 0 0-.5.8-4 .6-1.2 0-4.5-.2-5.2-.6 0 0-1.2-.7-1.2-3.6 0-.8.1-1.6.2-2.4l.3.1-.3-3.7-1 1.1c-.3-.5-.4-1.1-.3-1.7 0-1.2.2-2.3.4-3.5v-.2l-.1-.1c-.1-.1-2.2-1.2-8.2.9-.2-.9-.3-1.8-.3-2.7 0-1 .1-2 .5-3l.1-.3-.9.1c.1-1.8.5-3.5 1.2-5.2.7-.3 6.6-2.6 15.7-2.5l-.7 1.1h.4c.1 0 8.1-.7 14.3.3.4 0 .9.2 1.2.5.3.3.4.8.4 1.2.1.2.1.3.1.4zm33.5 22.2c-.1.1-3.6 4-11.4 1.8 0-.8-.1-3.5-.8-4.2 0-.3-.4-1.2-2.6-1.5-.1 0-3.4-.4-4.9.3-.8.3-1.4 1.1-1.5 2-.3 1-.5 2-.5 3.1l-4.4-.4.5.9-6.9-2v-.5c0-4.4 1.1-8.7 3.1-12.6l.2-.3h-1.1c1.2-2.9 4-9.8 4.6-10.5.3-.1 2.3-.9 9.8-1.2l-.5.3h.7c2.7.1 7.3.4 7.8.8 0 0 5.1 6.1 6 10.2l-1-.1.1.3c.5 1.3.9 2.6 1.1 3.9l-.1.6.7-.7c.2.6 2.3 7.2 2.3 7.2.1.2.2.5.2.8-.3.8-.7 1.5-1.4 1.8zm28.9-.6c-.1 0-6.6 2.8-7.4 3.1l-.2.1s.2.3.2.5c-3.2.6-6.4.4-9.5-.4-.1 0-5.3-.8-8.2-9.5l.9.3-.1-.4s-.6-1.6-.7-6.5v-.3l-1.1.5c.1-2.3.7-4.6 1.8-6.7 0 0 3.4-5.1 11.8-4.9-.2.3-.7 1.2-.7 1.2l.5-.1c.1 0 7.9-1.6 12.9 2.3.1.5.1 1.1.1 1.6 0 1.2-.2 2.5-.7 3.6l-.3-.5-2 4.9c-.6-.5-2.3-1.5-6.2 0 .1-.2.3-.8.3-.8l-.4.1s-3.5.9-3 5.1c.3 1 1 1.9 2 2.3 2.2 1 5.6.2 10.1-2.4.3 1 .5 2 .4 3v.4l.8-.7c0 .6.2 2.5.2 2.5-.2.7-.7 1.3-1.5 1.7zm33.4-10.8-.4-.6-.1.5c-.3 1.7-.8 3.5-1.3 5.1l-.2.3.3.1.8.2c-.3.9-1.5 4.9-2.5 6.2-1.1 1.3-2.7 2.1-4.3 2.1l-7.5.1s.3.5.4.6c-1.3 0-5.8-.2-7.1-1.1-.1 0-4.2-2.3-5.1-8.4h.8l-.1-.3c-.6-1.5-1-3-1.3-4.5v-.5l-.7.6c-.3-.5-.8-2.2-.8-5.8v-1.1c0-1.9 1.1-3.6 2.9-4.4 3-1.3 6.3-1.9 9.5-2v1h.2c.1 0 6.1-.8 10.4 0 .1 0 6.5.6 7 4.3.1.8.2 1.6.2 2.4-.1 1.7-.4 3.5-1.1 5.2zm27.3-2.5c0 .9.9 1.9 2.5 3 1.2.9 1.9 2.3 2.1 3.8v.4c0 1.6-.8 3.3-2.4 5-.1-.2-.4-.6-.4-.6l-.2.3s-1.5 3.1-6.5 6.2c-.1-.2-.3-.7-.3-.7l-.2.3c-1.4 1.3-3.1 2.2-5 2.5 0-.2-.1-.6-.1-.6h-.2c-3.1-.2-6.1-1.5-8.3-3.7.4 0 .8 0 1.2-.2l.2-.1-.2-.3c-1.4-1.1-2.6-2.4-3.8-3.7.6-.5 3.2-2.7 3.7-3.4.1-.2.2-.3.2-.5 0-.1 0-.2-.1-.3-.2-.3-.4-.5-.7-.5.7-.6 1.2-1.5 1.3-2.5v-.3c-.3-.5-.6-.9-1-1.3-.7-.9-1-1.9-1.1-3 0-.6.1-1.1.3-1.6.6-.8 1.3-1.6 2-2.2l.6-.3-1.3-.2c1-.9 5.5-4.9 6.7-5.5 1.6-.9 3.5-1.1 5.2-.6 0 0 3.9 1.3 5.3 1.7l-1.1.6.5.2s4.1 1.2 5.8 2.7c-.9.7-4.2 3.5-4.4 4.9-.2-.1-.3.1-.3.5 0-.1 0-.1 0 0z"/><path d="m285.6 309.5.4-.7-.3-.1c-1.1-.3-2.3-.3-3.4-.1-1.3.3-2.2 1.3-2.4 2.6v1.7h-.5v.2c0 .1.3 3.1 2.9 4.1h.1c.1 0 3-.1 4.3-2.5.3-.9.5-1.8.5-2.8 0-.5 0-.9-.1-1.4-.3-.5-.8-1-1.5-1zm52.3-15.8-.9 1.3-.9-1.3h-.6v2.9h.6v-1.8l.8 1.2h.2v-.1l.8-1.1v1.8h.6v-2.9h-.5zm13-74.3.2.1c-.2-3.2-.6-6.4-1.2-9.6-.4-4.1-4.2-6.1-4.2-6.1-.2-.3-3.9-1.8-6.2-2.8.9-1.6 1.3-3.5 1.1-5.3v-.2c.1-.8.2-1.7 0-2.5-1-5.6-4.1-6.9-4.1-6.9-2.4-2.1-8.3-2.6-8.3-2.6-2.1.3-4.1.9-6.1 1.6-.5-.7-5.9-3.2-5.9-3.2-.9-.4-1.8-.6-2.7-.6l-.8.8-.3-1.5-.5.1c-.7 1.7-2.8 3.5-3.8 4.3.2-.9.3-1.6.3-1.6.2-.5.4-1 .3-1.5-.1-.2-.3-.4-.4-.6l.1-.6c.2-.5.4-1 .3-1.5-.7-1.5-3.9-2.3-3.9-2.3l.6-.5c-4.8-2.7-11.8-1.2-11.8-1.2-.7-1.1-1.8-1.9-3-2.3l.4-.6c-3.2-3.5-14.6-1.4-14.6-1.4l-.1-1.8c-1.1-1.8-5.4-2.1-5.4-2.1l.8-1.4c-9.2-.3-12.9 2.5-12.9 2.5-1.1-1.7-4.9-1.8-4.9-1.8l.6-.5c-3.7-.8-7.5-.9-11.3-.6-7.8.8-10.5 4.8-10.5 4.8-5.8-5.2-11.3-2.5-11.3-2.5.3.2.2.9.2.9-5.8 1-11.3 3-16.4 5.9-4 2.6-4 4.9-4 4.9-.3-.2-.7-.4-1-.5l.5-.4-.2-.4c-3.5.6-6.8 1.8-9.9 3.6v-.8c-6 2.3-11.1 6.4-14.7 11.7-1.6-.9-2-.6-2-.6-.9.4-1.7.9-2.5 1.5-2.5 1.8-9.8 8.9-9.8 8.9l-.6-1c-5.2 4.8-12 18.2-12 18.2-.3.7-.3 1.6 0 2.3 0 .1.1.2.1.3l-.1.2c-.3.7-.3 1.6 0 2.3.6 2.6 4.7 6.2 4.7 6.2 2.3 2.4 3.1 2.2 3.1 2.2s3.9.8 4.9.4c0 0 4.4-3.4 5.8-5.4 0 0 .3-.5 1 .1l1.9 1 .4-.3.5.4-.5.5s4.8 4 10 2.1l7-6.8s1.1-1.7.1-2.8c.2-.4 1-1.8-.1-2.8l-2.3-2.7.8-.1-3.7-6.5.7-.6.7.6.4-.5.6.5-.5.5s5.4 4.2 10.3 5.3c4.9 1.1 10.2-.6 16.5-6h-.6l1.7-2.1s4 .9 6.9-.2c0 0 4.2-1.6 4.7-2.6l.2-4.5 1 .6h.5s0 1.2 2.3 2c0 0 2.2 1.4 3.1 1.4 0 0 2.7.8 7.7-4.2v-.2c1.7 2.4 6.5 2.6 6.5 2.6 3.1.1 9-2.3 9-2.3-.6.5-.2 1.4-.2 1.4.6 1.5 8.9 2.1 8.9 2.1 3.1-.4 4.6-4.7 4.6-4.8v2.6c-.3 1.5 1.3 2.3 1.3 2.3l4.5 1.3c1.3.7 2.7.7 4 .2 1-.1 6.3-2.5 8.4-3.6l-.5 1.9c-.2.4-.2.9 0 1.3l.3.3-.3 1.1c-.2.4-.2.9 0 1.3.3.4 5.7 4 5.7 4 1.2.8 4 .8 4 .8 3.4.6 9.9-1.6 11.9-2.3-.2 2.1-.3 4.5-.3 4.5 0 .4 0 .7.1 1.1 0 1-.1 1.7-.1 1.7.2 5.8 3.4 6.9 3.4 6.9 1.5.9 14.4 5.2 14.4 5.2 6.7 2 10.9 1.1 10.9 1.1 3.2-1 3.4-2.7 3.4-2.7-.4-2.7 2.3-2.8 2.3-2.8 3.5.5 6.9 1.5 10.1 3l-.3-2.9.3.2-.4-3.3.7.3c-.3-1.2-.4-2.2-.5-3.1zm-170.3.6c-1.6 2-3.5 3.8-5.5 5.4-.7.6-1.1.2-1.1.1-.8-.6-1.5-1.2-2.2-2l.9-.1-.3-.3c-.8-.7-1.7-1.4-2.7-1.8l-.4-.2s.1.9.2 1.3c-.6-.4-3.9-2.7-4.9-3.5-.2-.1-.1-.7-.1-.7l-.5.6c-1.3 1.6-5.3 6.5-6 7.4-5-3.1-5.7-6.1-5.7-6.4 4.7-8.7 8.2-12.5 9.1-13.5l.2 1 .3-.3c8.9-9.3 12.7-11.6 13.3-11.9 1.7.8 3.9 5.7 4 5.7.1.2.2.5.2.7 0 .2-.1.5-.2.6l-4.5 4.9 3.7 6.1-.9-.1 2.9 5.1c.3.8.3 1.4.2 1.9zm25.3-19.9c0 .6-.4 1.2-.9 1.5l-3.7 2.8c.2 0 .5.1.7.2l-6.4 3.6c-1.3.7-2.9.7-4.2.2 0 0-4.4-2.6-5.5-3.8.1-.1.3-.1.4-.1h.5l-.4-.3c-.6-.5-2.3-2.1-2.6-3h-.4s-.1.9-.1 1.4c-.8-.8-3.3-3.4-4-5.9-.1-.5-.2-1-.2-1.5 0-1.7.8-3.4 2.2-4.4 0 0 5.7-3.9 7.1-4.9v.8l.3-.2c1.9-1.4 6.9-4.8 9.1-5l-.3.4s2.9-.7 4.2 1.6c0 0 1.8 4.1 3.1 7.9l-.9.2.1.2c0 .1 2.1 5.1 2.1 7.8-.1.1-.1.3-.2.5zm22.2-4.4c-1.8-3.3-3.4-4-3.5-4h-.1l-.1.1c-.1.1-.2.3-.2.5-4.9-2.9-5.3-2.6-5.4-2.5l-.1.1v.2s.6 2.8.7 3.2c-.3 0-.5 0-.8-.1l.4 3.8v.3c0 .3-.1.3-.1.3-1.4.7-2.9 1.2-4.5 1.5-.6.2-1.3 0-1.8-.5-.3-.3-1.8-3.7-2.6-5.8l-.3-.8s-.2 1.1-.3 1.5c-.4-1-1.9-4.9-2-5.1 2.5-3.4 8.2-4.7 8.2-4.8.6-.1 1.3-.1 1.9-.1.3 0 .5.1.7.3.1.2.2.4.2.6v3.1l.3-.1c.9-.4 1.7-1.1 2.1-2.1.4-.7.6-1.6.4-2.4-.1-1-1.3-1.4-1.4-1.4-3.6-.7-7.4 1.2-7.5 1.3-3.3 1.1-6.1 4.8-6.8 5.7l-.3-.6c-.2-.6-.3-1.3-.2-1.9v-1.4l.2-.6-1.2.5c0-.5.1-2.5.1-2.5.3-2.2 1.3-2.9 1.3-2.9 3.2-3 8.2-5 8.3-5.1 6.2-2.9 13.4-2.2 13.5-2.2h.4l-.3-.8c4.6 1.1 5.1 4.6 5.1 6v.2l-.7-.7-.1.4c-.7 4.2-4.4 6.6-4.4 6.7l-.4.3.5.1c4.3.8 6.2 3 6.6 3.6-.2.1-.8.6-.8.6l.2.2c2.3 1.9 2.7 2.7 2.8 2.9-2.3 2.3-7.1 4-8 4.4zm17.8-11.6.2.1.1-.3c.4.6 1.4 1.7 3.8 2.1 2.4-.3 4.6-1.7 5.9-3.7.3 1.1.5 2.2.5 3.3v.3l.2-.1c.2 0 .3-.1.5-.2-.3 2.2-1.7 4.1-3.7 5-.1 0-6.2 3.5-11.6 1.5-1.1-.6-2-1.6-2.4-2.8l-.2-.7-.3 1c-1.2-1.8-2.3-3.7-3.3-5.6l1-.1-.2-.3c-.5-1.2-.8-2.4-1.1-3.6v-.5l-.7.7c-.4-1.2-.6-2.4-.6-3.6-.1-2.2.8-4.3 2.4-5.8 0 0 1.8-1.8 6.6-2.4 1.6-.1 4.7-.2 5.9-.1l-.8.7 3.9.1s4.4.3 5.3 2c-.1 1.6-.5 3.2-1.1 4.6-.2-.4-.7-1.2-.7-1.2l-2.5 3.6c-.7-.1-4.8-.6-6.6 1.4v-.5l-.3.1c-.1.1-1.5.5-1.4 2.9.2.8.6 1.6 1.2 2.1zm79 8.3c0-.1.5-4.6 2.9-5.4 0 0 6-.5 8.9 4.2.5.9.7 1.9.8 3 0 .8-.3 1.6-.9 2.1l-.4-.8-.2.3c-1 .8-2.2 1.5-3.5 2 .1-.2.1-.5.1-.7l-.3.2s-4.3 2.5-10.4-1.3c.7-.5 2.6-1.8 3-3.6zm-34.2-14.6s-2.8 6.1-3.5 7.4l-.4-.7s-2.3 7.4-2.5 8l-.3-.5-.8 3.2c-.1.6-.4 1-.9 1.4-6.5.5-6.8-1.3-6.8-1.3v-2l-.7.2c0-.5-.2-6-.2-6-.5-2.1-3.1-2.2-3.1-2.2-1.3 0-2.5 1-2.7 2.3l-.5 3.1c0 .9-.6 1.6-1.5 1.8-3.7.8-5.7.1-5.7.1-1.1-.3-1-1.2-1-1.2v-2.6c-.2.2-.4.4-.7.6 0-.6-.1-4.5-.2-5.1.3.2.4.2.8.5l-.2-6.5-.8.5v-1.3c0-1.9.1-3.9.3-5.8 1.9-1.3 4-2.1 6.3-2.4l-.4.6 6.1.2c.4-.1.8.1 1.1.4.3.4.4.9.4 1.3v.4c0 .8-.7 3.6-.9 4.5l-.6-.3-.1.3c-.1.4-.6 3.3-.6 3.5l-.1.5.4-.3c.6-.4 1.2-.6 1.9-.6 1 0 2 .3 2.9.7l.2.1.1-.2c.8-1.6.9-5.2.9-5.9 2.5-.8 5.2-1 7.8-.7l-.7.6.6.1c2.5.3 5.6 2.1 5.7 2.1.3.1.5.3.6.6v.3c0-.2-.1.1-.2.3zm17.9 21.3c-.1.1-5.7 5.7-7.7 6.5-.4-.2-5.6-2.1-6.8-4.1 0-.2.8-3.8.8-3.8s-.6.1-.9.2c.3-1.3.8-2.6 1.4-3.9 0-.1.2-1 .2-1v-.2c-.8-1.3-2.8-5-2.8-5.8v-.4l-.3.3c-.1.1-.2.1-.2 0-.1 0-.4-.3-.5-1.4.1-1.5.3-5.8 1-6.8 2.1-.7 4.4-1 6.6-.8l-.4.8h.3c1.3.1 4.8.6 5.6 1.5-.4 1.5-.6 3-.6 4.6v1.2h-1v.2c0 .1.2 1.8 2.6 3.8.2.1 1.3.6 4.5-2.8.1.3.1.5.1.8v.4l.3-.2c1.2-.8 2.3-1.7 3.2-2.8.5 0 4.2 1 8.2 5.2.1.3.2.6.2 1s-.1.8-.4 1.1v.1c-1.2 1.8-3 3.1-5.1 3.6v-.6l-.3.2c-2.6 1.2-5.3 2.2-8 3.1zm38.7 21.6c-1.9-.7-3.8-1.1-5.8-1.2.2-.3.5-.8.5-.8l-.2-.1a3.7 3.7 0 0 0-3.8 0c-1.7 1.1-2 3.6-2 3.7 0 1.4-1.1 2.6-2.5 2.7-6.9.8-16.3-4.2-16.3-4.2-1.6-.9-1.8-1.8-1.8-2.3v-6.4l.6.2s.8-4 .9-4.7c1.4 1.2 4.4 2 4.6 2 1 .3 1.6.3 1.9 0 .1-.1.1-.2.1-.4 0-.1 0-.3-.1-.4 1.5.5 2.7.5 3.6-.1.9-.6 1.4-1.6 1.5-2.7.2-2.5 3.1-2.8 3.2-2.8 2.3-.1 4.5.3 6.5 1.4l.4.3v-.7c2.2.8 4.4 1.7 6.5 2.8 2.4 2.6 2.8 6.6 2.8 7.7-.3-.2-1.3-.7-1.3-.7s.7 6.1.7 6.7zm-9.1 33.6.6-.1c1.9-.2 3.3-.7 4-1.3 0-.1.1-.1.1-.2 0-.3.1-.5.1-.7 0-.1 0-1.3-1.6-2-2-.9-2.4-1-3.5-1h-.7c-1.1 0-2.2.1-3.2.3-1.1.2-1.8.4-2.2.5.4 1.6.6 3.2.6 4.8 1.8.1 3.8 0 5.8-.3zm-161.7-3.6-.1-.7-.3.7c-.1.1-1.2 3.1-1.6 4.5l-.1.2.2.1c.6.3 1.1.7 1.5 1.2l.1.2 1.2-.8.1-.1v-.1l-1-5.2z"/><path d="M349 255.6c-.6.7-1.3 1.2-2 1.7-2.1 1.4-4.4 2.3-6.8 2.9l-1.2.4c-5.1 1.6-13.8 1.2-14.2 1.2l-8.8-.7c-7.6-.5-19.2-1.3-25.5-2-.3 0-3.4-.4-7.4-.9 4.3-2.2 9-3.5 13.8-3.9l-1.8 1.7-.2.2c-.6.5-1 1.2-1.1 1.9 0 .3.1.6.3.8.2.2.6.3.9.2l1.6-.5c18.1-5.9 21.7-10.4 22.2-11.2l.9-1c.2-.3.3-.7.1-1-.2-.3-.5-.5-.9-.5l-1.5.2s-3.3.2-6.3.2c-2.2 0-8.1-1.1-11.2-1.8l-.7-.2c1.2-1.5 2.3-3.1 3.1-4.8l1-2.2c.2-.4.1-.9-.3-1.1-.3-.3-.8-.3-1.1 0l-2 1.5c-10 7.5-12.9 6.9-13.3 6.8 0-.1 0-.2.1-.3 1.2-1.3 2.5-2.5 3.9-3.5.6-.5 1.1-.9 1.5-1.2l2.9-2.2c.4-.3.5-.8.2-1.2-.2-.4-.8-.6-1.2-.4l-3.1 1.4c-6.3 2.9-9.4 2.5-10 2 .3-.7.8-1.3 1.4-1.7 3.2-2.7 7-4.4 11.2-5 1-.2 2-.3 3-.3.5 0 .9-.4.9-1 0-.3-.2-.6-.4-.7-1.1-.7-2.3-1.1-3.6-1.1-10.4.3-17.6 2.9-21.3 7.8-.8 1-1.4 2.1-1.8 3.3v-.5c0-1.3-.3-2.6-.8-3.8-.2-.4-.6-.6-1-.6-.4.1-.7.4-.8.9 0 1-.2 1.9-.4 2.9-.4.8-1 1.5-1.7 2-.9-7.5-4.7-14.4-10.7-19.1-2.3-1.6-4.8-2.9-7.5-3.7-.4-2.1-1.3-4.2-2.6-5.9l-.1-.1c-1.3-1.4-3.2-3.2-4.8-2.4-.6.3-1.3 1.1-1 2.9.2 1.3.2 2.7-.1 4-3.9-.2-7.7.5-11.2 2-2.4 1.1-4.6 2.4-6.6 4-1-1-1.7-2.2-2-3.6v.1-.3c-.6-2.5-2.1-2.7-2.7-2.6-2.4.2-3.4 4.5-3.6 7.2-.1 2.4.5 4.7 1.8 6.8-1.7 3.1-2.6 6.6-2.5 10.2.1 3.1.6 6.2 1.6 9.1-48.3-11.1-63.4 4.2-63.4 4.2s2.4 4.1 1.3 13c-.1 1.5-1.2 4.8 1 8.2-.2-.9-.2-1.8.1-2.7.7-2.1 3-3.4 4.7-4.1 3-1.3 8.9-2 9.1-2 4.9-.6 9.8-.7 14.7-.5 6.3.4 12.6 1.2 18.8 2.2.9.1 1.8.3 2.8.5 2.4.4 4.9.9 7.6 1.4 2.4.4 4.9.9 7.6 1.4l-11.8 6.3s-3.8 1.8-2.7 4.8c0 0 1.3 4.1 5.4 2.9 2.3-.7 7-3.6 7-3.6l8-4.4c.9.5 2 .8 3.1.7 1 1.2 3.6 3.8 7.4 3.9.7 0 1.4 0 2.1-.2-.1.4-.2.7-.1 1.1.1.8.7 3.5 4.5 3.7 2.1.1 3.5.9 3.7 1.5l.1.2c.5 1.4 1.4 3.8 5.5 3.8 2.7 0 3.5-1.3 3.8-2 .3-.8.2-1.7-.3-2.4 1.1-.6 1.9-1.5 2.3-2.6 0-.1.1-.4.2-.6 1.5.7 3.2 1 4.8.9h.2c1-.2 2-.6 2.9-1.2 2.1 1.2 4.5 1.7 6.9 1.5 3.4-.3 6.6-1.5 9.3-3.6.8.1 3.5.3 7-1.9 1.1.5 2.5.4 3.5-.3.1-.1.2-.2.3-.2 10.4 1.8 34.1 5.2 48.6 2.4 2.7-.5 10.1-4.4 9-8.7-.8-4.3-.3-12.8 1.4-17.9l-1 1zm-184.3 6.2-.4.1c-1.4.4-2.9.4-4.4.1h-.1c-.1 0-.2 0-.3-.1-.1-.1-.1-.3 0-.5s.2-.3.4-.3c1.4-.1 1.4-.1 1.3-.3v-.1l-.3-7.8v-.4l-.3.2c-.1.1-3 2.2-2.6 5.7v.4c-.1.1-.3.1-.4.1h-.1c-.3 0-.6 0-.8-.2-.2-.3-.4-.9 0-2.5.5-2.3 3.8-5.7 9-6.2 1.5-.2 3.1.3 4.2 1.3 1.2 1.2 1.6 2.9 1.3 5.3-.4 1.8-1.7 4.3-6.5 5.2zm33.1-10.5c-.3 0-.8.3-.9 1.3 0 .2-.1.6-.1 1.2-.2 1.8-.6 4.8-.6 6.2-.1.7.5 1.4 1.2 1.4.1.2.2.4.2.6-.1.2-.3.4-.6.4-.6 0-1.1-.2-1.6-.5-.7-.2-1.5-.3-2.2-.2h-1c-.9 0-1.5 0-1.6-.6 0 0 .5-.3 2.3-.3h.2v-.2l.9-8v-.5l-.4.2c-.1 0-2 1.3-3.8 6.9-.1.2-.2.3-.3.4-.1-.1-.1-.3-.1-.4-.2-1-1.5-5.5-2.6-7.2l-.3-.6-.1.7c-.2 1.8-.9 6.9-.9 7-.1.3 0 .6.1.8.5.4 1.1.6 1.7.5.1 0 .4-.1.5.1s0 .4-.2.7c-.2.3-.9.2-1.5.1h-.3c-.7-.1-1.5-.2-2.2-.1-.8 0-1.7-.1-2.5-.3-.7-.1-1.4-.1-2.1 0h-.8c-.9 0-1.2-.1-1.2-.4 0-.1 0-.2.1-.2.1-.1.3-.2 1.1-.1h.3l-.1-.3-.5-2.7-.1-.4-.3.3-1.2 1c-.3-.3-1.2-1.1-1.8-1.7l-.3-.3-.1.3-1.1 3.2-.1.2.2.1c.6.1 1.3.2 2 .1h.3s.1.3.1.5-.2.5-1.5.5c-.4 0-.8 0-1.2-.1-.9-.2-1.8-.1-2.7.1-.2 0-.3 0-.4-.1-.1-.1-.1-.3 0-.5 0-.2.1-.6 2.1-.6h.2v-.2l1.2-3.5.1-.3h-.3l-.9-.2c-.1-.1-.1-.3-.1-.4.1-.1.3-.4 1.5-.5h.1v-.1l1.5-4.2.1-.3h-.3l-2.3.2c-.1-.2-.2-.4-.1-.6 0-.2.2-.3.5-.4 1.6-.5 3.4-.6 5.1-.2.8.2 1.7.2 2.5-.1.1-.1.3 0 .4.1.1.2.1.4 0 .6-.4.3-.9.5-1.4.5h-.3l.1.3.9 4v.2l.1-.1c.9-.2 1.8-.1 2.6.2.2.2.3.4.2.7 0 .2-.2.4-.5.5-.6-.1-1.3-.2-1.9-.2h-.3l.1.3c.4 1.2 1.2 3.7 1.2 3.7v.1h.1c.7.1 1.4.2 2.1.2h.2v-.2c.3-1 1.3-8.8 1.4-9.1.1-.2 0-.4-.1-.6-.3-.3-.7-.4-1-.4l-.5.1c-.3 0-.6.1-.7 0-.1-.1-.2-.3-.2-.5 0-.1 0-.3.1-.4.1-.1.4-.2 1.1-.1 1 .2 3.7.4 4.2.5.8 1.4 1.5 2.8 2.1 4.2l.1.5.3-.5c1.1-1.5 2.5-2.8 4.1-3.7l4 .6v.3c-.1.4-.3.6-1.3.5zm13.5 2.4c-.1.2-.2.3-.6.3h-.2c-.3-.1-.6-.1-.9 0-.3.3-.5.6-.5 1l-1.6 9c-.4.1-.8.1-1.2 0-.3-.1-.5-.4-.6-.7l-.2-.8c-.6-2.2-1.7-6.4-3.4-8.4l-.3-.3-.1.4c-.3 1.5-1.1 7-1.1 7.2v.2l.2.1 1.2.4c.1.1.2.3.2.4l-.3.3c-.2 0-.5-.1-.8-.1-.7-.1-1.4-.2-2.1-.2-.3 0-.7-.2-.8-.5 0-.1.1-.3.3-.4l1 .1h.2v-.2c.3-2.9.7-5.8 1.3-8.6v-.1c0-.5-.1-.9-1.2-1.1-.1 0-.2-.3-.2-.5s.1-.5.4-.4l3.3.7h.1s1.4.1 3.7 6.2v.1l.3.6.2-.7.8-3.3c.1-.2.1-.5 0-.7-.2-.3-.7-.5-1.5-.6h-.1c-.1 0-.3-.1-.3-.2-.1-.1-.1-.2-.1-.4 0 0 .2-.2.8-.3.9.1 2.4.4 3.2.6.5.1.6.1.7.1.1.3.2.5.2.8zm90-2.7h1l-.5-.9c-.7-1.3-1.2-2.8-1.6-4.2 2.2.5 8.3 1.6 10.9 1.6 1.8 0 3.7-.1 4.9-.1-1.7 1.5-6.3 4.6-17.5 8.4l2.6-2.5 1-.9-1.3-.1c-.4 0-10.4-.9-21.3 5.6-1.2 1.1-2.3 2.3-3.2 3.6-1.2.1-2.4-.1-3.6-.5 1.4-1.6 3-3 4.8-4 4.5-2.9 9.9-6.1 23.8-6zm-24 15.3c1 .3 1.7 1.2 1.9 2.2.4 1.5-1 3.2-1 3.2-1.8 2-4 3.6-6.5 4.8-5 2.4-7.9.7-8.9-.1-.7-.6-2.2-2-2.3-3.8 0-1.2.5-2.3 1.4-3.1 2.8-2.9 8.3-2.1 8.4-2.1l1.6.3-1-1.3s-1-1.2-2.9-3.4c-.4-.5-.6-.9-.5-1.1.1-.3.7-.6 1-.6 1.1 0 2.2.2 3.2.6 3.5 1.2 5.1.8 6.7.4.6-.2 1.2-.3 1.8-.3.6-.1.8.1.9.1 0 .3 0 .5-.2.8l-.7 1.3 1.4-.4c.1 0 .3 0 .3.1.2.1.3.3.3.6-.2.5-.5.9-.9 1.3l-.8.8 1.1.2c.4.1.7.3.9.6.2.3.2.7.1 1.1-.1.2-.9.4-1.9.4-.3-1.4-1.4-2.6-2.7-3h-.1c-.9-.2-1.8-.2-2.7-.1l2.1.5zm-11.8-11 8.2-3.7c1.1.7 2.3 1.1 3.5 1.1 1.6.1 3.2 0 4.7-.3-3 1-5.9 2.5-8.5 4.3l-.2.1c-3.3-.5-6.2-1.1-7.7-1.5zm33.3-6.6c-2.2 0-4.3.2-6.2.4 1.9-1.3 3.7-2.8 5.2-4.5v.3c.1 1.3.5 2.6 1 3.8zm-27.4-1.9.5-.2-.1-.5c-.5-3.1.2-6.2 2.1-8.7 2.4-3.2 6.7-5.3 12.7-6.3-2 .9-3.9 2.2-5.6 3.6-2.7 2.4-2.4 3.9-1.9 4.5 1.1 1.5 4.5 1.5 8.4.3-.9.7-1.8 1.5-2.5 2.4-.7.9-.6 2.2.2 3.1 1.3 1.3 4.9 1.4 13.7-4.8-3.4 5-8.3 8.7-14 10.6 0 0-6.7 1.5-10.7-.7l-.3-.2-11.9 5.7 1.1-1.2 10.7-5c2.1 1 4.4 1.5 6.7 1.3 11.1-.3 18-10.1 18-10.1-11.7 12.3-22.4 8.8-24.7 7.8 0 0-9 4-9.1 4.2.9-1.2 1.7-2.4 2.5-3.7l4.2-2.1zm-30.3-35.2v-.4c.8.5 1.4 1.1 2 1.7 4.1 5.7 1.8 8.9.6 10.5-.5.7-1.3 1.2-2.2 1.2-.8 0-1.6-.3-2.2-.9-.6-.8-.6-1.9-.1-2.8 1.8-2.7 2.4-6 1.9-9.3zm-26.2 11.5c.1-3 1.2-5 1.6-5.2.2.3.3.6.4.9.5 2 1.6 3.9 3.2 5.3-1.4 1.3-2.7 2.8-3.8 4.4-1-1.6-1.5-3.5-1.4-5.4zm4.8 3.2.3-.3.6-.6c.2-.2.5-.4.7-.6 2.2-1.9 4.6-3.5 7.3-4.7 3.4-1.5 7-2.1 10.7-1.8-.3.7-.6 1.4-1 2.1-.9 1.3-.8 3 .2 4.2.8.9 2 1.4 3.2 1.4 1.3-.1 2.4-.7 3.1-1.7 1.1-1.3 1.7-2.9 1.9-4.6 2.5.7 4.8 1.8 7 3.3 2.9 2.2 9.3 8.4 10.1 20-1.9 1.3-4 2.2-6.3 2.6-2.3.3-4.5 1-6.6 1.9l.1-.5.3-1.1-1.1.4c-2.6.9-4 3.3-4.6 4.7-1.1-1.2-2.4-2-4-2.4.1-1.5 0-3-.4-4.4-.5-2.1-1.9-3.9-3.8-4.9l.1-.1c1.3-1.5 2.6-3 4-3 .8 0 1.6.2 2.2.7 0 0-.7-1.9-2.2-2-1.9 0-3.4 1.6-4.9 3.4l-.6.6c-.6.3-1.2.7-1.8 1.2-1 .7-2.6.3-2.7.2l-1.9-.7-.9-.4c-.2.6 0 1.2.5 1.5 0 0 .3.1.8.3-1.3 1.4-1.1 3.8-1.1 3.9.6 4.3 1.7 6.5 2.7 7.6l-.1.1c-.8-.7-1.6-1.2-2.6-1.6 0-1-.1-2.8-.3-4.7-.3-1.9-1.3-3.6-2.8-4.9.5-.4 1-.9 1.4-1.4.3-.6.2-1.4-.1-1.9l-.8 1.2c-.5.6-1.1 1.2-1.8 1.5-1 .3-2.1 0-2.7-.8l-.2-.4c-.1-.2-.2-.3-.3-.5-1.1-2.3-4-2.6-4.1-2.6-1.2-.2-1.6 1.4-1.6 1.4.5-.2 1-.3 1.5-.1 0 0 2.3.2 3.1 1.9.1.1.1.3.2.4-1.5.8-2.6 2.1-3.1 3.7v.1c-.6 4.7.3 7.4 1.1 8.7-.3.1-.5.3-.8.5.1 0 .1-.1.2-.1-2.1-4-3.2-8.4-3.4-12.9-.3-5.3 1.7-10.2 5.3-13.8zm14.3 23.5c-.6.5-1.2 1.1-1.7 1.7-.8-.9-1.7-2.8-2.2-6.6 0 0-.2-2.6 1.3-3.3 1.9.5 3.8-.1 5.2-1.4.5.2.9.5 1.3.8-1 0-4.9.3-4.9 5.9.1.9.4 1.9 1 2.9zm-12.7 2c-.7 0-1.3.1-2 .3-.6-1-1.7-3.4-1-8.1.4-1.3 1.4-2.4 2.7-3 .6.7 1.4 1.1 2.3 1.2.5 0 1 0 1.4-.2.6.6 1.2 1.2 1.6 1.9-.9-.1-2.4.1-4.2 1.7-1.9 1.8-1.6 4.5-.8 6.2zm-5.3 8.9v-.1c-.2-.3-2.3-2.9.9-5.7 1.3-1.3 3.1-1.9 4.9-1.8 1.2.1 2.3.6 3.1 1.5l.9 1.1.2-1.4c.1-.5.4-1.8 1.2-2.2.4-.2.8-.1 1.2.1 2.3 1.1 2.7 1.8 2.7 1.8l.5 1.4.6-1.4s2-4.3 5.5-4.6c3.7-.4 6.7 1.3 7.5 3.1l.7 1.6.5-1.7c.6-1.8 1.7-3.4 3.2-4.5l-.1.5-.3 1.3 1.2-.7c2.3-1.2 4.7-2 7.3-2.4 3.2-.4 8-3.1 10.5-5.7-.5 4.6-2.5 9-5.7 12.4l-1.5 1.6c-5 5.3-5.5 5.9-12.1 6.9l-2 .3 1.8.8c.2.1.5.3.8.4l.6.5c1.1 1.3 1.6 3 1.7 4.7v.2c.7 1.7.4 3.7-.8 5.2l-.2.3.1.3c.3.8.4 1.7.5 2.6-1.3.2-2.4.8-3.2 1.9-.7 1-1.7 1.8-2.9 2.2 0 0 0-.1-.1-.2-1.5-4.2.7-6.4.8-6.5.3-.3.7-.5 1.2-.6-.6-.5-1.3-.6-2-.3l-.4.4c-4.5-4-3.1-8.3-3.1-8.5.1-.7.4-1.3.7-1.9-.8.3-1.5.8-1.9 1.5-.1.2-1.7 5.4 3.6 9.9-.5 1.1-.8 2.2-.7 3.4-1.4-.2-5-1.6-9.2-9.5l.9-2.5.2-.6-.6-.2c-.3-.1-6.7-2.5-8.4-2.7h-1.7c-2.7.6-7 .7-8.6-2.2zm40 7.1c-1-1.3-2.3-2.5-3.6-3.5.3-.2.6-.3.9-.3.5 0 1.1.2 1.5.5.2.4.6.8 1 1.1-.1.3-.2.6-.2.9 0 .5.2.9.4 1.3zm-2.7 10.7c-.2-.4-.4-.7-.8-.9 0-1-.1-2-.4-3 1.3-1.7 1.6-4 .8-6 0-.9-.2-1.8-.5-2.7 1.2.9 2.8 2.4 3.2 3.8.9 2.8 1.7 7.5-2.2 9.7.1-.3 0-.6-.1-.9zm-25.4-7.8c.1-.1.3-.1.4-.1h.5c.2.1.4.1.6.2.2.1.4.2.6.4l.2.1c.5.7.8 1.6.8 2.5 0 .2 0 .4-.1.6-1.2.3-2.1-.2-2.8-1.7-.1-.2-.2-.5-.3-.7-.3-1 .1-1.3.1-1.3zm-.3-1.3c-.2-.6-.4-1.2-.7-1.8l-.1-.2c-.1-.2-.3-.5-.4-.7.1-.2.3-.4.5-.5.4-.1.9-.1 1.2.2.8.8 1.2 1.8 1.2 2.9-.5-.1-1.1-.1-1.7.1zm1.8-2.9 1.6-.8 2.6.9-3.5 2c-.1-.7-.3-1.4-.7-2.1zm.9 3.2 3.5-2-.4 1.3-2.3 1.3c-.2-.3-.5-.5-.8-.6zm-24.9 11.5c-.4-1.2 1.5-2.1 1.7-2.2l12.2-6.6c.5.5 1 1 1.5 1.4l-15 8.4c-.1-.4-.3-.7-.4-1zm9.4-1.9c-2.1 1.3-4.3 2.4-6.6 3.4-.3.1-.5.1-.8.1-.2 0-.3 0-.5-.1l15-8.4c.2.1.3.2.5.3.1.1.1.3.2.4l-7.8 4.3zm8.7-6.4c-1 .6-2.1-.7-2.9-1.8-.4-.6-.5-1.4-.4-2.1-.1-.5.2-.9.7-1 .3-.1.7.1.9.4.5.5.9 1 1.2 1.6.3.6.6 1.2.7 1.8.1.4.1.9-.2 1.1zm-.6-5.2c0-.2 0-.5.1-.7.3-.5.9-.7 1.4-.5h.1l.6.6c.4.5.7 1 1 1.5.3.6.4 1.2.4 1.8v.2c0 .1-.1.2-.5.3-.4.1-.7.1-1.1 0-.1-.4-.2-.7-.4-1-.4-.8-1-1.5-1.6-2.2zm11.5 11.4c-3.7-.1-6.1-3.6-6.2-3.6l-.2-.3h-.3c-2.6 0-2.9-.5-2.9-.6-.1-.2.2-.8.5-1l1.4-1c.1.2.1.4.2.6 1.3 2.7 3.2 2.7 4.3 2.4.5-.2.9-.6 1-1.1.2-1.3-.1-2.5-.7-3.6.8 0 1.7.1 2.4.4 1.4 2.5 3.1 4.7 5.2 6.6-1.4.8-3 1.2-4.7 1.2zm19.5 4.4c-.7 2-4.1 2.4-4.2 2.5l-1.5.2 1.2.9c.5.3 1 .5 1.5.5.2 0 .5.1.7.2.2.2.3.5.2.8-.1.3-.8.6-1.7.6-2.6 0-3-1.1-3.5-2.4l-.1-.2c-.7-1.8-3.4-2.7-5.7-2.8-1.5-.1-2.4-.7-2.5-1.8 0-.3.5-.8 1-1.1.6.1 1.2.3 1.8.6.6.3 1.4.6 2.6 1.1 2.2.8 4.8-1.9 5.3-2.7.6-.7 1.5-1.2 2.4-1.3.2 0 .4.1.5.3.4.9-1.4 2.9-2.8 4l-.9.8 1.2.3c.8.2 1.6-.4 2.4-1 .4-.3.8-.6 1.2-.8.6-.2.9-.2.9-.1.3.1.5.3 0 1.4zm6.9-1.1c-1.3.1-2.7-.2-3.9-.8.7-.8 1.3-1.6 1.9-2.5l.1-.1c.3-.8.2-1.7-.1-2.4-.3.7-.6 1.3-1 1.9l-.1.1-.1.1c-.7 1.1-1.5 2-2.6 2.7 0 0 0-.1-.1-.1-.7-.5-1.5-.5-2.2-.1l-.1.1v-.1c6.4-2.5 5-9.1 4-11.8-.2-.5-.4-1-.7-1.4.5.7 1.3 1 2.1 1 1.3 0 2.4-1.1 2.4-2.4s-1.1-2.4-2.4-2.4c-.5 0-1 .2-1.5.5-.3-.3-.5-.5-.8-.7v-.2c0-.3.3-.6.9-.8 1.5-.7 4.2-1.8 6.4-.7 1.3.7 2.2 2 2.7 4-1.8.2-3.5 1.1-4.8 2.3-1.1 1-1.8 2.5-1.7 4 .1 2.2 1.8 3.9 2.7 4.7 1 .8 2.2 1.4 3.5 1.6-.7 1.8-2.5 3.2-4.6 3.5zm-4-15.9c-.1-.7.5-1.3 1.2-1.4s1.3.5 1.4 1.2-.5 1.3-1.2 1.4h-.1c-.6 0-1.2-.5-1.3-1.2zm37 6.6-.6.5.6.5c.3.4.5.8.4 1.3-.1.3-1.5.7-3.1.7h-.9l.2.6c-.2.3-.5.5-.8.7-.4.2-.8.3-1.2.2 1.1-1.1 2.1-2.3 3-3.6 0 0 .7-1.3.1-2.1-.3.5-.6 1-1.1 1.5-1.1 1.5-2.5 2.9-4 4l-.5.3c-1.3.9-2.8 1.4-4.3 1.6.6-.9 1.2-1.9 1.6-2.9 0 0 .5-1.6-.3-2.1l-.8 1.6c-.8 1.3-1.8 2.5-3 3.5l-.7.5c-2.2 1.6-4.9 2.6-7.6 2.8-2 .1-4-.3-5.7-1.3.8-.7 1.3-1.6 1.7-2.6 1.9 0 3.7-.5 5.4-1.4 2.6-1.2 5-3 6.9-5.1.3-.4.6-.9.8-1.3 1.2-.4 2.6-.3 3.8.3l.5.3.3-.5c1-1.7 2.6-2.5 5.8-3 1.3-.2 2.7.1 3.9.9.6.4 1.1 1 1.3 1.7.1.8-1.1 2-1.7 2.4zm16-7.9c-1.2.7-2.2 1.8-2.9 3.1-.2.2-.5.4-.7.3-.2-.1-.4-.3.4-2.1v-.2c-.4-.7-1.1-1.1-1.9-1.2-1.1 0-2 .6-2.4 1.6-1.2 2.3-1.8 6.4 0 8.2l.2.1c.5.4 1.1.4 1.6 0v-.1c.4-1.3.5-2.7.4-4v-.1h-.1c-.6-.1-1.2-.4-1.6-.9.2-.1.3-.2.5-.2 1.8.2 3.6.2 5.3 0 .2 0 .4.1.5.3 0 .2 0 .5-.5.7h-.1c-.8.2-1.4.7-.8 4.2-.4.8-2.7 2.5-7 .8-2-1-3.8-4.8-3-7.4.5-1.8 1.9-3.3 3.7-4.1 1.7-.6 3.7-.3 5.9 1.1l.2.1.1-.1c.4-.4 1.6-1.3 2.3-1.2.2 0 .3.1.4.3.1.1.1.3 0 .4-.1.1-.3.3-.5.4zm7.9 11.5c-.8.8-2 1.2-3.1 1.1-2-.3-4.6-1.4-4.5-6.7 0-1.7.4-3.9 1.8-5.1 1.1-.8 2.6-1 3.9-.5h.1c.6-.1 1.3.1 1.8.5 1 .7 1.6 2.3 1.8 4.4s-.4 4.9-1.8 6.3zm23.2-1.5c-.9 1-2 1.6-3.3 1.7-1.2 0-4 .2-5.1.3h-.4c-.5.1-2 .2-2.1 0-.1-.6.3-.6.4-.7.7-.1 1.3-.3 2-.5l.2-.1v-.2c-.3-2.6-.3-5.1 0-7.7v-.4l-.3.2c-.3.1-.5.3-.7.6-.2.4-.4.5-.5.5-.1 0-.3-.1-.5-.3v-.1l-.4.2c.2.7.3 1.5.3 2.3.1 2-.6 4.6-2.2 6.1-.9.9-2.2 1.2-3.5 1-1.9-.4-4.5-1.6-4.2-6.9 0-1.7.6-3.9 2.1-5 1.2-.7 2.6-.9 3.9-.4.1 0 2.3-.3 3.3 2.4l.4-.1c0-.9 1.8-2 5-2.9 1.7-.6 3.6-.4 5.1.5 1.3.9 2.1 2.3 2.1 3.9.3 2.2-.3 4.1-1.6 5.6z"/><path d="M321.9 252.2c.9 2.8 1.5 5.7 1.8 8.7l1 .1c.1 0 8.9.3 13.9-1.2 1.4-.4 2.7-.9 3.8-1.4 0-.9.1-2.8.3-4.3-1.2.6-2.5 1-3.8 1.1l-.6.1c-2.7.4-5.5.5-8.2.1-3.6-.5-6.4-1.6-8.2-3.2zm-68.2 6.8c1.3-.4 2.4-1.2 3.2-2.3-1.1.4-2.3.8-3.5 1.1-.6.1-2.4.4-3.1-.3-.3-.4-.4-1-.3-1.5.8-4.1 5.8-5.3 5.9-5.4.4-.1 7.8-2 10.3-5.7.5-.7.8-1.6.9-2.4-.7 1.2-1.7 2.3-2.8 3.1-3.1 2.6-8.6 3.7-8.6 3.7-.2 0-5.8 1.4-6.8 6.3-.3.9 0 1.9.6 2.6 1.3 1.5 3.9.9 4.2.8zm75.4 10.4-.3.3c-.5.7-1.2 1.1-2 1.3-.6-.1-1.1-.4-1.4-.9-.3-.5-.2-1.2.3-1.6.4-.3 1 0 1.5.8l.1.2.2-.2c.2-.2.3-.5.3-.8 0-.6-.5-1.2-1.3-1.8-.3-.2-.8-.2-1.1 0-1 .5-2 2.4-2 5.3 0 1.9.7 4.2 2 4.7.5.2 1.2.2 2.1-.7 1.5-1.7 2-3.9 1.6-6.1v-.5zm-103.8-9.9c2 1.5 6.8 4.9 11.2 3.4 5-1.7 5.8-7.4 5.8-7.6l.2-1.4-1.1.8c-2 1.5-4.6 2-7.1 1.4l-.4-.1c-1.8-.3-3.6 0-5.1.9-1.2.5-2.5.8-3.8 1l-1.6.3 1.4.9c0 .1.2.2.5.4zm6.1.2c-.3.6-.1 1.3.4 1.7.3-.7.7-1.3 1.3-1.7.2-.1 3.6-2.3 5.7.1-.7.9-1.7 1.5-2.8 1.9-2.3.8-4.8-.1-6.8-1.2.6-.5 1.4-.8 2.2-.8z"/><path d="M350.2 250.4c-1.1-3.2-5.9-5.4-14.9-5.5-5.5-.3-14 .9-14.1 4.9 0 .1 0 .1.1.2 1.8 3 5.8 4.1 8.9 4.5l1.2.1c0-1.7-.2-3.3-.6-4.9l-.1-.4.4-.1c.9-.3 1.8-.5 2.8-.6 1.1-.2 2.3-.3 3.4-.3h.7c1.3 0 1.9.2 3.9 1 1.1.4 1.9 1.3 2.1 2.4.1.5 0 1-.2 1.5-.2 1.4-.3 3.6-.3 4.9 3.5-1.6 5.7-3.4 6.6-5.3.1-.2.1-.4.1-.5v-1.9zm-175.9 21.1s-.8-.2-2.1-.4l-.1 6.8v.4l-.4.1c-2.5.4-5 .3-7.4-.3-2.1-.5-3.7-2.1-4.2-4.2l.4-6.5c-1.1.2-2.1.6-3.1 1-1.5.7-3.6 1.8-4.2 3.6-.3 1.3-.1 2.7.6 3.8l.5.7c.2.3.5.5.8.8.8.6 1.7 1.2 2.5 1.6 5.3 2.5 11.4 3.3 17.2 2.3 2.3-.4 5.5-1.7 5.9-4.5 0-.4-.1-.8-.2-1.1-2-3.4-6.1-4.1-6.2-4.1z"/><path d="M161.1 274c.5 1.6 1.8 2.8 3.5 3.2 2.2.5 4.4.6 6.6.3l.1-6.5c-1.6-.2-3.2-.3-4.8-.3-4.3 0-5.3 3.2-5.4 3.3zm157-3.8c-.4.7-1.1 1.1-1.9 1.2-.7 0-1.5-.3-1.9-.9-.4-.5-.4-1.2-.1-1.7.3-.6.9-1 1.6-.9.3.1.8.5.9 1 0 .3-.2.7-.6 1l.2.4c.5-.1.8-.5 1-.9.2-.7.1-1.4-.3-2-.5-.7-1.3-1-2.1-.9-.5.1-1.4.5-1.8 2.2-.5 2.2-.5 6 .9 7.3.3.3.7.5 1.1.5.9-.1 1.7-.6 2.2-1.4.8-1.5 1.2-3.1 1.1-4.8v-.7l-.3.6z"/><path d="M174.5 270.6c2.3.4 4.4 1.6 6 3.3-.2-2.6-.3-5.7-.3-8-4.6-.2-9.2 0-13.8.5 0 0-2.4.3-4.9.8l-.3 5c1.3-1.6 3.2-2.5 5.3-2.3 2.6-.1 5.3.2 8 .7zm165.5-3.5c-.9-.7-2.2-1-4-.8h-.2v.2c-.3 2.8-.4 5.5-.4 8.3 0 .3.1.6.4.9.3.2.6.2 1 .1 2.7-.4 4.6-2.8 4.5-5.4 0-1.2-.4-2.4-1.3-3.3zm-171.9-15.8zm0 0c-1.1-.6-2.4-.6-3.4.1h-.1v.1c-.6 3-.6 6-.1 9v.2h.2c2.1-.2 4-1.4 5-3.2 1.1-2.3.3-4.8-1.6-6.2z"/></svg>