<svg xmlns="http://www.w3.org/2000/svg" viewBox="0 0 500 500" style="enable-background:new 0 0 500 500" xml:space="preserve"><path d="M304.7 239c.5-.2 1.5-.7 2-.9.6-.2.5-.5.4-.9-.7-2.1-1-4.4-1-6.7 0-11.9 9.7-21.6 21.6-21.6 11.9 0 21.6 9.7 21.6 21.6 0 3.1-.7 6-1.9 8.6-.1.2-.1.6.2.7.4.1 1.6.7 2.1.9.4.1.6 0 .8-.4 1.3-3 2.1-6.4 2.1-9.8 0-13.7-11.2-24.9-24.9-24.9-13.8 0-24.9 11.2-24.9 24.9 0 2.9.5 5.5 1.4 8.1-.1.4 0 .7.5.4"/><path d="M298.4 242c.6-.2 2.3-1 2.8-1.3.5-.2.4-.6.4-.8-1-2.9-1.6-6-1.6-9.2 0-15.2 12.5-27.7 27.7-27.7s27.6 12.5 27.6 27.7c0 3.9-.8 7.6-2.3 11-.1.1-.2.6.2.8.5.2 2.4 1 2.8 1.3.4.1.7.1.8-.4 1.7-3.8 2.6-8.2 2.6-12.6 0-17.5-14.3-31.9-31.9-31.9-17.5 0-31.9 14.3-31.9 31.9 0 3.9.7 7.5 2 11 0 0 .3.5.8.2"/><path d="M289.8 246c.6-.2 4.4-2 5.1-2.3.7-.4.4-.8.2-1-1.4-3.7-2.2-7.7-2.2-12 0-19 15.5-34.5 34.5-34.5s34.5 15.5 34.5 34.5c0 4.9-1 9.5-2.8 13.6-.1.2-.2.8.4 1 .6.2 4.3 1.9 4.7 2.1.5.2.8.2 1.1-.6 2.1-5 3.2-10.4 3.2-16.1 0-22.9-18.6-41.4-41.3-41.4-22.9 0-41.4 18.6-41.4 41.4 0 5.3 1 10.3 2.8 14.9.4.1.6.7 1.2.4"/><path d="M327.5 221.6c2.4 0 4.4-2 4.4-4.4s-2-4.4-4.4-4.4c-2.4 0-4.4 2-4.4 4.4-.1 2.4 1.9 4.4 4.4 4.4"/><path d="M329.1 244.8c.8 0 1.6-.7 1.6-1.6v-9.7c0-1.3.9-2.8 1.7-3.7l9.1-9.1c.6-.6.6-1.6 0-2.2l-1.6-1.6c-.6-.6-1.6-.6-2.2 0l-8.3 8.3c-.6.5-.9.8-2 .8s-1.4-.4-2-.8l-8.3-8.3c-.6-.6-1.6-.6-2.2 0l-1.6 1.6c-.6.6-.6 1.6 0 2.2l9.1 9.1c.9.9 1.7 2.5 1.7 3.7v9.7c0 .9.7 1.6 1.6 1.6h3.4z"/><path d="M358 248.3c-1.6.6-4.5 3.5-5.8 4.6l-.4.1c.5-.6 2.4-3 3-3.9 1.6-2.6-1.4-5.1-4.7-3.2-1.3.7-3.4 2.9-4.3 3.7l-.4.1c.5-.5 2.3-2.9 2.8-3.6 1.4-2.1-1.6-4.1-4.1-2.5-1.9 1.1-3.4 2.6-4.9 3.8h-.2c.5-.4 1.4-1.6 1.9-2.1 1.5-1.7-.7-3.7-3-2.5-2.2 1.1-5.4 4.3-8.9 6.6 1.6.8 4.5 1 9 2.9 4.5 2 6 6.5 3 9.9-2.8 3.2-6.8 2.2-10.4 1-4.1-1.3-5.6-2.6-10.6-4.4-3.2-1.1-4.6-1.1-4.5-2.1.1-1 2.9-.5 5.5.5 7.3 2.6 17 8.6 19.4 2.2 1.9-5.1-6.6-7.4-9.8-8-4.5-.8-7.6-4.1-11.5-6.2-5.9-3.1-10.4-3.2-13.7-2.6-3.6.7-8.8 3.6-11.9 5.4-2.2 1.3-2 3.2.1 6.2 7.5 10.6 19.9 17.5 33.8 17.5 14.9 0 27.8-7.9 35.2-19.6 1.6-2.3-.9-5.1-4.6-3.8"/><path d="M275.6 177.5h103.8V285H275.6V177.5zm-155 0H273V285H120.6V177.5zm-2.5 110h263.8V175H118.1v112.5z"/><path d="M239.4 276.8c0 1.1 4.3 2.4 6.5 2.4s5.3-.8 6.9-4.7c1.7-4.1 8.6-28.1 8.6-28.1h.8c1.6-.2 2.2-1.3 2.2-3.6 0-.8-.1-.9-.8-.9h-5.8c-.6 0-.6.1-.8.6l-4.7 18.5-5-18.5c-.1-.6-.2-.6-.8-.7h-5.8c-.7 0-.8.1-.8.9 0 2.4.6 3.4 2.2 3.6h.8s4.6 16 7 22.9l-.4 1.3c-.8 2.5-2.1 3.7-4.3 3.7-.5 0-3.4-.5-3.4-.5-1.6-.1-2.1.6-2.2 1.1 0 .9-.2 1.7-.2 2m-19.5-44h-6.8c-.6 0-.6 0-.7.7l-3.8 23.9-4.6-23.8c-.1-.7-.2-.8-.9-.8H200c-1.1 0-1.1.1-1.4.8l-4.9 23.8-3.7-23.9c-.1-.6-.1-.7-.7-.7h-7c-.7 0-.8.1-.8.9 0 2.6.6 3.6 2.5 3.8h.7l5.4 29.4c.1.7.2.8.9.8h4.6c.7 0 .8 0 .9-.8l4.6-22.9 3.9 22.9c.1.8.1.8.9.8h4.7c.6 0 .7-.1.9-.8l6.1-29.4h.7c1.9-.2 2.5-1.1 2.5-3.8-.2-.8-.3-.9-.9-.9"/><path d="M231.6 262c-.7.7-2 2.2-3.9 2.2-2 0-3.5-1.6-3.5-3.8 0-4.9 5.8-4.5 7.3-4.4l.1 6zm6 1.3c-.2-1-.6-2.3-.6-4.6v-9.2c0-5.8-2.5-8.4-8.3-8.4-4 0-8.2 1.7-8.2 2.9 0 .1.1 1 .5 1.7.1.4.4 1.1 2.1 1 .7 0 3.7-.6 4.9-.6 3.2 0 3.6 1.9 3.6 4.1v1.9c-4 0-12.8 0-12.8 8.9 0 5 2.8 8.1 7.1 8.1 3.4 0 5.1-1.9 6-3l.4-.5.1.7c.2 1 .5 1.9 1.3 1.9h5.9c.7 0 .8-.1.8-.9.1-3-.5-3.9-2.8-4m-41.4-43.4h-.6V199c0-.5 0-.6-.6-.6h-8.2c-.7 0-.8 0-.8.9 0 2.9.7 3.7 3.2 3.7h.6v16.9h-.6c-2.4 0-3.2.8-3.2 3.7 0 .8.1.9.8.9h11.8c.7 0 .8-.1.8-.9.1-2.8-.8-3.7-3.2-3.7m-3.6-31.4c-2 0-3.5 1.6-3.5 3.7s1.6 3.8 3.5 3.8c2 0 3.5-1.7 3.5-3.8 0-2-1.6-3.7-3.5-3.7m-39.1 6.6c2.6 0 3.5-.9 3.5-3.8 0-.8-.1-.9-.8-.9h-11.3c-.7 0-.8.1-.8.5v.5c0 2.9.8 3.8 3.2 3.8h.1v17.2c0 3.2 0 7.7-5.3 7.7-4.9 0-5.3-3.5-5.3-7.7v-17.2h.1c2.4 0 3.2-.9 3.2-3.8v-.6c0-.4-.1-.4-.8-.4H128c-.7 0-.8.1-.8.9 0 2.9.8 3.8 3.4 3.8h.1v17.2c0 9.2 3.5 13.1 11.4 13.1 8.1 0 11.4-3.9 11.4-13.1v-17.2zm26.4 24.8v-14.1c0-5.8-1.9-8.3-6.1-8.3-3.8 0-5.9 2.2-7.5 3.9-.1-.6-.2-1-.2-1-.2-1.1-.5-1.9-1.1-1.9h-6.4c-.7 0-.8 0-.8.9 0 2.6.7 3.7 3 3.7.4 1.1.6 2.1.6 4.7V220c-2.4 0-3.1.9-3.1 3.7 0 .8.1.9.8.9h7.6c.5 0 .5-.1.5-.6v-18.9c.7-.7 2.3-2.3 4.3-2.3 2.9 0 2.9 3.2 2.9 4.7V224c0 .5 0 .6.5.6h7.6c.7 0 .8-.1.8-.9-.2-2.9-1-3.8-3.4-3.8m30.5 5.5c3.4 0 6.1-.9 6.1-1.6 0-.1-.2-1.1-.4-1.6-.5-2-.7-2.6-4.3-2.2-.5 0-.8-.1-1.1-.4-.7-.7-.7-2.2-.7-3.5V203h3.2c2.4 0 3.2-.9 3.2-3.7 0-.8-.1-.9-.8-.9H210V191c0-.7 0-.7-.4-.7-.2 0-1.5.1-2.1.2-1.6.2-3.5 1.5-3.5 4.5v3.4h-3.4c-.7 0-.8 0-.8.9 0 2.9.7 3.7 3.2 3.7h.9v12.2c.4 5 .4 10.2 6.5 10.2m14.2-16.9v-.5c.1-1.7.6-5.9 4.3-5.9 3.6 0 3.7 4.1 3.7 6.4h-8zm13.9 3.4c0-9.6-3.2-14.4-9.5-14.4s-10.4 5.8-10.4 14.2c0 11.3 5.8 13.7 10.6 13.7 3.9 0 8.4-1.9 8.4-3 0-.2-.2-1-.5-1.9-.2-.6-.5-1.1-2.2-1-1.3.1-3.4.7-5.2.7-3.6 0-5.4-2.3-5.4-7h13.1c1-.1 1.1-.3 1.1-1.3m12.8 8.6c-3.5 0-4.3-3.2-4.3-8.8 0-5.9.7-9.1 4.5-9.1 1.5 0 2.6.4 3.8 1.1v14.9c-.6.7-1.6 1.9-4 1.9m10.5-.6c-.4-1-.6-2.1-.6-4.6v-26c0-.5 0-.6-.5-.6h-7.6c-.7 0-.8.1-.8.9 0 2.8.7 3.7 3 3.7h.1v6l-.4-.3c-.9-.6-2.1-1.5-4.6-1.5-5.9 0-9.1 5.2-9.1 15 0 8.3 2.9 12.9 8.1 12.9 4.1 0 6.8-3 6.8-3l.4 1.1c.2.9.2 1 1 1h6.7c.7 0 .8-.1.8-.9 0-2.8-.8-3.7-3.3-3.7m-135 98c1.1 0 2.1-.5 2.8-1.3.7-.8 1-1.9 1-3.1 0-1.1-.4-2.2-1-3-.7-.8-1.6-1.3-2.8-1.3-1.1 0-2.1.5-2.8 1.3-.7.8-1 1.9-1 3 0 1.3.4 2.2 1 3.1s1.6 1.3 2.8 1.3m0 2.5c-2 0-3.6-.7-4.9-2s-1.9-2.9-1.9-4.9c0-2 .6-3.6 1.9-4.9 1.3-1.3 2.9-2 4.9-2 2.1 0 3.7.7 4.9 2 1.3 1.3 1.9 2.9 1.9 4.9 0 2-.6 3.6-1.9 4.9-1.3 1.3-3 2-4.9 2m12.8-.4h-2.8v-10.5h-2.2v-2.4h2.2v-.7c0-1.4.4-2.5 1.1-3.2.7-.8 1.7-1.1 3-1.1 1.4 0 2.4.4 3.1 1.1l-1.1 1.7c-.5-.4-.9-.6-1.5-.6s-1 .2-1.3.6c-.4.4-.5.9-.5 1.6v.7h2.6v2.4h-2.6V320zm30.3 0h-3.1v-13.2l-5.5 13.2H160l-5.5-13.2V320h-3.1v-17.9h4.3l4.9 11.8 4.9-11.8h4.4zm13.3-7.5c0-.9-.4-1.7-.9-2.4-.6-.7-1.5-1-2.6-1s-2 .4-2.6 1c-.6.7-.9 1.5-1 2.4h7.1zm-3.5 7.9c-2 0-3.6-.6-4.9-1.9-1.3-1.3-2-2.9-2-5 0-1.9.6-3.5 1.9-4.9 1.3-1.3 2.8-2 4.7-2 2 0 3.5.7 4.6 2 1.1 1.3 1.7 3 1.7 5.1v.7h-10c.1 1 .6 1.9 1.3 2.5.7.7 1.7 1 2.9 1 .7 0 1.4-.1 2-.4.7-.2 1.3-.6 1.7-1l1.3 1.9c-1.3 1.4-3 2-5.2 2m12.7 0c-1 0-2-.2-2.5-.8-.6-.7-.8-1.4-.8-2.4v-7.5h-2.2v-2.4h2.2v-3.6h2.8v3.6h2.6v2.4h-2.6v6.8c0 .5.1.8.4 1.1.2.2.6.5.9.5.6 0 1-.1 1.3-.5l.7 2.1c-.7.4-1.5.7-2.8.7m7.5-.4h-2.8v-12.9h2.8v2c.5-.7 1.1-1.1 1.9-1.6.8-.5 1.5-.6 2.3-.6v2.8c-.2 0-.6-.1-.9-.1-.6 0-1.3.1-1.9.6-.7.4-1.1.7-1.4 1.1v8.7zm12.1-2.1c1.1 0 2.1-.5 2.8-1.3.7-.8 1-1.9 1-3.1 0-1.1-.4-2.2-1-3-.7-.8-1.6-1.3-2.8-1.3-1.1 0-2.1.5-2.8 1.3-.7.8-1 1.9-1 3 0 1.3.4 2.2 1 3.1.9.9 1.7 1.3 2.8 1.3m0 2.5c-2 0-3.6-.7-4.9-2-1.3-1.3-1.9-2.9-1.9-4.9 0-2 .6-3.6 1.9-4.9 1.3-1.3 2.9-2 4.9-2 2.1 0 3.7.7 4.9 2 1.3 1.3 1.9 2.9 1.9 4.9 0 2-.6 3.6-1.9 4.9-1.2 1.3-2.8 2-4.9 2m15.6-2.5c1.1 0 2-.4 2.6-1.1.7-.8 1-1.9 1-3.1 0-1.3-.4-2.3-1-3.1-.7-.8-1.5-1.1-2.6-1.1-.7 0-1.3.1-2 .5-.6.4-1.1.7-1.4 1.3v5.1c.4.5.8.9 1.4 1.3.8 0 1.3.2 2 .2m.8 2.5c-1.7 0-3.1-.7-4.1-2.1v6.7h-2.8v-17.9h2.8v1.7c1-1.4 2.4-2.1 4.1-2.1 1.7 0 3.1.6 4.1 1.9s1.6 2.9 1.6 5-.6 3.8-1.6 5c-1 1.2-2.4 1.8-4.1 1.8m14.5-2.5c1.1 0 2.1-.5 2.8-1.3.7-.8 1-1.9 1-3.1 0-1.1-.4-2.2-1-3-.7-.8-1.6-1.3-2.8-1.3-1.1 0-2.1.5-2.8 1.3-.7.8-1 1.9-1 3 0 1.3.4 2.2 1 3.1.7.9 1.6 1.3 2.8 1.3m0 2.5c-2 0-3.6-.7-4.9-2-1.3-1.3-1.9-2.9-1.9-4.9 0-2 .6-3.6 1.9-4.9 1.3-1.3 2.9-2 4.9-2 2.1 0 3.7.7 4.9 2 1.3 1.3 1.9 2.9 1.9 4.9 0 2-.6 3.6-1.9 4.9-1.4 1.4-3 2-4.9 2m9.3-18.3h2.8V320h-2.8zm9.1 17.9h-2.8v-12.9h2.8V320zm-1.4-14.5c-.5 0-.9-.1-1.3-.5s-.6-.8-.6-1.3.2-.9.6-1.3c.4-.4.8-.5 1.3-.5s.9.1 1.3.5.5.8.5 1.3-.1.9-.5 1.3c-.3.4-.8.5-1.3.5m8.9 14.9c-1 0-2-.2-2.5-.8-.6-.7-.8-1.4-.8-2.4v-7.5h-2.2v-2.4h2.2v-3.6h2.8v3.6h2.6v2.4h-2.6v6.8c0 .5.1.8.4 1.1.2.2.6.5.9.5.6 0 1-.1 1.3-.5l.7 2.1c-.7.4-1.5.7-2.8.7m9.6-2c1.4 0 2.4-.5 3.1-1.4v-2c-.7-.9-1.7-1.4-3.1-1.4-.8 0-1.5.2-2 .7-.6.5-.8 1-.8 1.7s.2 1.3.8 1.7c.5.5 1.2.7 2 .7m5.9 1.6h-2.8v-1.4c-1 1.1-2.4 1.7-4.1 1.7-1.1 0-2.2-.4-3.1-1.1a4.1 4.1 0 0 1-1.4-3.1c0-1.4.5-2.4 1.4-3.1s2-1 3.1-1c1.9 0 3.2.6 4.1 1.6v-2c0-.7-.2-1.4-.8-1.7-.6-.5-1.3-.7-2.2-.7-1.5 0-2.8.6-3.8 1.6l-1.1-2c1.5-1.4 3.2-2.1 5.4-2.1 1.6 0 2.9.4 3.9 1.1 1 .8 1.5 2 1.5 3.6l-.1 8.6zm15 0h-2.8v-8c0-1.9-.9-2.6-2.6-2.6-.7 0-1.3.1-2 .5-.6.4-1 .8-1.4 1.3v9h-2.8v-12.9h2.8v1.7c.5-.6 1.1-1 2-1.5.8-.5 1.7-.6 2.6-.6 1.4 0 2.4.4 3.1 1 .7.7 1 1.7 1 3.1l.1 9zm17.3-2.7c1.9 0 3.4-.6 4.5-1.7s1.6-2.6 1.6-4.4c0-1.9-.6-3.4-1.6-4.5s-2.5-1.7-4.5-1.7h-3.5v12.4l3.5-.1zm0 2.7h-6.7v-17.9h6.7c2.8 0 5.1.8 6.8 2.5 1.7 1.6 2.6 3.8 2.6 6.5 0 2.6-.8 4.7-2.5 6.5-1.9 1.6-4.1 2.4-6.9 2.4m17-1.6c1.4 0 2.4-.5 3.1-1.4v-2c-.7-.9-1.7-1.4-3.1-1.4-.8 0-1.5.2-2 .7-.6.5-.8 1-.8 1.7s.2 1.3.8 1.7c.5.5 1.3.7 2 .7m5.9 1.6h-2.8v-1.4c-1 1.1-2.4 1.7-4.1 1.7-1.1 0-2.2-.4-3.1-1.1a4.1 4.1 0 0 1-1.4-3.1c0-1.4.5-2.4 1.4-3.1s2-1 3.1-1c1.9 0 3.2.6 4.1 1.6v-2c0-.7-.2-1.4-.8-1.7-.6-.5-1.3-.7-2.2-.7-1.5 0-2.8.6-3.8 1.6l-1.1-2c1.5-1.4 3.2-2.1 5.4-2.1 1.6 0 2.9.4 3.9 1.1 1 .8 1.5 2 1.5 3.6l-.1 8.6zm3.5-17.9h2.8V320H343zm6.2 0h2.8V320h-2.8zm11.2 16.3c1.4 0 2.4-.5 3.1-1.4v-2c-.7-.9-1.7-1.4-3.1-1.4-.8 0-1.5.2-2 .7-.6.5-.8 1-.8 1.7s.2 1.3.8 1.7c.5.5 1.2.7 2 .7m5.9 1.6h-2.8v-1.4c-1 1.1-2.4 1.7-4.1 1.7-1.1 0-2.2-.4-3.1-1.1a4.1 4.1 0 0 1-1.4-3.1c0-1.4.5-2.4 1.4-3.1s2-1 3.1-1c1.9 0 3.2.6 4.1 1.6v-2c0-.7-.2-1.4-.8-1.7-.6-.5-1.3-.7-2.2-.7-1.5 0-2.8.6-3.8 1.6l-1.1-2c1.5-1.4 3.2-2.1 5.4-2.1 1.6 0 2.9.4 3.9 1.1 1 .8 1.5 2 1.5 3.6l-.1 8.6zm7.8.4c-2.3 0-4.1-.7-5.5-2l1.3-2.1c.5.5 1.1.9 2 1.3.8.4 1.6.6 2.4.6s1.5-.1 1.9-.5c.5-.4.7-.7.7-1.3 0-.5-.2-.8-.8-1-.6-.2-1.1-.5-2-.6-.8-.1-1.5-.4-2.3-.6-.8-.2-1.4-.6-2-1.1-.6-.6-.8-1.3-.8-2.2 0-1.1.5-2.1 1.4-2.8.9-.8 2.2-1.1 3.7-1.1 2 0 3.7.6 5.1 1.9l-1.1 2c-.5-.5-.9-.8-1.6-1.1-.7-.2-1.4-.5-2.2-.5-.7 0-1.3.1-1.7.5-.5.4-.7.7-.7 1.1 0 .4.2.7.6.9.4.2.9.4 1.5.5s1.3.2 1.9.5c.7.2 1.3.5 1.9.7.6.2 1 .7 1.5 1.3.4.6.6 1.3.6 2.1 0 1.1-.5 2.2-1.4 2.9-1.2.2-2.6.6-4.4.6"/></svg>