<svg xmlns="http://www.w3.org/2000/svg" viewBox="0 0 500 500" style="enable-background:new 0 0 500 500" xml:space="preserve"><path d="m111.1 288.4-1.5 3.1h-2l5.4-10.7h2.3l1.4 10.7h-1.9l-.3-3.1h-3.4zm3.3-1.5-.3-2.7c0-.6-.1-1.4-.2-2-.3.6-.6 1.4-.9 2l-1.3 2.7h2.7zm4.1 2.8c.4.2 1.2.5 1.9.5.8 0 1.2-.4 1.2-1 0-.5-.3-.8-1-1.2-.9-.5-1.5-1.1-1.5-2 0-1.5 1.3-2.5 3.1-2.5.8 0 1.5.2 1.8.4l-.5 1.3c-.3-.2-.8-.4-1.4-.4-.7 0-1.2.4-1.2.9 0 .4.3.7 1 1.1.8.5 1.6 1.1 1.6 2.1 0 1.7-1.4 2.6-3.3 2.6-.9 0-1.8-.3-2.2-.6l.5-1.2zm6.6 0c.4.2 1.2.5 1.9.5s1.2-.4 1.2-1c0-.5-.3-.8-1-1.2-.9-.5-1.5-1.1-1.5-2 0-1.5 1.3-2.5 3.1-2.5.8 0 1.5.2 1.8.4l-.5 1.3c-.3-.2-.8-.4-1.4-.4-.7 0-1.2.4-1.2.9 0 .4.4.7 1 1.1.8.5 1.6 1.1 1.6 2.1 0 1.7-1.4 2.6-3.3 2.6-.9 0-1.8-.3-2.2-.6l.5-1.2zm14.5-6-1 5.4c-.2.9-.3 1.7-.4 2.4h-1.6l.2-1.4c-.7 1-1.7 1.5-2.7 1.5-1.1 0-2-.6-2-2.2 0-.4 0-.9.2-1.4l.8-4.3h1.8l-.8 4.2c-.1.4-.1.8-.1 1.1 0 .6.3 1.1 1 1.1.9 0 1.9-1 2.2-2.6l.7-3.8h1.7zm.9 7.7.9-4.8c.2-1.1.3-2.3.4-3h1.6c0 .5-.1 1.1-.2 1.6.5-1.1 1.4-1.8 2.4-1.8h.4l-.4 1.8h-.4c-1.3 0-2.2 1.3-2.5 3l-.6 3.1h-1.6zm10.8 0c0-.5.1-1.1.1-1.8-.8 1.4-1.8 1.9-2.8 1.9-1.4 0-2.3-1.1-2.3-2.6 0-2.6 1.8-5.5 5.5-5.5.8 0 1.8.2 2.3.4l-.8 4c-.2 1.2-.4 2.6-.3 3.5h-1.7zm.8-6.4c-.2 0-.4-.1-.8-.1-1.7 0-3 1.9-3 3.7 0 .8.3 1.5 1.1 1.5.9 0 1.9-1.1 2.3-3.1l.4-2zm3.1 6.4 1-5.4c.2-.9.3-1.7.4-2.4h1.6l-.2 1.4c.7-1.1 1.7-1.6 2.8-1.6 1.1 0 2 .7 2 2.1 0 .4-.1.9-.1 1.3l-.9 4.5H160l.8-4.4c0-.3.1-.6.1-.9 0-.6-.2-1.1-1-1.1s-1.9 1-2.3 2.8l-.7 3.6h-1.7zm14.6-.2c-.4.2-1.2.4-2.2.4-1.9 0-3.1-1.2-3.1-3.1 0-2.7 2.1-5 4.9-5 .7 0 1.3.2 1.6.3l-.5 1.4c-.3-.1-.7-.2-1.2-.2-1.8 0-2.9 1.7-2.9 3.3 0 1.2.7 1.8 1.7 1.8.7 0 1.3-.2 1.7-.4v1.5zm7.5-.2c-.8.4-1.8.6-2.7.6-2.1 0-3.2-1.3-3.2-3.2 0-2.3 1.7-4.9 4.4-4.9 1.5 0 2.5.9 2.5 2.2 0 2-2.1 2.6-5.1 2.6 0 .3 0 .8.2 1.1.3.5.9.8 1.6.8.9 0 1.6-.2 2.1-.5l.2 1.3zm-1.8-6.1c-1.2 0-1.9 1-2.1 2 1.9 0 3.1-.2 3.1-1.2 0-.5-.4-.8-1-.8m7.1 2.9c0-.9.7-1.7 1.6-1.7.9 0 1.7.7 1.7 1.7 0 .9-.7 1.7-1.7 1.7-.8-.1-1.6-.8-1.6-1.7m11.3-5.5h-3l.4-1.6h7.8l-.3 1.6h-3l-1.7 9.1h-1.9zm8.5 9.1c0-.5.1-1.1.1-1.8-.8 1.4-1.8 1.9-2.8 1.9-1.4 0-2.3-1.1-2.3-2.6 0-2.6 1.8-5.5 5.5-5.5.8 0 1.8.2 2.3.4l-.8 4c-.2 1.2-.4 2.6-.3 3.5h-1.7zm.8-6.4c-.2 0-.4-.1-.8-.1-1.7 0-3 1.9-3 3.7 0 .8.3 1.5 1.1 1.5.9 0 1.9-1.1 2.3-3.1l.4-2zm5.6-1.3.6 1.4c.2.6.4 1 .5 1.3.3-.4.5-.7.8-1.2l1.1-1.5h2.1l-3.3 3.8 1.8 4h-2l-.6-1.5c-.2-.6-.4-.9-.5-1.4-.2.4-.4.7-.8 1.3l-1.2 1.6h-2.1l3.4-4-1.8-3.8h2zm8.7 4.1c0-.9.7-1.7 1.6-1.7.9 0 1.7.7 1.7 1.7 0 .9-.7 1.7-1.7 1.7-.8-.1-1.6-.8-1.6-1.7m10.3.6-1.5 3.1h-2l5.4-10.7h2.3l1.4 10.7h-1.9l-.3-3.1h-3.4zm3.2-1.5-.3-2.7c0-.6-.1-1.4-.2-2-.3.6-.6 1.4-.9 2l-1.3 2.7h2.7zm12.4-6.8-1.6 8.6c-.2.9-.3 1.9-.4 2.8h-1.7l.2-1.4c-.7 1.1-1.7 1.6-2.7 1.6-1.4 0-2.4-1.1-2.4-2.9 0-2.7 2-5.2 4.8-5.2.4 0 .9.1 1.2.2l.7-3.6h1.9zm-2.8 5.1c-.2-.2-.6-.3-1.1-.3-1.6 0-2.8 1.8-2.8 3.5 0 .9.4 1.7 1.2 1.7.8 0 1.8-.9 2.1-2.5l.6-2.4zm5.5-1.5.5 3.9c.1.9.2 1.5.2 2 .2-.5.4-1.1.8-2l1.9-3.9h2.1l-4.3 7.8h-1.9l-1.3-7.8h2zm5.7 7.7 1.5-7.8h1.9l-1.5 7.8h-1.9zm1.8-9.8c0-.7.5-1.1 1.1-1.1.6 0 1 .4 1 1 0 .7-.5 1.1-1.1 1.1-.6 0-1-.5-1-1m2.7 8.1c.4.2 1.2.5 1.9.5s1.2-.4 1.2-1c0-.5-.3-.8-1-1.2-.9-.5-1.5-1.1-1.5-2 0-1.5 1.3-2.5 3.1-2.5.8 0 1.5.2 1.8.4l-.5 1.3c-.3-.2-.8-.4-1.4-.4-.7 0-1.2.4-1.2.9 0 .4.3.7 1 1.1.8.5 1.6 1.1 1.6 2.1 0 1.7-1.4 2.6-3.3 2.6-.9 0-1.8-.3-2.2-.6l.5-1.2zm14.3-3c0 2.6-1.8 4.9-4.5 4.9-2 0-3.2-1.4-3.2-3.2 0-2.6 1.8-4.9 4.5-4.9 2.1 0 3.2 1.5 3.2 3.2m-5.8 1.7c0 1.1.6 1.8 1.5 1.8 1.4 0 2.3-1.9 2.3-3.5 0-.8-.4-1.8-1.5-1.8-1.4 0-2.3 2-2.3 3.5m6.9 3 .9-4.8c.2-1.1.3-2.3.4-3h1.6c0 .5-.1 1.1-.2 1.6.5-1.1 1.4-1.8 2.4-1.8h.4l-.4 1.8h-.4c-1.3 0-2.2 1.3-2.5 3l-.6 3.1h-1.6zm8.5-7.7.6 3.7c.1.8.2 1.4.3 1.9.2-.5.4-1 .7-1.8l1.7-3.8h2l-2.8 5.7c-.9 1.9-1.8 3.3-2.8 4.3-.9.9-1.9 1.2-2.4 1.3l-.4-1.6c.4-.1.9-.3 1.4-.7.5-.4 1-.9 1.4-1.5.1-.1.1-.2 0-.4l-1.5-7.1h1.8zm29.3-49.1c-1.6-1.6-3.3-2.5-4.9-2.5-2.6 0-4.7 1.5-8 5.6V233h-7.2v35.4h7.2v-21c3-5.4 5.9-8.3 7.2-8.1.3 0 .8.2 1.9 1.2l.7.6.5-.8 2.8-4.7.3-.5-.5-.5zM140 232.9l-7.9 25.4-8.5-25.4H116l2.6 6.7-6.9 18.8-7.6-25.5h-7.8l11.8 36.4h5.8l7.9-21 7.6 21h5.6l.2-.6 12.1-35.8zm32.5 12.3h-14.7c1.4-4.3 4.2-6.5 8.2-6.5 4 0 6.1 2.1 6.5 6.5m7.7 1.7c0-8.8-5.5-14.8-13.8-14.8-10.1 0-16.8 7.6-16.8 18.6 0 11 6.7 18.6 16.5 18.6h.1c4.5 0 7.6-1.1 12.6-4.2l.6-.4-2.6-5-.4-.8-.7.5c-3.6 2.5-5.5 3.2-8.4 3.2-6.2-.1-10-4.2-10.3-11.7h23.1v-4zm24.3 6.6v5.6c-4.6 3.3-6.1 4-8.3 4-2.4-.1-3.7-1.3-3.8-3.6 0-1.2.1-1.7.7-3l11.4-3zm9.3 9.9c-1.6-.3-2.1-.8-2.1-1.1v-20.6c0-5.7-4.8-9.2-11.8-9.2-7.4 0-12.9 3.2-13 8.3 0 .9.1 1.6.7 2.5l.3.5 6.2-1.3.9-.2-.3-.8c-.2-.6-.3-.7-.3-1 0-1.3.9-2.1 4.4-2.1 4.3.1 5.6 1.2 5.6 3.4v5.5l-11.1 2.6c-5.2 1.2-8.2 5-8.1 10.2 0 5.8 4 9.7 9.8 9.7 2.5 0 5.3-.8 7.6-2 .9-.5 1.6-1 2.7-1.9.7 2.6 3.1 3.8 7.1 4h.6l.2-.6 1.3-4.7.2-.8-.9-.4zm27.8-30.5-8.7 26.2-8.9-26.2h-7.8l13.3 36.4h6.2l.2-.5 13.5-35.9zm33.2 12.3h-14.7c1.4-4.3 4.2-6.5 8.2-6.5 4 .1 6.1 2.1 6.5 6.5m7.7 1.7c0-8.8-5.5-14.8-13.8-14.8-10.1 0-16.8 7.6-16.8 18.6 0 11 6.7 18.6 16.5 18.6h.2c4.4 0 7.5-1.1 12.5-4.2l.6-.4-2.6-5-.4-.8-.7.5c-3.6 2.5-5.5 3.2-8.4 3.2-6.2-.1-10-4.2-10.3-11.7h23.1v-4zm14.9-41.9h27.9s28.8 35.6 78.5 43.2H340L297.4 205zm0 86.5h27.9s28.8-35.6 78.5-43.2H340l-42.6 43.2z"/></svg>